999
dxfrw 0.6.3
  0
SECTION
  2
HEADER
  9
$ACADVER
  1
AC1021
  9
$DWGCODEPAGE
  3
ANSI_1252
  9
$INSBASE
 10
0
 20
0
 30
0
  9
$EXTMIN
 10
10
 20
9.99999999999989
 30
0
  9
$EXTMAX
 10
390.0000000000001
 20
386
 30
0
  9
$LIMMIN
 10
0
 20
0
  9
$LIMMAX
 10
420
 20
297
  9
$ORTHOMODE
 70
    0
  9
$REGENMODE
 70
    1
  9
$FILLMODE
 70
    1
  9
$QTEXTMODE
 70
    0
  9
$MIRRTEXT
 70
    0
  9
$LTSCALE
 40
1
  9
$ATTMODE
 70
    0
  9
$TEXTSIZE
 40
2.5
  9
$TRACEWID
 40
15.68
  9
$TEXTSTYLE
  7
STANDARD
  9
$CLAYER
  8
LaserCut
  9
$CELTYPE
  6
BYLAYER
  9
$CECOLOR
 62
  256
  9
$CELTSCALE
 40
1
  9
$DISPSILH
 70
    0
  9
$DIMSCALE
 40
1
  9
$DIMASZ
 40
2.5
  9
$DIMEXO
 40
0.625
  9
$DIMDLI
 40
3.75
  9
$DIMRND
 40
0
  9
$DIMDLE
 40
0
  9
$DIMEXE
 40
1.25
  9
$DIMTP
 40
0
  9
$DIMTM
 40
0
  9
$DIMTXT
 40
2.5
  9
$DIMCEN
 40
2.5
  9
$DIMTSZ
 40
0
  9
$DIMTOL
 70
    0
  9
$DIMLIM
 70
    0
  9
$DIMTIH
 70
    0
  9
$DIMTOH
 70
    0
  9
$DIMSE1
 70
    0
  9
$DIMSE2
 70
    0
  9
$DIMTAD
 70
    1
  9
$DIMZIN
 70
    8
  9
$DIMBLK
  1

  9
$DIMASO
 70
    1
  9
$DIMSHO
 70
    1
  9
$DIMPOST
  1

  9
$DIMAPOST
  1

  9
$DIMALT
 70
    0
  9
$DIMALTD
 70
    3
  9
$DIMALTF
 40
0.03937
  9
$DIMLFAC
 40
1
  9
$DIMTOFL
 70
    1
  9
$DIMTVP
 40
0
  9
$DIMTIX
 70
    0
  9
$DIMSOXD
 70
    0
  9
$DIMSAH
 70
    0
  9
$DIMBLK1
  1

  9
$DIMBLK2
  1

  9
$DIMSTYLE
  2
STANDARD
  9
$DIMCLRD
 70
    0
  9
$DIMCLRE
 70
    0
  9
$DIMCLRT
 70
    0
  9
$DIMTFAC
 40
1
  9
$DIMGAP
 40
0.625
  9
$DIMJUST
 70
    0
  9
$DIMSD1
 70
    0
  9
$DIMSD2
 70
    0
  9
$DIMTOLJ
 70
    0
  9
$DIMTZIN
 70
    8
  9
$DIMALTZ
 70
    0
  9
$DIMALTTZ
 70
    0
  9
$DIMUPT
 70
    0
  9
$DIMDEC
 70
    2
  9
$DIMTDEC
 70
    2
  9
$DIMALTU
 70
    2
  9
$DIMALTTD
 70
    3
  9
$DIMTXSTY
  7
STANDARD
  9
$DIMAUNIT
 70
    0
  9
$DIMADEC
 70
    0
  9
$DIMALTRND
 40
0
  9
$DIMAZIN
 70
    0
  9
$DIMDSEP
 70
   44
  9
$DIMATFIT
 70
    3
  9
$DIMFRAC
 70
    0
  9
$DIMLDRBLK
  1
STANDARD
  9
$DIMLUNIT
 70
    2
  9
$DIMLWD
 70
   -2
  9
$DIMLWE
 70
   -2
  9
$DIMTMOVE
 70
    0
  9
$DIMFXL
 40
1
  9
$DIMFXLON
 70
    0
  9
$DIMJOGANG
 40
0.7854
  9
$DIMTFILL
 70
    0
  9
$DIMTFILLCLR
 70
    0
  9
$DIMARCSYM
 70
    0
  9
$DIMLTYPE
  6

  9
$DIMLTEX1
  6

  9
$DIMLTEX2
  6

  9
$LUNITS
 70
    2
  9
$LUPREC
 70
    4
  9
$SKETCHINC
 40
1
  9
$FILLETRAD
 40
0
  9
$AUNITS
 70
    0
  9
$AUPREC
 70
    2
  9
$MENU
  1
.
  9
$ELEVATION
 40
0
  9
$PELEVATION
 40
0
  9
$THICKNESS
 40
0
  9
$LIMCHECK
 70
    0
  9
$CHAMFERA
 40
0
  9
$CHAMFERB
 40
0
  9
$CHAMFERC
 40
0
  9
$CHAMFERD
 40
0
  9
$SKPOLY
 70
    0
  9
$USRTIMER
 70
    1
  9
$ANGBASE
 50
0
  9
$ANGDIR
 70
    0
  9
$PDMODE
 70
   34
  9
$PDSIZE
 40
0
  9
$PLINEWID
 40
0
  9
$SPLFRAME
 70
    0
  9
$SPLINETYPE
 70
    2
  9
$SPLINESEGS
 70
    8
  9
$HANDSEED
  5
20000
  9
$SURFTAB1
 70
    6
  9
$SURFTAB2
 70
    6
  9
$SURFTYPE
 70
    6
  9
$SURFU
 70
    6
  9
$SURFV
 70
    6
  9
$UCSBASE
  2

  9
$UCSNAME
  2

  9
$UCSORG
 10
0
 20
0
 30
0
  9
$UCSXDIR
 10
1
 20
0
 30
0
  9
$UCSYDIR
 10
0
 20
1
 30
0
  9
$UCSORTHOREF
  2

  9
$UCSORTHOVIEW
 70
    0
  9
$UCSORGTOP
 10
0
 20
0
 30
0
  9
$UCSORGBOTTOM
 10
0
 20
0
 30
0
  9
$UCSORGLEFT
 10
0
 20
0
 30
0
  9
$UCSORGRIGHT
 10
0
 20
0
 30
0
  9
$UCSORGFRONT
 10
0
 20
0
 30
0
  9
$UCSORGBACK
 10
0
 20
0
 30
0
  9
$PUCSBASE
  2

  9
$PUCSNAME
  2

  9
$PUCSORG
 10
0
 20
0
 30
0
  9
$PUCSXDIR
 10
1
 20
0
 30
0
  9
$PUCSYDIR
 10
0
 20
1
 30
0
  9
$PUCSORTHOREF
  2

  9
$PUCSORTHOVIEW
 70
    0
  9
$PUCSORGTOP
 10
0
 20
0
 30
0
  9
$PUCSORGBOTTOM
 10
0
 20
0
 30
0
  9
$PUCSORGLEFT
 10
0
 20
0
 30
0
  9
$PUCSORGRIGHT
 10
0
 20
0
 30
0
  9
$PUCSORGFRONT
 10
0
 20
0
 30
0
  9
$PUCSORGBACK
 10
0
 20
0
 30
0
  9
$USERI1
 70
    0
  9
$USERI2
 70
    0
  9
$USERI3
 70
    0
  9
$USERI4
 70
    0
  9
$USERI5
 70
    0
  9
$USERR1
 40
0
  9
$USERR2
 40
0
  9
$USERR3
 40
0
  9
$USERR4
 40
0
  9
$USERR5
 40
0
  9
$WORLDVIEW
 70
    1
  9
$SHADEDGE
 70
    3
  9
$SHADEDIF
 70
   70
  9
$TILEMODE
 70
    1
  9
$MAXACTVP
 70
   64
  9
$PINSBASE
 10
7.631578947368423
 20
52.10526315789479
 30
0
  9
$PLIMCHECK
 70
    0
  9
$PEXTMIN
 10
0
 20
0
 30
0
  9
$PEXTMAX
 10
0
 20
0
 30
0
  9
$GRIDMODE
 70
    1
  9
$SNAPSTYLE
 70
    0
  9
$PLIMMIN
 10
0
 20
0
  9
$PLIMMAX
 10
210
 20
297
  9
$UNITMODE
 70
    0
  9
$VISRETAIN
 70
    1
  9
$PLINEGEN
 70
    0
  9
$PSLTSCALE
 70
    1
  9
$TREEDEPTH
 70
 3020
  9
$CMLSTYLE
  2
Standard
  9
$CMLJUST
 70
    0
  9
$CMLSCALE
 40
20
  9
$PROXYGRAPHICS
 70
    1
  9
$MEASUREMENT
 70
    1
  9
$CELWEIGHT
370
   -1
  9
$ENDCAPS
280
    0
  9
$JOINSTYLE
280
    0
  9
$LWDISPLAY
290
    0
  9
$INSUNITS
 70
    4
  9
$HYPERLINKBASE
  1

  9
$STYLESHEET
  1

  9
$XEDIT
290
    1
  9
$CEPSNTYPE
380
    0
  9
$PSTYLEMODE
290
    1
  9
$EXTNAMES
290
    1
  9
$PSVPSCALE
 40
0.4868430661376305
  9
$OLESTARTUP
290
    0
  9
$SORTENTS
280
  127
  9
$INDEXCTL
280
    0
  9
$HIDETEXT
280
    1
  9
$XCLIPFRAME
290
    0
  9
$HALOGAP
280
    0
  9
$OBSCOLOR
 70
  257
  9
$OBSLTYPE
280
    0
  9
$INTERSECTIONDISPLAY
280
    0
  9
$INTERSECTIONCOLOR
 70
  257
  9
$DIMASSOC
280
    1
  9
$PROJECTNAME
  1

  9
$CAMERADISPLAY
290
    0
  9
$LENSLENGTH
 40
50
  9
$CAMERAHEIGHT
 40
0
  9
$STEPSPERSEC
 40
2
  9
$STEPSIZE
 40
50
  9
$3DDWFPREC
 40
2
  9
$PSOLWIDTH
 40
5
  9
$PSOLHEIGHT
 40
80
  9
$LOFTANG1
 40
1.570796326794897
  9
$LOFTANG2
 40
1.570796326794897
  9
$LOFTMAG1
 40
0
  9
$LOFTMAG2
 40
0
  9
$LOFTPARAM
 70
    7
  9
$LOFTNORMALS
280
    1
  9
$LATITUDE
 40
1
  9
$LONGITUDE
 40
1
  9
$NORTHDIRECTION
 40
0
  9
$TIMEZONE
 70
-8000
  9
$LIGHTGLYPHDISPLAY
280
    1
  9
$TILEMODELIGHTSYNCH
280
    1
  9
$SOLIDHIST
280
    1
  9
$SHOWHIST
280
    1
  9
$DWFFRAME
280
    2
  9
$DGNFRAME
280
    0
  9
$REALWORLDSCALE
290
    1
  9
$INTERFERECOLOR
 62
    1
  9
$CSHADOW
280
    0
  9
$SHADOWPLANELOCATION
 40
0
  0
ENDSEC
  0
SECTION
  2
CLASSES
  0
ENDSEC
  0
SECTION
  2
TABLES
  0
TABLE
  2
VPORT
  5
8
330
0
100
AcDbSymbolTable
 70
    1
  0
VPORT
  5
31
330
2
100
AcDbSymbolTableRecord
100
AcDbViewportTableRecord
  2
*ACTIVE
 70
    0
 10
0
 20
0
 11
1
 21
1
 12
288.8764670320652
 22
225.7504960885338
 13
0
 23
0
 14
10
 24
10
 15
10
 25
10
 16
0
 26
0
 36
1
 17
0
 27
0
 37
0
 40
490.57897418973
 41
1.958333333333333
 42
50
 43
0
 44
0
 50
0
 51
0
 71
    0
 72
  100
 73
    1
 74
    3
 75
    0
 76
    1
 77
    0
 78
    0
281
    0
 65
    1
110
0
120
0
130
0
111
1
121
0
131
0
112
0
122
1
132
0
 79
    0
146
0
348
10020
 60
    7
 61
    5
292
1
282
    1
141
0
142
0
 63
  250
421
3358443
  0
ENDTAB
  0
TABLE
  2
LTYPE
  5
5
330
0
100
AcDbSymbolTable
 70
    4
  0
LTYPE
  5
14
330
5
100
AcDbSymbolTableRecord
100
AcDbLinetypeTableRecord
  2
ByBlock
 70
    0
  3

 72
   65
 73
    0
 40
0
  0
LTYPE
  5
15
330
5
100
AcDbSymbolTableRecord
100
AcDbLinetypeTableRecord
  2
ByLayer
 70
    0
  3

 72
   65
 73
    0
 40
0
  0
LTYPE
  5
16
330
5
100
AcDbSymbolTableRecord
100
AcDbLinetypeTableRecord
  2
Continuous
 70
    0
  3
Solid line
 72
   65
 73
    0
 40
0
  0
LTYPE
  5
32
330
5
100
AcDbSymbolTableRecord
100
AcDbLinetypeTableRecord
  2
DOT
 70
    0
  3
Dot . . . . . . . . . . . . . . . . . . . . . .
 72
   65
 73
    2
 40
6.35
 49
0
 74
    0
 49
-6.35
 74
    0
  0
LTYPE
  5
33
330
5
100
AcDbSymbolTableRecord
100
AcDbLinetypeTableRecord
  2
DOTTINY
 70
    0
  3
Dot (.15x) .....................................
 72
   65
 73
    2
 40
0.9525
 49
0
 74
    0
 49
-0.9525
 74
    0
  0
LTYPE
  5
34
330
5
100
AcDbSymbolTableRecord
100
AcDbLinetypeTableRecord
  2
DOT2
 70
    0
  3
Dot (.5x) .....................................
 72
   65
 73
    2
 40
3.175
 49
0
 74
    0
 49
-3.175
 74
    0
  0
LTYPE
  5
35
330
5
100
AcDbSymbolTableRecord
100
AcDbLinetypeTableRecord
  2
DOTX2
 70
    0
  3
Dot (2x) .  .  .  .  .  .  .  .  .  .  .  .  .
 72
   65
 73
    2
 40
12.7
 49
0
 74
    0
 49
-12.7
 74
    0
  0
LTYPE
  5
36
330
5
100
AcDbSymbolTableRecord
100
AcDbLinetypeTableRecord
  2
DASHED
 70
    0
  3
Dashed _ _ _ _ _ _ _ _ _ _ _ _ _ _ _ _ _
 72
   65
 73
    2
 40
19.05
 49
12.7
 74
    0
 49
-6.35
 74
    0
  0
LTYPE
  5
37
330
5
100
AcDbSymbolTableRecord
100
AcDbLinetypeTableRecord
  2
DASHEDTINY
 70
    0
  3
Dashed (.15x) _ _ _ _ _ _ _ _ _ _ _ _ _ _ _ _ _
 72
   65
 73
    2
 40
2.8575
 49
1.905
 74
    0
 49
-0.9525
 74
    0
  0
LTYPE
  5
38
330
5
100
AcDbSymbolTableRecord
100
AcDbLinetypeTableRecord
  2
DASHED2
 70
    0
  3
Dashed (.5x) _ _ _ _ _ _ _ _ _ _ _ _ _ _ _ _ _
 72
   65
 73
    2
 40
9.524999999999999
 49
6.35
 74
    0
 49
-3.175
 74
    0
  0
LTYPE
  5
39
330
5
100
AcDbSymbolTableRecord
100
AcDbLinetypeTableRecord
  2
DASHEDX2
 70
    0
  3
Dashed (2x) ____  ____  ____  ____  ____  ___
 72
   65
 73
    2
 40
38.09999999999999
 49
25.4
 74
    0
 49
-12.7
 74
    0
  0
LTYPE
  5
3A
330
5
100
AcDbSymbolTableRecord
100
AcDbLinetypeTableRecord
  2
DASHDOT
 70
    0
  3
Dash dot __ . __ . __ . __ . __ . __ . __ . __
 72
   65
 73
    4
 40
25.4
 49
12.7
 74
    0
 49
-6.35
 74
    0
 49
0
 74
    0
 49
-6.35
 74
    0
  0
LTYPE
  5
3B
330
5
100
AcDbSymbolTableRecord
100
AcDbLinetypeTableRecord
  2
DASHDOTTINY
 70
    0
  3
Dash dot (.15x) _._._._._._._._._._._._._._._.
 72
   65
 73
    4
 40
3.81
 49
1.905
 74
    0
 49
-0.9525
 74
    0
 49
0
 74
    0
 49
-0.9525
 74
    0
  0
LTYPE
  5
3C
330
5
100
AcDbSymbolTableRecord
100
AcDbLinetypeTableRecord
  2
DASHDOT2
 70
    0
  3
Dash dot (.5x) _._._._._._._._._._._._._._._.
 72
   65
 73
    4
 40
12.7
 49
6.35
 74
    0
 49
-3.175
 74
    0
 49
0
 74
    0
 49
-3.175
 74
    0
  0
LTYPE
  5
3D
330
5
100
AcDbSymbolTableRecord
100
AcDbLinetypeTableRecord
  2
DASHDOTX2
 70
    0
  3
Dash dot (2x) ____  .  ____  .  ____  .  ___
 72
   65
 73
    4
 40
50.8
 49
25.4
 74
    0
 49
-12.7
 74
    0
 49
0
 74
    0
 49
-12.7
 74
    0
  0
LTYPE
  5
3E
330
5
100
AcDbSymbolTableRecord
100
AcDbLinetypeTableRecord
  2
DIVIDE
 70
    0
  3
Divide ____ . . ____ . . ____ . . ____ . . ____
 72
   65
 73
    6
 40
31.75
 49
12.7
 74
    0
 49
-6.35
 74
    0
 49
0
 74
    0
 49
-6.35
 74
    0
 49
0
 74
    0
 49
-6.35
 74
    0
  0
LTYPE
  5
3F
330
5
100
AcDbSymbolTableRecord
100
AcDbLinetypeTableRecord
  2
DIVIDETINY
 70
    0
  3
Divide (.15x) __..__..__..__..__..__..__..__.._
 72
   65
 73
    6
 40
4.7625
 49
1.905
 74
    0
 49
-0.9525
 74
    0
 49
0
 74
    0
 49
-0.9525
 74
    0
 49
0
 74
    0
 49
-0.9525
 74
    0
  0
LTYPE
  5
40
330
5
100
AcDbSymbolTableRecord
100
AcDbLinetypeTableRecord
  2
DIVIDE2
 70
    0
  3
Divide (.5x) __..__..__..__..__..__..__..__.._
 72
   65
 73
    6
 40
15.875
 49
6.35
 74
    0
 49
-3.175
 74
    0
 49
0
 74
    0
 49
-3.175
 74
    0
 49
0
 74
    0
 49
-3.175
 74
    0
  0
LTYPE
  5
41
330
5
100
AcDbSymbolTableRecord
100
AcDbLinetypeTableRecord
  2
DIVIDEX2
 70
    0
  3
Divide (2x) ________  .  .  ________  .  .  _
 72
   65
 73
    6
 40
63.5
 49
25.4
 74
    0
 49
-12.7
 74
    0
 49
0
 74
    0
 49
-12.7
 74
    0
 49
0
 74
    0
 49
-12.7
 74
    0
  0
LTYPE
  5
42
330
5
100
AcDbSymbolTableRecord
100
AcDbLinetypeTableRecord
  2
BORDER
 70
    0
  3
Border __ __ . __ __ . __ __ . __ __ . __ __ .
 72
   65
 73
    6
 40
44.45
 49
12.7
 74
    0
 49
-6.35
 74
    0
 49
12.7
 74
    0
 49
-6.35
 74
    0
 49
0
 74
    0
 49
-6.35
 74
    0
  0
LTYPE
  5
43
330
5
100
AcDbSymbolTableRecord
100
AcDbLinetypeTableRecord
  2
BORDERTINY
 70
    0
  3
Border (.15x) __.__.__.__.__.__.__.__.__.__.__.
 72
   65
 73
    6
 40
6.6675
 49
1.905
 74
    0
 49
-0.9525
 74
    0
 49
1.905
 74
    0
 49
-0.9525
 74
    0
 49
0
 74
    0
 49
-0.9525
 74
    0
  0
LTYPE
  5
44
330
5
100
AcDbSymbolTableRecord
100
AcDbLinetypeTableRecord
  2
BORDER2
 70
    0
  3
Border (.5x) __.__.__.__.__.__.__.__.__.__.__.
 72
   65
 73
    6
 40
22.225
 49
6.35
 74
    0
 49
-3.175
 74
    0
 49
6.35
 74
    0
 49
-3.175
 74
    0
 49
0
 74
    0
 49
-3.175
 74
    0
  0
LTYPE
  5
45
330
5
100
AcDbSymbolTableRecord
100
AcDbLinetypeTableRecord
  2
BORDERX2
 70
    0
  3
Border (2x) ____  ____  .  ____  ____  .  ___
 72
   65
 73
    6
 40
88.89999999999999
 49
25.4
 74
    0
 49
-12.7
 74
    0
 49
25.4
 74
    0
 49
-12.7
 74
    0
 49
0
 74
    0
 49
-12.7
 74
    0
  0
LTYPE
  5
46
330
5
100
AcDbSymbolTableRecord
100
AcDbLinetypeTableRecord
  2
CENTER
 70
    0
  3
Center ____ _ ____ _ ____ _ ____ _ ____ _ ____
 72
   65
 73
    4
 40
50.8
 49
31.75
 74
    0
 49
-6.35
 74
    0
 49
6.35
 74
    0
 49
-6.35
 74
    0
  0
LTYPE
  5
47
330
5
100
AcDbSymbolTableRecord
100
AcDbLinetypeTableRecord
  2
CENTERTINY
 70
    0
  3
Center (.15x) ___ _ ___ _ ___ _ ___ _ ___ _ ___
 72
   65
 73
    4
 40
7.619999999999999
 49
4.7625
 74
    0
 49
-0.9525
 74
    0
 49
0.9525
 74
    0
 49
-0.9525
 74
    0
  0
LTYPE
  5
48
330
5
100
AcDbSymbolTableRecord
100
AcDbLinetypeTableRecord
  2
CENTER2
 70
    0
  3
Center (.5x) ___ _ ___ _ ___ _ ___ _ ___ _ ___
 72
   65
 73
    4
 40
28.575
 49
19.05
 74
    0
 49
-3.175
 74
    0
 49
3.175
 74
    0
 49
-3.175
 74
    0
  0
LTYPE
  5
49
330
5
100
AcDbSymbolTableRecord
100
AcDbLinetypeTableRecord
  2
CENTERX2
 70
    0
  3
Center (2x) ________  __  ________  __  _____
 72
   65
 73
    4
 40
101.6
 49
63.5
 74
    0
 49
-12.7
 74
    0
 49
12.7
 74
    0
 49
-12.7
 74
    0
  0
ENDTAB
  0
TABLE
  2
LAYER
  5
2
330
0
100
AcDbSymbolTable
 70
    1
  0
LAYER
  5
10
330
2
100
AcDbSymbolTableRecord
100
AcDbLayerTableRecord
  2
0
 70
    0
 62
    7
  6
CONTINUOUS
370
    0
390
F
  0
LAYER
  5
4A
330
2
100
AcDbSymbolTableRecord
100
AcDbLayerTableRecord
  2
LaserCut
 70
    0
 62
    7
  6
CONTINUOUS
370
   -3
390
F
  0
ENDTAB
  0
TABLE
  2
STYLE
  5
3
330
0
100
AcDbSymbolTable
 70
    3
  0
STYLE
  5
4B
330
2
100
AcDbSymbolTableRecord
100
AcDbTextStyleTableRecord
  2
Standard
 70
    0
 40
0
 41
1
 50
0
 71
    0
 42
1
  3
txt
  4

  0
ENDTAB
  0
TABLE
  2
VIEW
  5
6
330
0
100
AcDbSymbolTable
 70
    0
  0
ENDTAB
  0
TABLE
  2
UCS
  5
7
330
0
100
AcDbSymbolTable
 70
    0
  0
ENDTAB
  0
TABLE
  2
APPID
  5
9
330
0
100
AcDbSymbolTable
 70
    1
  0
APPID
  5
12
330
9
100
AcDbSymbolTableRecord
100
AcDbRegAppTableRecord
  2
ACAD
 70
    0
  0
APPID
  5
4C
330
9
100
AcDbSymbolTableRecord
100
AcDbRegAppTableRecord
  2
LibreCad
 70
    0
  0
ENDTAB
  0
TABLE
  2
DIMSTYLE
  5
A
330
0
100
AcDbSymbolTable
 70
    1
100
AcDbDimStyleTable
 71
    1
  0
DIMSTYLE
105
4D
330
A
100
AcDbSymbolTableRecord
100
AcDbDimStyleTableRecord
  2
Standard
 70
    0
 40
1
 41
2.5
 42
0.625
 43
0.38
 44
1.25
 45
0
 46
0
 47
0
 48
0
 49
1
140
2.5
141
0.09
142
0
143
25.4
144
1
145
0
146
1
147
0.625
148
0
 71
    0
 72
    0
 73
    0
 74
    1
 75
    0
 76
    0
 77
    0
 78
    8
 79
    0
170
    0
171
    2
172
    0
173
    0
174
    0
175
    0
176
    0
177
    0
178
    0
179
    0
271
    2
272
    4
273
    2
274
    2
275
    0
276
    0
277
    2
278
   44
279
    0
280
    0
281
    0
282
    0
283
    1
284
    0
285
    0
286
    0
288
    0
289
    3
340
STANDARD
341

371
   -2
372
   -2
  0
ENDTAB
  0
TABLE
  2
BLOCK_RECORD
  5
1
330
0
100
AcDbSymbolTable
 70
    2
  0
BLOCK_RECORD
  5
1F
330
1
100
AcDbSymbolTableRecord
100
AcDbBlockTableRecord
  2
*Model_Space
 70
    0
280
    1
281
    0
  0
BLOCK_RECORD
  5
1E
330
1
100
AcDbSymbolTableRecord
100
AcDbBlockTableRecord
  2
*Paper_Space
 70
    0
280
    1
281
    0
  0
ENDTAB
  0
ENDSEC
  0
SECTION
  2
BLOCKS
  0
BLOCK
  5
20
330
1F
100
AcDbEntity
  8
0
100
AcDbBlockBegin
  2
*Model_Space
 70
    0
 10
0
 20
0
 30
0
  3
*Model_Space
  1

  0
ENDBLK
  5
21
330
1F
100
AcDbEntity
  8
0
100
AcDbBlockEnd
  0
BLOCK
  5
1C
330
1B
100
AcDbEntity
  8
0
100
AcDbBlockBegin
  2
*Paper_Space
 70
    0
 10
0
 20
0
 30
0
  3
*Paper_Space
  1

  0
ENDBLK
  5
1D
330
1F
100
AcDbEntity
  8
0
100
AcDbBlockEnd
  0
ENDSEC
  0
SECTION
  2
ENTITIES
  0
LINE
  5
4E
100
AcDbEntity
  8
LaserCut
  6
ByLayer
 62
    7
370
   -1
100
AcDbLine
 10
13
 20
10
 11
288
 21
10
  0
ARC
  5
4F
100
AcDbEntity
  8
LaserCut
  6
ByLayer
 62
    7
370
   -1
100
AcDbCircle
 10
288
 20
13
 40
3
100
AcDbArc
 50
270
 51
0
  0
ARC
  5
50
100
AcDbEntity
  8
LaserCut
  6
ByLayer
 62
    7
370
   -1
100
AcDbCircle
 10
288
 20
98
 40
3
100
AcDbArc
 50
0
 51
90
  0
LINE
  5
51
100
AcDbEntity
  8
LaserCut
  6
ByLayer
 62
    7
370
   -1
100
AcDbLine
 10
288
 20
101
 11
13
 21
101
  0
ARC
  5
52
100
AcDbEntity
  8
LaserCut
  6
ByLayer
 62
    7
370
   -1
100
AcDbCircle
 10
13
 20
98
 40
3
100
AcDbArc
 50
90
 51
180
  0
ARC
  5
53
100
AcDbEntity
  8
LaserCut
  6
ByLayer
 62
    7
370
   -1
100
AcDbCircle
 10
13
 20
13
 40
3
100
AcDbArc
 50
180
 51
270
  0
CIRCLE
  5
54
100
AcDbEntity
  8
LaserCut
  6
ByLayer
 62
    7
370
   -1
100
AcDbCircle
 10
15
 20
15
 40
1
  0
CIRCLE
  5
55
100
AcDbEntity
  8
LaserCut
  6
ByLayer
 62
    7
370
   -1
100
AcDbCircle
 10
286
 20
15
 40
1
  0
CIRCLE
  5
56
100
AcDbEntity
  8
LaserCut
  6
ByLayer
 62
    7
370
   -1
100
AcDbCircle
 10
15
 20
96
 40
1
  0
CIRCLE
  5
57
100
AcDbEntity
  8
LaserCut
  6
ByLayer
 62
    7
370
   -1
100
AcDbCircle
 10
286
 20
96
 40
1
  0
CIRCLE
  5
58
100
AcDbEntity
  8
LaserCut
  6
ByLayer
 62
    7
370
   -1
100
AcDbCircle
 10
112.5
 20
15
 40
1
  0
CIRCLE
  5
59
100
AcDbEntity
  8
LaserCut
  6
ByLayer
 62
    7
370
   -1
100
AcDbCircle
 10
112.5
 20
96
 40
1
  0
CIRCLE
  5
5A
100
AcDbEntity
  8
LaserCut
  6
ByLayer
 62
    7
370
   -1
100
AcDbCircle
 10
188.5
 20
15
 40
1
  0
CIRCLE
  5
5B
100
AcDbEntity
  8
LaserCut
  6
ByLayer
 62
    7
370
   -1
100
AcDbCircle
 10
188.5
 20
96
 40
1
  0
ARC
  5
5C
100
AcDbEntity
  8
LaserCut
  6
ByLayer
 62
    7
370
   -1
100
AcDbCircle
 10
20.2
 20
128.8
 40
0.2
100
AcDbArc
 50
90
 51
180
  0
LINE
  5
5D
100
AcDbEntity
  8
LaserCut
  6
ByLayer
 62
    7
370
   -1
100
AcDbLine
 10
33.8
 20
129
 11
20.2
 21
129
  0
ARC
  5
5E
100
AcDbEntity
  8
LaserCut
  6
ByLayer
 62
    7
370
   -1
100
AcDbCircle
 10
33.8
 20
128.8
 40
0.2
100
AcDbArc
 50
0
 51
90
  0
LINE
  5
5F
100
AcDbEntity
  8
LaserCut
  6
ByLayer
 62
    7
370
   -1
100
AcDbLine
 10
34
 20
115.2
 11
34
 21
128.8
  0
ARC
  5
60
100
AcDbEntity
  8
LaserCut
  6
ByLayer
 62
    7
370
   -1
100
AcDbCircle
 10
33.8
 20
115.2
 40
0.2
100
AcDbArc
 50
270
 51
0
  0
ARC
  5
61
100
AcDbEntity
  8
LaserCut
  6
ByLayer
 62
    7
370
   -1
100
AcDbCircle
 10
20.2
 20
115.2
 40
0.2
100
AcDbArc
 50
180
 51
270
  0
LINE
  5
62
100
AcDbEntity
  8
LaserCut
  6
ByLayer
 62
    7
370
   -1
100
AcDbLine
 10
13
 20
105
 11
288
 21
105
  0
ARC
  5
63
100
AcDbEntity
  8
LaserCut
  6
ByLayer
 62
    7
370
   -1
100
AcDbCircle
 10
288
 20
108
 40
3
100
AcDbArc
 50
270
 51
0
  0
LINE
  5
64
100
AcDbEntity
  8
LaserCut
  6
ByLayer
 62
    7
370
   -1
100
AcDbLine
 10
291
 20
108
 11
291
 21
193
  0
ARC
  5
65
100
AcDbEntity
  8
LaserCut
  6
ByLayer
 62
    7
370
   -1
100
AcDbCircle
 10
288
 20
193
 40
3
100
AcDbArc
 50
0
 51
90
  0
LINE
  5
66
100
AcDbEntity
  8
LaserCut
  6
ByLayer
 62
    7
370
   -1
100
AcDbLine
 10
288
 20
196
 11
13
 21
196
  0
ARC
  5
67
100
AcDbEntity
  8
LaserCut
  6
ByLayer
 62
    7
370
   -1
100
AcDbCircle
 10
13
 20
193
 40
3
100
AcDbArc
 50
90
 51
180
  0
LINE
  5
68
100
AcDbEntity
  8
LaserCut
  6
ByLayer
 62
    7
370
   -1
100
AcDbLine
 10
10
 20
193
 11
10
 21
108
  0
ARC
  5
69
100
AcDbEntity
  8
LaserCut
  6
ByLayer
 62
    7
370
   -1
100
AcDbCircle
 10
13
 20
108
 40
3
100
AcDbArc
 50
180
 51
270
  0
ARC
  5
6A
100
AcDbEntity
  8
LaserCut
  6
ByLayer
 62
    7
370
   -1
100
AcDbCircle
 10
39.2
 20
128.8
 40
0.2
100
AcDbArc
 50
90
 51
180
  0
LINE
  5
6B
100
AcDbEntity
  8
LaserCut
  6
ByLayer
 62
    7
370
   -1
100
AcDbLine
 10
52.8
 20
129
 11
39.2
 21
129
  0
ARC
  5
6C
100
AcDbEntity
  8
LaserCut
  6
ByLayer
 62
    7
370
   -1
100
AcDbCircle
 10
52.8
 20
128.8
 40
0.2
100
AcDbArc
 50
0
 51
90
  0
LINE
  5
6D
100
AcDbEntity
  8
LaserCut
  6
ByLayer
 62
    7
370
   -1
100
AcDbLine
 10
53
 20
115.2
 11
53
 21
128.8
  0
ARC
  5
6E
100
AcDbEntity
  8
LaserCut
  6
ByLayer
 62
    7
370
   -1
100
AcDbCircle
 10
52.8
 20
115.2
 40
0.2
100
AcDbArc
 50
270
 51
0
  0
LINE
  5
6F
100
AcDbEntity
  8
LaserCut
  6
ByLayer
 62
    7
370
   -1
100
AcDbLine
 10
39.2
 20
115
 11
52.8
 21
115
  0
LINE
  5
70
100
AcDbEntity
  8
LaserCut
  6
ByLayer
 62
    7
370
   -1
100
AcDbLine
 10
39
 20
128.8
 11
39
 21
115.2
  0
ARC
  5
71
100
AcDbEntity
  8
LaserCut
  6
ByLayer
 62
    7
370
   -1
100
AcDbCircle
 10
39.2
 20
115.2
 40
0.2
100
AcDbArc
 50
180
 51
270
  0
ARC
  5
72
100
AcDbEntity
  8
LaserCut
  6
ByLayer
 62
    7
370
   -1
100
AcDbCircle
 10
58.2
 20
128.8
 40
0.2
100
AcDbArc
 50
90
 51
180
  0
LINE
  5
73
100
AcDbEntity
  8
LaserCut
  6
ByLayer
 62
    7
370
   -1
100
AcDbLine
 10
71.8
 20
129
 11
58.2
 21
129
  0
ARC
  5
74
100
AcDbEntity
  8
LaserCut
  6
ByLayer
 62
    7
370
   -1
100
AcDbCircle
 10
71.8
 20
128.8
 40
0.2
100
AcDbArc
 50
0
 51
90
  0
LINE
  5
75
100
AcDbEntity
  8
LaserCut
  6
ByLayer
 62
    7
370
   -1
100
AcDbLine
 10
72
 20
115.2
 11
72
 21
128.8
  0
ARC
  5
76
100
AcDbEntity
  8
LaserCut
  6
ByLayer
 62
    7
370
   -1
100
AcDbCircle
 10
71.8
 20
115.2
 40
0.2
100
AcDbArc
 50
270
 51
0
  0
LINE
  5
77
100
AcDbEntity
  8
LaserCut
  6
ByLayer
 62
    7
370
   -1
100
AcDbLine
 10
58.2
 20
115
 11
71.8
 21
115
  0
LINE
  5
78
100
AcDbEntity
  8
LaserCut
  6
ByLayer
 62
    7
370
   -1
100
AcDbLine
 10
58
 20
128.8
 11
58
 21
115.2
  0
ARC
  5
79
100
AcDbEntity
  8
LaserCut
  6
ByLayer
 62
    7
370
   -1
100
AcDbCircle
 10
58.2
 20
115.2
 40
0.2
100
AcDbArc
 50
180
 51
270
  0
ARC
  5
7A
100
AcDbEntity
  8
LaserCut
  6
ByLayer
 62
    7
370
   -1
100
AcDbCircle
 10
77.2
 20
128.8
 40
0.2
100
AcDbArc
 50
90
 51
180
  0
LINE
  5
7B
100
AcDbEntity
  8
LaserCut
  6
ByLayer
 62
    7
370
   -1
100
AcDbLine
 10
90.8
 20
129
 11
77.2
 21
129
  0
ARC
  5
7C
100
AcDbEntity
  8
LaserCut
  6
ByLayer
 62
    7
370
   -1
100
AcDbCircle
 10
90.8
 20
128.8
 40
0.2
100
AcDbArc
 50
0
 51
90
  0
LINE
  5
7D
100
AcDbEntity
  8
LaserCut
  6
ByLayer
 62
    7
370
   -1
100
AcDbLine
 10
91
 20
115.2
 11
91
 21
128.8
  0
ARC
  5
7E
100
AcDbEntity
  8
LaserCut
  6
ByLayer
 62
    7
370
   -1
100
AcDbCircle
 10
90.8
 20
115.2
 40
0.2
100
AcDbArc
 50
270
 51
0
  0
LINE
  5
7F
100
AcDbEntity
  8
LaserCut
  6
ByLayer
 62
    7
370
   -1
100
AcDbLine
 10
77.2
 20
115
 11
90.8
 21
115
  0
LINE
  5
80
100
AcDbEntity
  8
LaserCut
  6
ByLayer
 62
    7
370
   -1
100
AcDbLine
 10
77
 20
128.8
 11
77
 21
115.2
  0
ARC
  5
81
100
AcDbEntity
  8
LaserCut
  6
ByLayer
 62
    7
370
   -1
100
AcDbCircle
 10
77.2
 20
115.2
 40
0.2
100
AcDbArc
 50
180
 51
270
  0
ARC
  5
82
100
AcDbEntity
  8
LaserCut
  6
ByLayer
 62
    7
370
   -1
100
AcDbCircle
 10
96.2
 20
128.8
 40
0.2
100
AcDbArc
 50
90
 51
180
  0
LINE
  5
83
100
AcDbEntity
  8
LaserCut
  6
ByLayer
 62
    7
370
   -1
100
AcDbLine
 10
109.8
 20
129
 11
96.2
 21
129
  0
ARC
  5
84
100
AcDbEntity
  8
LaserCut
  6
ByLayer
 62
    7
370
   -1
100
AcDbCircle
 10
109.8
 20
128.8
 40
0.2
100
AcDbArc
 50
0
 51
90
  0
LINE
  5
85
100
AcDbEntity
  8
LaserCut
  6
ByLayer
 62
    7
370
   -1
100
AcDbLine
 10
110
 20
115.2
 11
110
 21
128.8
  0
ARC
  5
86
100
AcDbEntity
  8
LaserCut
  6
ByLayer
 62
    7
370
   -1
100
AcDbCircle
 10
109.8
 20
115.2
 40
0.2
100
AcDbArc
 50
270
 51
0
  0
LINE
  5
87
100
AcDbEntity
  8
LaserCut
  6
ByLayer
 62
    7
370
   -1
100
AcDbLine
 10
96.2
 20
115
 11
109.8
 21
115
  0
LINE
  5
88
100
AcDbEntity
  8
LaserCut
  6
ByLayer
 62
    7
370
   -1
100
AcDbLine
 10
96
 20
128.8
 11
96
 21
115.2
  0
ARC
  5
89
100
AcDbEntity
  8
LaserCut
  6
ByLayer
 62
    7
370
   -1
100
AcDbCircle
 10
96.2
 20
115.2
 40
0.2
100
AcDbArc
 50
180
 51
270
  0
ARC
  5
8A
100
AcDbEntity
  8
LaserCut
  6
ByLayer
 62
    7
370
   -1
100
AcDbCircle
 10
115.2
 20
128.8
 40
0.2
100
AcDbArc
 50
90
 51
180
  0
LINE
  5
8B
100
AcDbEntity
  8
LaserCut
  6
ByLayer
 62
    7
370
   -1
100
AcDbLine
 10
128.8
 20
129
 11
115.2
 21
129
  0
ARC
  5
8C
100
AcDbEntity
  8
LaserCut
  6
ByLayer
 62
    7
370
   -1
100
AcDbCircle
 10
128.8
 20
128.8
 40
0.2
100
AcDbArc
 50
0
 51
90
  0
LINE
  5
8D
100
AcDbEntity
  8
LaserCut
  6
ByLayer
 62
    7
370
   -1
100
AcDbLine
 10
129
 20
115.2
 11
129
 21
128.8
  0
ARC
  5
8E
100
AcDbEntity
  8
LaserCut
  6
ByLayer
 62
    7
370
   -1
100
AcDbCircle
 10
128.8
 20
115.2
 40
0.2
100
AcDbArc
 50
270
 51
0
  0
LINE
  5
8F
100
AcDbEntity
  8
LaserCut
  6
ByLayer
 62
    7
370
   -1
100
AcDbLine
 10
115.2
 20
115
 11
128.8
 21
115
  0
LINE
  5
90
100
AcDbEntity
  8
LaserCut
  6
ByLayer
 62
    7
370
   -1
100
AcDbLine
 10
115
 20
128.8
 11
115
 21
115.2
  0
ARC
  5
91
100
AcDbEntity
  8
LaserCut
  6
ByLayer
 62
    7
370
   -1
100
AcDbCircle
 10
115.2
 20
115.2
 40
0.2
100
AcDbArc
 50
180
 51
270
  0
ARC
  5
92
100
AcDbEntity
  8
LaserCut
  6
ByLayer
 62
    7
370
   -1
100
AcDbCircle
 10
134.2
 20
128.8
 40
0.2
100
AcDbArc
 50
90
 51
180
  0
LINE
  5
93
100
AcDbEntity
  8
LaserCut
  6
ByLayer
 62
    7
370
   -1
100
AcDbLine
 10
147.8
 20
129
 11
134.2
 21
129
  0
ARC
  5
94
100
AcDbEntity
  8
LaserCut
  6
ByLayer
 62
    7
370
   -1
100
AcDbCircle
 10
147.8
 20
128.8
 40
0.2
100
AcDbArc
 50
0
 51
90
  0
LINE
  5
95
100
AcDbEntity
  8
LaserCut
  6
ByLayer
 62
    7
370
   -1
100
AcDbLine
 10
148
 20
115.2
 11
148
 21
128.8
  0
ARC
  5
96
100
AcDbEntity
  8
LaserCut
  6
ByLayer
 62
    7
370
   -1
100
AcDbCircle
 10
147.8
 20
115.2
 40
0.2
100
AcDbArc
 50
270
 51
0
  0
LINE
  5
97
100
AcDbEntity
  8
LaserCut
  6
ByLayer
 62
    7
370
   -1
100
AcDbLine
 10
134.2
 20
115
 11
147.8
 21
115
  0
LINE
  5
98
100
AcDbEntity
  8
LaserCut
  6
ByLayer
 62
    7
370
   -1
100
AcDbLine
 10
134
 20
128.8
 11
134
 21
115.2
  0
ARC
  5
99
100
AcDbEntity
  8
LaserCut
  6
ByLayer
 62
    7
370
   -1
100
AcDbCircle
 10
134.2
 20
115.2
 40
0.2
100
AcDbArc
 50
180
 51
270
  0
ARC
  5
9A
100
AcDbEntity
  8
LaserCut
  6
ByLayer
 62
    7
370
   -1
100
AcDbCircle
 10
153.2
 20
128.8
 40
0.2
100
AcDbArc
 50
90
 51
180
  0
LINE
  5
9B
100
AcDbEntity
  8
LaserCut
  6
ByLayer
 62
    7
370
   -1
100
AcDbLine
 10
166.8
 20
129
 11
153.2
 21
129
  0
ARC
  5
9C
100
AcDbEntity
  8
LaserCut
  6
ByLayer
 62
    7
370
   -1
100
AcDbCircle
 10
166.8
 20
128.8
 40
0.2
100
AcDbArc
 50
0
 51
90
  0
LINE
  5
9D
100
AcDbEntity
  8
LaserCut
  6
ByLayer
 62
    7
370
   -1
100
AcDbLine
 10
167
 20
115.2
 11
167
 21
128.8
  0
ARC
  5
9E
100
AcDbEntity
  8
LaserCut
  6
ByLayer
 62
    7
370
   -1
100
AcDbCircle
 10
166.8
 20
115.2
 40
0.2
100
AcDbArc
 50
270
 51
0
  0
LINE
  5
9F
100
AcDbEntity
  8
LaserCut
  6
ByLayer
 62
    7
370
   -1
100
AcDbLine
 10
153.2
 20
115
 11
166.8
 21
115
  0
LINE
  5
A0
100
AcDbEntity
  8
LaserCut
  6
ByLayer
 62
    7
370
   -1
100
AcDbLine
 10
153
 20
128.8
 11
153
 21
115.2
  0
ARC
  5
A1
100
AcDbEntity
  8
LaserCut
  6
ByLayer
 62
    7
370
   -1
100
AcDbCircle
 10
153.2
 20
115.2
 40
0.2
100
AcDbArc
 50
180
 51
270
  0
ARC
  5
A2
100
AcDbEntity
  8
LaserCut
  6
ByLayer
 62
    7
370
   -1
100
AcDbCircle
 10
172.2
 20
128.8
 40
0.2
100
AcDbArc
 50
90
 51
180
  0
LINE
  5
A3
100
AcDbEntity
  8
LaserCut
  6
ByLayer
 62
    7
370
   -1
100
AcDbLine
 10
185.8
 20
129
 11
172.2
 21
129
  0
ARC
  5
A4
100
AcDbEntity
  8
LaserCut
  6
ByLayer
 62
    7
370
   -1
100
AcDbCircle
 10
185.8
 20
128.8
 40
0.2
100
AcDbArc
 50
0
 51
90
  0
LINE
  5
A5
100
AcDbEntity
  8
LaserCut
  6
ByLayer
 62
    7
370
   -1
100
AcDbLine
 10
186
 20
115.2
 11
186
 21
128.8
  0
ARC
  5
A6
100
AcDbEntity
  8
LaserCut
  6
ByLayer
 62
    7
370
   -1
100
AcDbCircle
 10
185.8
 20
115.2
 40
0.2
100
AcDbArc
 50
270
 51
0
  0
LINE
  5
A7
100
AcDbEntity
  8
LaserCut
  6
ByLayer
 62
    7
370
   -1
100
AcDbLine
 10
172.2
 20
115
 11
185.8
 21
115
  0
LINE
  5
A8
100
AcDbEntity
  8
LaserCut
  6
ByLayer
 62
    7
370
   -1
100
AcDbLine
 10
172
 20
128.8
 11
172
 21
115.2
  0
ARC
  5
A9
100
AcDbEntity
  8
LaserCut
  6
ByLayer
 62
    7
370
   -1
100
AcDbCircle
 10
172.2
 20
115.2
 40
0.2
100
AcDbArc
 50
180
 51
270
  0
ARC
  5
AA
100
AcDbEntity
  8
LaserCut
  6
ByLayer
 62
    7
370
   -1
100
AcDbCircle
 10
191.2
 20
128.8
 40
0.2
100
AcDbArc
 50
90
 51
180
  0
LINE
  5
AB
100
AcDbEntity
  8
LaserCut
  6
ByLayer
 62
    7
370
   -1
100
AcDbLine
 10
204.8
 20
129
 11
191.2
 21
129
  0
ARC
  5
AC
100
AcDbEntity
  8
LaserCut
  6
ByLayer
 62
    7
370
   -1
100
AcDbCircle
 10
204.8
 20
128.8
 40
0.2
100
AcDbArc
 50
0
 51
90
  0
LINE
  5
AD
100
AcDbEntity
  8
LaserCut
  6
ByLayer
 62
    7
370
   -1
100
AcDbLine
 10
205
 20
115.2
 11
205
 21
128.8
  0
ARC
  5
AE
100
AcDbEntity
  8
LaserCut
  6
ByLayer
 62
    7
370
   -1
100
AcDbCircle
 10
204.8
 20
115.2
 40
0.2
100
AcDbArc
 50
270
 51
0
  0
LINE
  5
AF
100
AcDbEntity
  8
LaserCut
  6
ByLayer
 62
    7
370
   -1
100
AcDbLine
 10
191.2
 20
115
 11
204.8
 21
115
  0
LINE
  5
B0
100
AcDbEntity
  8
LaserCut
  6
ByLayer
 62
    7
370
   -1
100
AcDbLine
 10
191
 20
128.8
 11
191
 21
115.2
  0
ARC
  5
B1
100
AcDbEntity
  8
LaserCut
  6
ByLayer
 62
    7
370
   -1
100
AcDbCircle
 10
191.2
 20
115.2
 40
0.2
100
AcDbArc
 50
180
 51
270
  0
ARC
  5
B2
100
AcDbEntity
  8
LaserCut
  6
ByLayer
 62
    7
370
   -1
100
AcDbCircle
 10
210.2
 20
128.8
 40
0.2
100
AcDbArc
 50
90
 51
180
  0
LINE
  5
B3
100
AcDbEntity
  8
LaserCut
  6
ByLayer
 62
    7
370
   -1
100
AcDbLine
 10
223.8
 20
129
 11
210.2
 21
129
  0
ARC
  5
B4
100
AcDbEntity
  8
LaserCut
  6
ByLayer
 62
    7
370
   -1
100
AcDbCircle
 10
223.8
 20
128.8
 40
0.2
100
AcDbArc
 50
0
 51
90
  0
LINE
  5
B5
100
AcDbEntity
  8
LaserCut
  6
ByLayer
 62
    7
370
   -1
100
AcDbLine
 10
224
 20
115.2
 11
224
 21
128.8
  0
ARC
  5
B6
100
AcDbEntity
  8
LaserCut
  6
ByLayer
 62
    7
370
   -1
100
AcDbCircle
 10
223.8
 20
115.2
 40
0.2
100
AcDbArc
 50
270
 51
0
  0
LINE
  5
B7
100
AcDbEntity
  8
LaserCut
  6
ByLayer
 62
    7
370
   -1
100
AcDbLine
 10
210.2
 20
115
 11
223.8
 21
115
  0
LINE
  5
B8
100
AcDbEntity
  8
LaserCut
  6
ByLayer
 62
    7
370
   -1
100
AcDbLine
 10
210
 20
128.8
 11
210
 21
115.2
  0
ARC
  5
B9
100
AcDbEntity
  8
LaserCut
  6
ByLayer
 62
    7
370
   -1
100
AcDbCircle
 10
210.2
 20
115.2
 40
0.2
100
AcDbArc
 50
180
 51
270
  0
ARC
  5
BA
100
AcDbEntity
  8
LaserCut
  6
ByLayer
 62
    7
370
   -1
100
AcDbCircle
 10
229.2
 20
128.8
 40
0.2
100
AcDbArc
 50
90
 51
180
  0
LINE
  5
BB
100
AcDbEntity
  8
LaserCut
  6
ByLayer
 62
    7
370
   -1
100
AcDbLine
 10
242.8
 20
129
 11
229.2
 21
129
  0
ARC
  5
BC
100
AcDbEntity
  8
LaserCut
  6
ByLayer
 62
    7
370
   -1
100
AcDbCircle
 10
242.8
 20
128.8
 40
0.2
100
AcDbArc
 50
0
 51
90
  0
LINE
  5
BD
100
AcDbEntity
  8
LaserCut
  6
ByLayer
 62
    7
370
   -1
100
AcDbLine
 10
243
 20
115.2
 11
243
 21
128.8
  0
ARC
  5
BE
100
AcDbEntity
  8
LaserCut
  6
ByLayer
 62
    7
370
   -1
100
AcDbCircle
 10
242.8
 20
115.2
 40
0.2
100
AcDbArc
 50
270
 51
0
  0
LINE
  5
BF
100
AcDbEntity
  8
LaserCut
  6
ByLayer
 62
    7
370
   -1
100
AcDbLine
 10
229.2
 20
115
 11
242.8
 21
115
  0
LINE
  5
C0
100
AcDbEntity
  8
LaserCut
  6
ByLayer
 62
    7
370
   -1
100
AcDbLine
 10
229
 20
128.8
 11
229
 21
115.2
  0
ARC
  5
C1
100
AcDbEntity
  8
LaserCut
  6
ByLayer
 62
    7
370
   -1
100
AcDbCircle
 10
229.2
 20
115.2
 40
0.2
100
AcDbArc
 50
180
 51
270
  0
ARC
  5
C2
100
AcDbEntity
  8
LaserCut
  6
ByLayer
 62
    7
370
   -1
100
AcDbCircle
 10
248.2
 20
128.8
 40
0.2
100
AcDbArc
 50
90
 51
180
  0
LINE
  5
C3
100
AcDbEntity
  8
LaserCut
  6
ByLayer
 62
    7
370
   -1
100
AcDbLine
 10
261.8
 20
129
 11
248.2
 21
129
  0
ARC
  5
C4
100
AcDbEntity
  8
LaserCut
  6
ByLayer
 62
    7
370
   -1
100
AcDbCircle
 10
261.8
 20
128.8
 40
0.2
100
AcDbArc
 50
0
 51
90
  0
LINE
  5
C5
100
AcDbEntity
  8
LaserCut
  6
ByLayer
 62
    7
370
   -1
100
AcDbLine
 10
262
 20
115.2
 11
262
 21
128.8
  0
ARC
  5
C6
100
AcDbEntity
  8
LaserCut
  6
ByLayer
 62
    7
370
   -1
100
AcDbCircle
 10
261.8
 20
115.2
 40
0.2
100
AcDbArc
 50
270
 51
0
  0
LINE
  5
C7
100
AcDbEntity
  8
LaserCut
  6
ByLayer
 62
    7
370
   -1
100
AcDbLine
 10
248.2
 20
115
 11
261.8
 21
115
  0
LINE
  5
C8
100
AcDbEntity
  8
LaserCut
  6
ByLayer
 62
    7
370
   -1
100
AcDbLine
 10
248
 20
128.8
 11
248
 21
115.2
  0
ARC
  5
C9
100
AcDbEntity
  8
LaserCut
  6
ByLayer
 62
    7
370
   -1
100
AcDbCircle
 10
248.2
 20
115.2
 40
0.2
100
AcDbArc
 50
180
 51
270
  0
ARC
  5
CA
100
AcDbEntity
  8
LaserCut
  6
ByLayer
 62
    7
370
   -1
100
AcDbCircle
 10
267.2
 20
128.8
 40
0.2
100
AcDbArc
 50
90
 51
180
  0
LINE
  5
CB
100
AcDbEntity
  8
LaserCut
  6
ByLayer
 62
    7
370
   -1
100
AcDbLine
 10
280.8
 20
129
 11
267.2
 21
129
  0
ARC
  5
CC
100
AcDbEntity
  8
LaserCut
  6
ByLayer
 62
    7
370
   -1
100
AcDbCircle
 10
280.8
 20
128.8
 40
0.2
100
AcDbArc
 50
0
 51
90
  0
LINE
  5
CD
100
AcDbEntity
  8
LaserCut
  6
ByLayer
 62
    7
370
   -1
100
AcDbLine
 10
281
 20
115.2
 11
281
 21
128.8
  0
ARC
  5
CE
100
AcDbEntity
  8
LaserCut
  6
ByLayer
 62
    7
370
   -1
100
AcDbCircle
 10
280.8
 20
115.2
 40
0.2
100
AcDbArc
 50
270
 51
0
  0
LINE
  5
CF
100
AcDbEntity
  8
LaserCut
  6
ByLayer
 62
    7
370
   -1
100
AcDbLine
 10
267.2
 20
115
 11
280.8
 21
115
  0
LINE
  5
D0
100
AcDbEntity
  8
LaserCut
  6
ByLayer
 62
    7
370
   -1
100
AcDbLine
 10
267
 20
128.8
 11
267
 21
115.2
  0
ARC
  5
D1
100
AcDbEntity
  8
LaserCut
  6
ByLayer
 62
    7
370
   -1
100
AcDbCircle
 10
267.2
 20
115.2
 40
0.2
100
AcDbArc
 50
180
 51
270
  0
ARC
  5
D2
100
AcDbEntity
  8
LaserCut
  6
ByLayer
 62
    7
370
   -1
100
AcDbCircle
 10
20.2
 20
147.8
 40
0.2
100
AcDbArc
 50
90
 51
180
  0
LINE
  5
D3
100
AcDbEntity
  8
LaserCut
  6
ByLayer
 62
    7
370
   -1
100
AcDbLine
 10
33.8
 20
148
 11
20.2
 21
148
  0
ARC
  5
D4
100
AcDbEntity
  8
LaserCut
  6
ByLayer
 62
    7
370
   -1
100
AcDbCircle
 10
33.8
 20
147.8
 40
0.2
100
AcDbArc
 50
0
 51
90
  0
LINE
  5
D5
100
AcDbEntity
  8
LaserCut
  6
ByLayer
 62
    7
370
   -1
100
AcDbLine
 10
34
 20
134.2
 11
34
 21
147.8
  0
ARC
  5
D6
100
AcDbEntity
  8
LaserCut
  6
ByLayer
 62
    7
370
   -1
100
AcDbCircle
 10
33.8
 20
134.2
 40
0.2
100
AcDbArc
 50
270
 51
0
  0
LINE
  5
D7
100
AcDbEntity
  8
LaserCut
  6
ByLayer
 62
    7
370
   -1
100
AcDbLine
 10
20.2
 20
134
 11
33.8
 21
134
  0
LINE
  5
D8
100
AcDbEntity
  8
LaserCut
  6
ByLayer
 62
    7
370
   -1
100
AcDbLine
 10
20
 20
147.8
 11
20
 21
134.2
  0
ARC
  5
D9
100
AcDbEntity
  8
LaserCut
  6
ByLayer
 62
    7
370
   -1
100
AcDbCircle
 10
20.2
 20
134.2
 40
0.2
100
AcDbArc
 50
180
 51
270
  0
ARC
  5
DA
100
AcDbEntity
  8
LaserCut
  6
ByLayer
 62
    7
370
   -1
100
AcDbCircle
 10
39.2
 20
147.8
 40
0.2
100
AcDbArc
 50
90
 51
180
  0
LINE
  5
DB
100
AcDbEntity
  8
LaserCut
  6
ByLayer
 62
    7
370
   -1
100
AcDbLine
 10
52.8
 20
148
 11
39.2
 21
148
  0
ARC
  5
DC
100
AcDbEntity
  8
LaserCut
  6
ByLayer
 62
    7
370
   -1
100
AcDbCircle
 10
52.8
 20
147.8
 40
0.2
100
AcDbArc
 50
0
 51
90
  0
LINE
  5
DD
100
AcDbEntity
  8
LaserCut
  6
ByLayer
 62
    7
370
   -1
100
AcDbLine
 10
53
 20
134.2
 11
53
 21
147.8
  0
ARC
  5
DE
100
AcDbEntity
  8
LaserCut
  6
ByLayer
 62
    7
370
   -1
100
AcDbCircle
 10
52.8
 20
134.2
 40
0.2
100
AcDbArc
 50
270
 51
0
  0
LINE
  5
DF
100
AcDbEntity
  8
LaserCut
  6
ByLayer
 62
    7
370
   -1
100
AcDbLine
 10
39.2
 20
134
 11
52.8
 21
134
  0
LINE
  5
E0
100
AcDbEntity
  8
LaserCut
  6
ByLayer
 62
    7
370
   -1
100
AcDbLine
 10
39
 20
147.8
 11
39
 21
134.2
  0
ARC
  5
E1
100
AcDbEntity
  8
LaserCut
  6
ByLayer
 62
    7
370
   -1
100
AcDbCircle
 10
39.2
 20
134.2
 40
0.2
100
AcDbArc
 50
180
 51
270
  0
ARC
  5
E2
100
AcDbEntity
  8
LaserCut
  6
ByLayer
 62
    7
370
   -1
100
AcDbCircle
 10
58.2
 20
147.8
 40
0.2
100
AcDbArc
 50
90
 51
180
  0
LINE
  5
E3
100
AcDbEntity
  8
LaserCut
  6
ByLayer
 62
    7
370
   -1
100
AcDbLine
 10
71.8
 20
148
 11
58.2
 21
148
  0
ARC
  5
E4
100
AcDbEntity
  8
LaserCut
  6
ByLayer
 62
    7
370
   -1
100
AcDbCircle
 10
71.8
 20
147.8
 40
0.2
100
AcDbArc
 50
0
 51
90
  0
LINE
  5
E5
100
AcDbEntity
  8
LaserCut
  6
ByLayer
 62
    7
370
   -1
100
AcDbLine
 10
72
 20
134.2
 11
72
 21
147.8
  0
ARC
  5
E6
100
AcDbEntity
  8
LaserCut
  6
ByLayer
 62
    7
370
   -1
100
AcDbCircle
 10
71.8
 20
134.2
 40
0.2
100
AcDbArc
 50
270
 51
0
  0
LINE
  5
E7
100
AcDbEntity
  8
LaserCut
  6
ByLayer
 62
    7
370
   -1
100
AcDbLine
 10
58.2
 20
134
 11
71.8
 21
134
  0
LINE
  5
E8
100
AcDbEntity
  8
LaserCut
  6
ByLayer
 62
    7
370
   -1
100
AcDbLine
 10
58
 20
147.8
 11
58
 21
134.2
  0
ARC
  5
E9
100
AcDbEntity
  8
LaserCut
  6
ByLayer
 62
    7
370
   -1
100
AcDbCircle
 10
58.2
 20
134.2
 40
0.2
100
AcDbArc
 50
180
 51
270
  0
ARC
  5
EA
100
AcDbEntity
  8
LaserCut
  6
ByLayer
 62
    7
370
   -1
100
AcDbCircle
 10
77.2
 20
147.8
 40
0.2
100
AcDbArc
 50
90
 51
180
  0
LINE
  5
EB
100
AcDbEntity
  8
LaserCut
  6
ByLayer
 62
    7
370
   -1
100
AcDbLine
 10
90.8
 20
148
 11
77.2
 21
148
  0
ARC
  5
EC
100
AcDbEntity
  8
LaserCut
  6
ByLayer
 62
    7
370
   -1
100
AcDbCircle
 10
90.8
 20
147.8
 40
0.2
100
AcDbArc
 50
0
 51
90
  0
LINE
  5
ED
100
AcDbEntity
  8
LaserCut
  6
ByLayer
 62
    7
370
   -1
100
AcDbLine
 10
91
 20
134.2
 11
91
 21
147.8
  0
ARC
  5
EE
100
AcDbEntity
  8
LaserCut
  6
ByLayer
 62
    7
370
   -1
100
AcDbCircle
 10
90.8
 20
134.2
 40
0.2
100
AcDbArc
 50
270
 51
0
  0
LINE
  5
EF
100
AcDbEntity
  8
LaserCut
  6
ByLayer
 62
    7
370
   -1
100
AcDbLine
 10
77.2
 20
134
 11
90.8
 21
134
  0
LINE
  5
F0
100
AcDbEntity
  8
LaserCut
  6
ByLayer
 62
    7
370
   -1
100
AcDbLine
 10
77
 20
147.8
 11
77
 21
134.2
  0
ARC
  5
F1
100
AcDbEntity
  8
LaserCut
  6
ByLayer
 62
    7
370
   -1
100
AcDbCircle
 10
77.2
 20
134.2
 40
0.2
100
AcDbArc
 50
180
 51
270
  0
ARC
  5
F2
100
AcDbEntity
  8
LaserCut
  6
ByLayer
 62
    7
370
   -1
100
AcDbCircle
 10
96.2
 20
147.8
 40
0.2
100
AcDbArc
 50
90
 51
180
  0
LINE
  5
F3
100
AcDbEntity
  8
LaserCut
  6
ByLayer
 62
    7
370
   -1
100
AcDbLine
 10
109.8
 20
148
 11
96.2
 21
148
  0
ARC
  5
F4
100
AcDbEntity
  8
LaserCut
  6
ByLayer
 62
    7
370
   -1
100
AcDbCircle
 10
109.8
 20
147.8
 40
0.2
100
AcDbArc
 50
0
 51
90
  0
LINE
  5
F5
100
AcDbEntity
  8
LaserCut
  6
ByLayer
 62
    7
370
   -1
100
AcDbLine
 10
110
 20
134.2
 11
110
 21
147.8
  0
ARC
  5
F6
100
AcDbEntity
  8
LaserCut
  6
ByLayer
 62
    7
370
   -1
100
AcDbCircle
 10
109.8
 20
134.2
 40
0.2
100
AcDbArc
 50
270
 51
0
  0
LINE
  5
F7
100
AcDbEntity
  8
LaserCut
  6
ByLayer
 62
    7
370
   -1
100
AcDbLine
 10
96.2
 20
134
 11
109.8
 21
134
  0
LINE
  5
F8
100
AcDbEntity
  8
LaserCut
  6
ByLayer
 62
    7
370
   -1
100
AcDbLine
 10
96
 20
147.8
 11
96
 21
134.2
  0
ARC
  5
F9
100
AcDbEntity
  8
LaserCut
  6
ByLayer
 62
    7
370
   -1
100
AcDbCircle
 10
96.2
 20
134.2
 40
0.2
100
AcDbArc
 50
180
 51
270
  0
ARC
  5
FA
100
AcDbEntity
  8
LaserCut
  6
ByLayer
 62
    7
370
   -1
100
AcDbCircle
 10
115.2
 20
147.8
 40
0.2
100
AcDbArc
 50
90
 51
180
  0
LINE
  5
FB
100
AcDbEntity
  8
LaserCut
  6
ByLayer
 62
    7
370
   -1
100
AcDbLine
 10
128.8
 20
148
 11
115.2
 21
148
  0
ARC
  5
FC
100
AcDbEntity
  8
LaserCut
  6
ByLayer
 62
    7
370
   -1
100
AcDbCircle
 10
128.8
 20
147.8
 40
0.2
100
AcDbArc
 50
0
 51
90
  0
LINE
  5
FD
100
AcDbEntity
  8
LaserCut
  6
ByLayer
 62
    7
370
   -1
100
AcDbLine
 10
129
 20
134.2
 11
129
 21
147.8
  0
ARC
  5
FE
100
AcDbEntity
  8
LaserCut
  6
ByLayer
 62
    7
370
   -1
100
AcDbCircle
 10
128.8
 20
134.2
 40
0.2
100
AcDbArc
 50
270
 51
0
  0
LINE
  5
FF
100
AcDbEntity
  8
LaserCut
  6
ByLayer
 62
    7
370
   -1
100
AcDbLine
 10
115.2
 20
134
 11
128.8
 21
134
  0
LINE
  5
100
100
AcDbEntity
  8
LaserCut
  6
ByLayer
 62
    7
370
   -1
100
AcDbLine
 10
115
 20
147.8
 11
115
 21
134.2
  0
ARC
  5
101
100
AcDbEntity
  8
LaserCut
  6
ByLayer
 62
    7
370
   -1
100
AcDbCircle
 10
115.2
 20
134.2
 40
0.2
100
AcDbArc
 50
180
 51
270
  0
ARC
  5
102
100
AcDbEntity
  8
LaserCut
  6
ByLayer
 62
    7
370
   -1
100
AcDbCircle
 10
134.2
 20
147.8
 40
0.2
100
AcDbArc
 50
90
 51
180
  0
LINE
  5
103
100
AcDbEntity
  8
LaserCut
  6
ByLayer
 62
    7
370
   -1
100
AcDbLine
 10
147.8
 20
148
 11
134.2
 21
148
  0
ARC
  5
104
100
AcDbEntity
  8
LaserCut
  6
ByLayer
 62
    7
370
   -1
100
AcDbCircle
 10
147.8
 20
147.8
 40
0.2
100
AcDbArc
 50
0
 51
90
  0
LINE
  5
105
100
AcDbEntity
  8
LaserCut
  6
ByLayer
 62
    7
370
   -1
100
AcDbLine
 10
148
 20
134.2
 11
148
 21
147.8
  0
ARC
  5
106
100
AcDbEntity
  8
LaserCut
  6
ByLayer
 62
    7
370
   -1
100
AcDbCircle
 10
147.8
 20
134.2
 40
0.2
100
AcDbArc
 50
270
 51
0
  0
LINE
  5
107
100
AcDbEntity
  8
LaserCut
  6
ByLayer
 62
    7
370
   -1
100
AcDbLine
 10
134.2
 20
134
 11
147.8
 21
134
  0
LINE
  5
108
100
AcDbEntity
  8
LaserCut
  6
ByLayer
 62
    7
370
   -1
100
AcDbLine
 10
134
 20
147.8
 11
134
 21
134.2
  0
ARC
  5
109
100
AcDbEntity
  8
LaserCut
  6
ByLayer
 62
    7
370
   -1
100
AcDbCircle
 10
134.2
 20
134.2
 40
0.2
100
AcDbArc
 50
180
 51
270
  0
ARC
  5
10A
100
AcDbEntity
  8
LaserCut
  6
ByLayer
 62
    7
370
   -1
100
AcDbCircle
 10
153.2
 20
147.8
 40
0.2
100
AcDbArc
 50
90
 51
180
  0
LINE
  5
10B
100
AcDbEntity
  8
LaserCut
  6
ByLayer
 62
    7
370
   -1
100
AcDbLine
 10
166.8
 20
148
 11
153.2
 21
148
  0
ARC
  5
10C
100
AcDbEntity
  8
LaserCut
  6
ByLayer
 62
    7
370
   -1
100
AcDbCircle
 10
166.8
 20
147.8
 40
0.2
100
AcDbArc
 50
0
 51
90
  0
LINE
  5
10D
100
AcDbEntity
  8
LaserCut
  6
ByLayer
 62
    7
370
   -1
100
AcDbLine
 10
167
 20
134.2
 11
167
 21
147.8
  0
ARC
  5
10E
100
AcDbEntity
  8
LaserCut
  6
ByLayer
 62
    7
370
   -1
100
AcDbCircle
 10
166.8
 20
134.2
 40
0.2
100
AcDbArc
 50
270
 51
0
  0
LINE
  5
10F
100
AcDbEntity
  8
LaserCut
  6
ByLayer
 62
    7
370
   -1
100
AcDbLine
 10
153.2
 20
134
 11
166.8
 21
134
  0
LINE
  5
110
100
AcDbEntity
  8
LaserCut
  6
ByLayer
 62
    7
370
   -1
100
AcDbLine
 10
153
 20
147.8
 11
153
 21
134.2
  0
ARC
  5
111
100
AcDbEntity
  8
LaserCut
  6
ByLayer
 62
    7
370
   -1
100
AcDbCircle
 10
153.2
 20
134.2
 40
0.2
100
AcDbArc
 50
180
 51
270
  0
ARC
  5
112
100
AcDbEntity
  8
LaserCut
  6
ByLayer
 62
    7
370
   -1
100
AcDbCircle
 10
172.2
 20
147.8
 40
0.2
100
AcDbArc
 50
90
 51
180
  0
LINE
  5
113
100
AcDbEntity
  8
LaserCut
  6
ByLayer
 62
    7
370
   -1
100
AcDbLine
 10
185.8
 20
148
 11
172.2
 21
148
  0
ARC
  5
114
100
AcDbEntity
  8
LaserCut
  6
ByLayer
 62
    7
370
   -1
100
AcDbCircle
 10
185.8
 20
147.8
 40
0.2
100
AcDbArc
 50
0
 51
90
  0
LINE
  5
115
100
AcDbEntity
  8
LaserCut
  6
ByLayer
 62
    7
370
   -1
100
AcDbLine
 10
186
 20
134.2
 11
186
 21
147.8
  0
ARC
  5
116
100
AcDbEntity
  8
LaserCut
  6
ByLayer
 62
    7
370
   -1
100
AcDbCircle
 10
185.8
 20
134.2
 40
0.2
100
AcDbArc
 50
270
 51
0
  0
LINE
  5
117
100
AcDbEntity
  8
LaserCut
  6
ByLayer
 62
    7
370
   -1
100
AcDbLine
 10
172.2
 20
134
 11
185.8
 21
134
  0
LINE
  5
118
100
AcDbEntity
  8
LaserCut
  6
ByLayer
 62
    7
370
   -1
100
AcDbLine
 10
172
 20
147.8
 11
172
 21
134.2
  0
ARC
  5
119
100
AcDbEntity
  8
LaserCut
  6
ByLayer
 62
    7
370
   -1
100
AcDbCircle
 10
172.2
 20
134.2
 40
0.2
100
AcDbArc
 50
180
 51
270
  0
ARC
  5
11A
100
AcDbEntity
  8
LaserCut
  6
ByLayer
 62
    7
370
   -1
100
AcDbCircle
 10
191.2
 20
147.8
 40
0.2
100
AcDbArc
 50
90
 51
180
  0
LINE
  5
11B
100
AcDbEntity
  8
LaserCut
  6
ByLayer
 62
    7
370
   -1
100
AcDbLine
 10
204.8
 20
148
 11
191.2
 21
148
  0
ARC
  5
11C
100
AcDbEntity
  8
LaserCut
  6
ByLayer
 62
    7
370
   -1
100
AcDbCircle
 10
204.8
 20
147.8
 40
0.2
100
AcDbArc
 50
0
 51
90
  0
LINE
  5
11D
100
AcDbEntity
  8
LaserCut
  6
ByLayer
 62
    7
370
   -1
100
AcDbLine
 10
205
 20
134.2
 11
205
 21
147.8
  0
ARC
  5
11E
100
AcDbEntity
  8
LaserCut
  6
ByLayer
 62
    7
370
   -1
100
AcDbCircle
 10
204.8
 20
134.2
 40
0.2
100
AcDbArc
 50
270
 51
0
  0
LINE
  5
11F
100
AcDbEntity
  8
LaserCut
  6
ByLayer
 62
    7
370
   -1
100
AcDbLine
 10
191.2
 20
134
 11
204.8
 21
134
  0
LINE
  5
120
100
AcDbEntity
  8
LaserCut
  6
ByLayer
 62
    7
370
   -1
100
AcDbLine
 10
191
 20
147.8
 11
191
 21
134.2
  0
ARC
  5
121
100
AcDbEntity
  8
LaserCut
  6
ByLayer
 62
    7
370
   -1
100
AcDbCircle
 10
191.2
 20
134.2
 40
0.2
100
AcDbArc
 50
180
 51
270
  0
ARC
  5
122
100
AcDbEntity
  8
LaserCut
  6
ByLayer
 62
    7
370
   -1
100
AcDbCircle
 10
210.2
 20
147.8
 40
0.2
100
AcDbArc
 50
90
 51
180
  0
LINE
  5
123
100
AcDbEntity
  8
LaserCut
  6
ByLayer
 62
    7
370
   -1
100
AcDbLine
 10
223.8
 20
148
 11
210.2
 21
148
  0
ARC
  5
124
100
AcDbEntity
  8
LaserCut
  6
ByLayer
 62
    7
370
   -1
100
AcDbCircle
 10
223.8
 20
147.8
 40
0.2
100
AcDbArc
 50
0
 51
90
  0
LINE
  5
125
100
AcDbEntity
  8
LaserCut
  6
ByLayer
 62
    7
370
   -1
100
AcDbLine
 10
224
 20
134.2
 11
224
 21
147.8
  0
ARC
  5
126
100
AcDbEntity
  8
LaserCut
  6
ByLayer
 62
    7
370
   -1
100
AcDbCircle
 10
223.8
 20
134.2
 40
0.2
100
AcDbArc
 50
270
 51
0
  0
LINE
  5
127
100
AcDbEntity
  8
LaserCut
  6
ByLayer
 62
    7
370
   -1
100
AcDbLine
 10
210.2
 20
134
 11
223.8
 21
134
  0
LINE
  5
128
100
AcDbEntity
  8
LaserCut
  6
ByLayer
 62
    7
370
   -1
100
AcDbLine
 10
210
 20
147.8
 11
210
 21
134.2
  0
ARC
  5
129
100
AcDbEntity
  8
LaserCut
  6
ByLayer
 62
    7
370
   -1
100
AcDbCircle
 10
210.2
 20
134.2
 40
0.2
100
AcDbArc
 50
180
 51
270
  0
ARC
  5
12A
100
AcDbEntity
  8
LaserCut
  6
ByLayer
 62
    7
370
   -1
100
AcDbCircle
 10
229.2
 20
147.8
 40
0.2
100
AcDbArc
 50
90
 51
180
  0
LINE
  5
12B
100
AcDbEntity
  8
LaserCut
  6
ByLayer
 62
    7
370
   -1
100
AcDbLine
 10
242.8
 20
148
 11
229.2
 21
148
  0
ARC
  5
12C
100
AcDbEntity
  8
LaserCut
  6
ByLayer
 62
    7
370
   -1
100
AcDbCircle
 10
242.8
 20
147.8
 40
0.2
100
AcDbArc
 50
0
 51
90
  0
LINE
  5
12D
100
AcDbEntity
  8
LaserCut
  6
ByLayer
 62
    7
370
   -1
100
AcDbLine
 10
243
 20
134.2
 11
243
 21
147.8
  0
ARC
  5
12E
100
AcDbEntity
  8
LaserCut
  6
ByLayer
 62
    7
370
   -1
100
AcDbCircle
 10
242.8
 20
134.2
 40
0.2
100
AcDbArc
 50
270
 51
0
  0
LINE
  5
12F
100
AcDbEntity
  8
LaserCut
  6
ByLayer
 62
    7
370
   -1
100
AcDbLine
 10
229.2
 20
134
 11
242.8
 21
134
  0
LINE
  5
130
100
AcDbEntity
  8
LaserCut
  6
ByLayer
 62
    7
370
   -1
100
AcDbLine
 10
229
 20
147.8
 11
229
 21
134.2
  0
ARC
  5
131
100
AcDbEntity
  8
LaserCut
  6
ByLayer
 62
    7
370
   -1
100
AcDbCircle
 10
229.2
 20
134.2
 40
0.2
100
AcDbArc
 50
180
 51
270
  0
ARC
  5
132
100
AcDbEntity
  8
LaserCut
  6
ByLayer
 62
    7
370
   -1
100
AcDbCircle
 10
248.2
 20
147.8
 40
0.2
100
AcDbArc
 50
90
 51
180
  0
LINE
  5
133
100
AcDbEntity
  8
LaserCut
  6
ByLayer
 62
    7
370
   -1
100
AcDbLine
 10
261.8
 20
148
 11
248.2
 21
148
  0
ARC
  5
134
100
AcDbEntity
  8
LaserCut
  6
ByLayer
 62
    7
370
   -1
100
AcDbCircle
 10
261.8
 20
147.8
 40
0.2
100
AcDbArc
 50
0
 51
90
  0
LINE
  5
135
100
AcDbEntity
  8
LaserCut
  6
ByLayer
 62
    7
370
   -1
100
AcDbLine
 10
262
 20
134.2
 11
262
 21
147.8
  0
ARC
  5
136
100
AcDbEntity
  8
LaserCut
  6
ByLayer
 62
    7
370
   -1
100
AcDbCircle
 10
261.8
 20
134.2
 40
0.2
100
AcDbArc
 50
270
 51
0
  0
LINE
  5
137
100
AcDbEntity
  8
LaserCut
  6
ByLayer
 62
    7
370
   -1
100
AcDbLine
 10
248.2
 20
134
 11
261.8
 21
134
  0
LINE
  5
138
100
AcDbEntity
  8
LaserCut
  6
ByLayer
 62
    7
370
   -1
100
AcDbLine
 10
248
 20
147.8
 11
248
 21
134.2
  0
ARC
  5
139
100
AcDbEntity
  8
LaserCut
  6
ByLayer
 62
    7
370
   -1
100
AcDbCircle
 10
248.2
 20
134.2
 40
0.2
100
AcDbArc
 50
180
 51
270
  0
ARC
  5
13A
100
AcDbEntity
  8
LaserCut
  6
ByLayer
 62
    7
370
   -1
100
AcDbCircle
 10
267.2
 20
147.8
 40
0.2
100
AcDbArc
 50
90
 51
180
  0
LINE
  5
13B
100
AcDbEntity
  8
LaserCut
  6
ByLayer
 62
    7
370
   -1
100
AcDbLine
 10
280.8
 20
148
 11
267.2
 21
148
  0
ARC
  5
13C
100
AcDbEntity
  8
LaserCut
  6
ByLayer
 62
    7
370
   -1
100
AcDbCircle
 10
280.8
 20
147.8
 40
0.2
100
AcDbArc
 50
0
 51
90
  0
LINE
  5
13D
100
AcDbEntity
  8
LaserCut
  6
ByLayer
 62
    7
370
   -1
100
AcDbLine
 10
281
 20
134.2
 11
281
 21
147.8
  0
ARC
  5
13E
100
AcDbEntity
  8
LaserCut
  6
ByLayer
 62
    7
370
   -1
100
AcDbCircle
 10
280.8
 20
134.2
 40
0.2
100
AcDbArc
 50
270
 51
0
  0
LINE
  5
13F
100
AcDbEntity
  8
LaserCut
  6
ByLayer
 62
    7
370
   -1
100
AcDbLine
 10
267.2
 20
134
 11
280.8
 21
134
  0
LINE
  5
140
100
AcDbEntity
  8
LaserCut
  6
ByLayer
 62
    7
370
   -1
100
AcDbLine
 10
267
 20
147.8
 11
267
 21
134.2
  0
ARC
  5
141
100
AcDbEntity
  8
LaserCut
  6
ByLayer
 62
    7
370
   -1
100
AcDbCircle
 10
267.2
 20
134.2
 40
0.2
100
AcDbArc
 50
180
 51
270
  0
ARC
  5
142
100
AcDbEntity
  8
LaserCut
  6
ByLayer
 62
    7
370
   -1
100
AcDbCircle
 10
20.2
 20
166.8
 40
0.2
100
AcDbArc
 50
90
 51
180
  0
LINE
  5
143
100
AcDbEntity
  8
LaserCut
  6
ByLayer
 62
    7
370
   -1
100
AcDbLine
 10
33.8
 20
167
 11
20.2
 21
167
  0
ARC
  5
144
100
AcDbEntity
  8
LaserCut
  6
ByLayer
 62
    7
370
   -1
100
AcDbCircle
 10
33.8
 20
166.8
 40
0.2
100
AcDbArc
 50
0
 51
90
  0
LINE
  5
145
100
AcDbEntity
  8
LaserCut
  6
ByLayer
 62
    7
370
   -1
100
AcDbLine
 10
34
 20
153.2
 11
34
 21
166.8
  0
ARC
  5
146
100
AcDbEntity
  8
LaserCut
  6
ByLayer
 62
    7
370
   -1
100
AcDbCircle
 10
33.8
 20
153.2
 40
0.2
100
AcDbArc
 50
270
 51
0
  0
LINE
  5
147
100
AcDbEntity
  8
LaserCut
  6
ByLayer
 62
    7
370
   -1
100
AcDbLine
 10
20.2
 20
153
 11
33.8
 21
153
  0
LINE
  5
148
100
AcDbEntity
  8
LaserCut
  6
ByLayer
 62
    7
370
   -1
100
AcDbLine
 10
20
 20
166.8
 11
20
 21
153.2
  0
ARC
  5
149
100
AcDbEntity
  8
LaserCut
  6
ByLayer
 62
    7
370
   -1
100
AcDbCircle
 10
20.2
 20
153.2
 40
0.2
100
AcDbArc
 50
180
 51
270
  0
ARC
  5
14A
100
AcDbEntity
  8
LaserCut
  6
ByLayer
 62
    7
370
   -1
100
AcDbCircle
 10
39.2
 20
166.8
 40
0.2
100
AcDbArc
 50
90
 51
180
  0
LINE
  5
14B
100
AcDbEntity
  8
LaserCut
  6
ByLayer
 62
    7
370
   -1
100
AcDbLine
 10
52.8
 20
167
 11
39.2
 21
167
  0
ARC
  5
14C
100
AcDbEntity
  8
LaserCut
  6
ByLayer
 62
    7
370
   -1
100
AcDbCircle
 10
52.8
 20
166.8
 40
0.2
100
AcDbArc
 50
0
 51
90
  0
LINE
  5
14D
100
AcDbEntity
  8
LaserCut
  6
ByLayer
 62
    7
370
   -1
100
AcDbLine
 10
53
 20
153.2
 11
53
 21
166.8
  0
ARC
  5
14E
100
AcDbEntity
  8
LaserCut
  6
ByLayer
 62
    7
370
   -1
100
AcDbCircle
 10
52.8
 20
153.2
 40
0.2
100
AcDbArc
 50
270
 51
0
  0
LINE
  5
14F
100
AcDbEntity
  8
LaserCut
  6
ByLayer
 62
    7
370
   -1
100
AcDbLine
 10
39.2
 20
153
 11
52.8
 21
153
  0
LINE
  5
150
100
AcDbEntity
  8
LaserCut
  6
ByLayer
 62
    7
370
   -1
100
AcDbLine
 10
39
 20
166.8
 11
39
 21
153.2
  0
ARC
  5
151
100
AcDbEntity
  8
LaserCut
  6
ByLayer
 62
    7
370
   -1
100
AcDbCircle
 10
39.2
 20
153.2
 40
0.2
100
AcDbArc
 50
180
 51
270
  0
ARC
  5
152
100
AcDbEntity
  8
LaserCut
  6
ByLayer
 62
    7
370
   -1
100
AcDbCircle
 10
58.2
 20
166.8
 40
0.2
100
AcDbArc
 50
90
 51
180
  0
LINE
  5
153
100
AcDbEntity
  8
LaserCut
  6
ByLayer
 62
    7
370
   -1
100
AcDbLine
 10
71.8
 20
167
 11
58.2
 21
167
  0
ARC
  5
154
100
AcDbEntity
  8
LaserCut
  6
ByLayer
 62
    7
370
   -1
100
AcDbCircle
 10
71.8
 20
166.8
 40
0.2
100
AcDbArc
 50
0
 51
90
  0
LINE
  5
155
100
AcDbEntity
  8
LaserCut
  6
ByLayer
 62
    7
370
   -1
100
AcDbLine
 10
72
 20
153.2
 11
72
 21
166.8
  0
ARC
  5
156
100
AcDbEntity
  8
LaserCut
  6
ByLayer
 62
    7
370
   -1
100
AcDbCircle
 10
71.8
 20
153.2
 40
0.2
100
AcDbArc
 50
270
 51
0
  0
LINE
  5
157
100
AcDbEntity
  8
LaserCut
  6
ByLayer
 62
    7
370
   -1
100
AcDbLine
 10
58.2
 20
153
 11
71.8
 21
153
  0
LINE
  5
158
100
AcDbEntity
  8
LaserCut
  6
ByLayer
 62
    7
370
   -1
100
AcDbLine
 10
58
 20
166.8
 11
58
 21
153.2
  0
ARC
  5
159
100
AcDbEntity
  8
LaserCut
  6
ByLayer
 62
    7
370
   -1
100
AcDbCircle
 10
58.2
 20
153.2
 40
0.2
100
AcDbArc
 50
180
 51
270
  0
ARC
  5
15A
100
AcDbEntity
  8
LaserCut
  6
ByLayer
 62
    7
370
   -1
100
AcDbCircle
 10
77.2
 20
166.8
 40
0.2
100
AcDbArc
 50
90
 51
180
  0
LINE
  5
15B
100
AcDbEntity
  8
LaserCut
  6
ByLayer
 62
    7
370
   -1
100
AcDbLine
 10
90.8
 20
167
 11
77.2
 21
167
  0
ARC
  5
15C
100
AcDbEntity
  8
LaserCut
  6
ByLayer
 62
    7
370
   -1
100
AcDbCircle
 10
90.8
 20
166.8
 40
0.2
100
AcDbArc
 50
0
 51
90
  0
LINE
  5
15D
100
AcDbEntity
  8
LaserCut
  6
ByLayer
 62
    7
370
   -1
100
AcDbLine
 10
91
 20
153.2
 11
91
 21
166.8
  0
ARC
  5
15E
100
AcDbEntity
  8
LaserCut
  6
ByLayer
 62
    7
370
   -1
100
AcDbCircle
 10
90.8
 20
153.2
 40
0.2
100
AcDbArc
 50
270
 51
0
  0
LINE
  5
15F
100
AcDbEntity
  8
LaserCut
  6
ByLayer
 62
    7
370
   -1
100
AcDbLine
 10
77.2
 20
153
 11
90.8
 21
153
  0
LINE
  5
160
100
AcDbEntity
  8
LaserCut
  6
ByLayer
 62
    7
370
   -1
100
AcDbLine
 10
77
 20
166.8
 11
77
 21
153.2
  0
ARC
  5
161
100
AcDbEntity
  8
LaserCut
  6
ByLayer
 62
    7
370
   -1
100
AcDbCircle
 10
77.2
 20
153.2
 40
0.2
100
AcDbArc
 50
180
 51
270
  0
ARC
  5
162
100
AcDbEntity
  8
LaserCut
  6
ByLayer
 62
    7
370
   -1
100
AcDbCircle
 10
96.2
 20
166.8
 40
0.2
100
AcDbArc
 50
90
 51
180
  0
LINE
  5
163
100
AcDbEntity
  8
LaserCut
  6
ByLayer
 62
    7
370
   -1
100
AcDbLine
 10
109.8
 20
167
 11
96.2
 21
167
  0
ARC
  5
164
100
AcDbEntity
  8
LaserCut
  6
ByLayer
 62
    7
370
   -1
100
AcDbCircle
 10
109.8
 20
166.8
 40
0.2
100
AcDbArc
 50
0
 51
90
  0
LINE
  5
165
100
AcDbEntity
  8
LaserCut
  6
ByLayer
 62
    7
370
   -1
100
AcDbLine
 10
110
 20
153.2
 11
110
 21
166.8
  0
ARC
  5
166
100
AcDbEntity
  8
LaserCut
  6
ByLayer
 62
    7
370
   -1
100
AcDbCircle
 10
109.8
 20
153.2
 40
0.2
100
AcDbArc
 50
270
 51
0
  0
LINE
  5
167
100
AcDbEntity
  8
LaserCut
  6
ByLayer
 62
    7
370
   -1
100
AcDbLine
 10
96.2
 20
153
 11
109.8
 21
153
  0
LINE
  5
168
100
AcDbEntity
  8
LaserCut
  6
ByLayer
 62
    7
370
   -1
100
AcDbLine
 10
96
 20
166.8
 11
96
 21
153.2
  0
ARC
  5
169
100
AcDbEntity
  8
LaserCut
  6
ByLayer
 62
    7
370
   -1
100
AcDbCircle
 10
96.2
 20
153.2
 40
0.2
100
AcDbArc
 50
180
 51
270
  0
ARC
  5
16A
100
AcDbEntity
  8
LaserCut
  6
ByLayer
 62
    7
370
   -1
100
AcDbCircle
 10
115.2
 20
166.8
 40
0.2
100
AcDbArc
 50
90
 51
180
  0
LINE
  5
16B
100
AcDbEntity
  8
LaserCut
  6
ByLayer
 62
    7
370
   -1
100
AcDbLine
 10
128.8
 20
167
 11
115.2
 21
167
  0
ARC
  5
16C
100
AcDbEntity
  8
LaserCut
  6
ByLayer
 62
    7
370
   -1
100
AcDbCircle
 10
128.8
 20
166.8
 40
0.2
100
AcDbArc
 50
0
 51
90
  0
LINE
  5
16D
100
AcDbEntity
  8
LaserCut
  6
ByLayer
 62
    7
370
   -1
100
AcDbLine
 10
129
 20
153.2
 11
129
 21
166.8
  0
ARC
  5
16E
100
AcDbEntity
  8
LaserCut
  6
ByLayer
 62
    7
370
   -1
100
AcDbCircle
 10
128.8
 20
153.2
 40
0.2
100
AcDbArc
 50
270
 51
0
  0
LINE
  5
16F
100
AcDbEntity
  8
LaserCut
  6
ByLayer
 62
    7
370
   -1
100
AcDbLine
 10
115.2
 20
153
 11
128.8
 21
153
  0
LINE
  5
170
100
AcDbEntity
  8
LaserCut
  6
ByLayer
 62
    7
370
   -1
100
AcDbLine
 10
115
 20
166.8
 11
115
 21
153.2
  0
ARC
  5
171
100
AcDbEntity
  8
LaserCut
  6
ByLayer
 62
    7
370
   -1
100
AcDbCircle
 10
115.2
 20
153.2
 40
0.2
100
AcDbArc
 50
180
 51
270
  0
ARC
  5
172
100
AcDbEntity
  8
LaserCut
  6
ByLayer
 62
    7
370
   -1
100
AcDbCircle
 10
134.2
 20
166.8
 40
0.2
100
AcDbArc
 50
90
 51
180
  0
LINE
  5
173
100
AcDbEntity
  8
LaserCut
  6
ByLayer
 62
    7
370
   -1
100
AcDbLine
 10
147.8
 20
167
 11
134.2
 21
167
  0
ARC
  5
174
100
AcDbEntity
  8
LaserCut
  6
ByLayer
 62
    7
370
   -1
100
AcDbCircle
 10
147.8
 20
166.8
 40
0.2
100
AcDbArc
 50
0
 51
90
  0
LINE
  5
175
100
AcDbEntity
  8
LaserCut
  6
ByLayer
 62
    7
370
   -1
100
AcDbLine
 10
148
 20
153.2
 11
148
 21
166.8
  0
ARC
  5
176
100
AcDbEntity
  8
LaserCut
  6
ByLayer
 62
    7
370
   -1
100
AcDbCircle
 10
147.8
 20
153.2
 40
0.2
100
AcDbArc
 50
270
 51
0
  0
LINE
  5
177
100
AcDbEntity
  8
LaserCut
  6
ByLayer
 62
    7
370
   -1
100
AcDbLine
 10
134.2
 20
153
 11
147.8
 21
153
  0
LINE
  5
178
100
AcDbEntity
  8
LaserCut
  6
ByLayer
 62
    7
370
   -1
100
AcDbLine
 10
134
 20
166.8
 11
134
 21
153.2
  0
ARC
  5
179
100
AcDbEntity
  8
LaserCut
  6
ByLayer
 62
    7
370
   -1
100
AcDbCircle
 10
134.2
 20
153.2
 40
0.2
100
AcDbArc
 50
180
 51
270
  0
ARC
  5
17A
100
AcDbEntity
  8
LaserCut
  6
ByLayer
 62
    7
370
   -1
100
AcDbCircle
 10
153.2
 20
166.8
 40
0.2
100
AcDbArc
 50
90
 51
180
  0
LINE
  5
17B
100
AcDbEntity
  8
LaserCut
  6
ByLayer
 62
    7
370
   -1
100
AcDbLine
 10
166.8
 20
167
 11
153.2
 21
167
  0
ARC
  5
17C
100
AcDbEntity
  8
LaserCut
  6
ByLayer
 62
    7
370
   -1
100
AcDbCircle
 10
166.8
 20
166.8
 40
0.2
100
AcDbArc
 50
0
 51
90
  0
LINE
  5
17D
100
AcDbEntity
  8
LaserCut
  6
ByLayer
 62
    7
370
   -1
100
AcDbLine
 10
167
 20
153.2
 11
167
 21
166.8
  0
ARC
  5
17E
100
AcDbEntity
  8
LaserCut
  6
ByLayer
 62
    7
370
   -1
100
AcDbCircle
 10
166.8
 20
153.2
 40
0.2
100
AcDbArc
 50
270
 51
0
  0
LINE
  5
17F
100
AcDbEntity
  8
LaserCut
  6
ByLayer
 62
    7
370
   -1
100
AcDbLine
 10
153.2
 20
153
 11
166.8
 21
153
  0
LINE
  5
180
100
AcDbEntity
  8
LaserCut
  6
ByLayer
 62
    7
370
   -1
100
AcDbLine
 10
153
 20
166.8
 11
153
 21
153.2
  0
ARC
  5
181
100
AcDbEntity
  8
LaserCut
  6
ByLayer
 62
    7
370
   -1
100
AcDbCircle
 10
153.2
 20
153.2
 40
0.2
100
AcDbArc
 50
180
 51
270
  0
ARC
  5
182
100
AcDbEntity
  8
LaserCut
  6
ByLayer
 62
    7
370
   -1
100
AcDbCircle
 10
172.2
 20
166.8
 40
0.2
100
AcDbArc
 50
90
 51
180
  0
LINE
  5
183
100
AcDbEntity
  8
LaserCut
  6
ByLayer
 62
    7
370
   -1
100
AcDbLine
 10
185.8
 20
167
 11
172.2
 21
167
  0
ARC
  5
184
100
AcDbEntity
  8
LaserCut
  6
ByLayer
 62
    7
370
   -1
100
AcDbCircle
 10
185.8
 20
166.8
 40
0.2
100
AcDbArc
 50
0
 51
90
  0
LINE
  5
185
100
AcDbEntity
  8
LaserCut
  6
ByLayer
 62
    7
370
   -1
100
AcDbLine
 10
186
 20
153.2
 11
186
 21
166.8
  0
ARC
  5
186
100
AcDbEntity
  8
LaserCut
  6
ByLayer
 62
    7
370
   -1
100
AcDbCircle
 10
185.8
 20
153.2
 40
0.2
100
AcDbArc
 50
270
 51
0
  0
LINE
  5
187
100
AcDbEntity
  8
LaserCut
  6
ByLayer
 62
    7
370
   -1
100
AcDbLine
 10
172.2
 20
153
 11
185.8
 21
153
  0
LINE
  5
188
100
AcDbEntity
  8
LaserCut
  6
ByLayer
 62
    7
370
   -1
100
AcDbLine
 10
172
 20
166.8
 11
172
 21
153.2
  0
ARC
  5
189
100
AcDbEntity
  8
LaserCut
  6
ByLayer
 62
    7
370
   -1
100
AcDbCircle
 10
172.2
 20
153.2
 40
0.2
100
AcDbArc
 50
180
 51
270
  0
ARC
  5
18A
100
AcDbEntity
  8
LaserCut
  6
ByLayer
 62
    7
370
   -1
100
AcDbCircle
 10
191.2
 20
166.8
 40
0.2
100
AcDbArc
 50
90
 51
180
  0
LINE
  5
18B
100
AcDbEntity
  8
LaserCut
  6
ByLayer
 62
    7
370
   -1
100
AcDbLine
 10
204.8
 20
167
 11
191.2
 21
167
  0
ARC
  5
18C
100
AcDbEntity
  8
LaserCut
  6
ByLayer
 62
    7
370
   -1
100
AcDbCircle
 10
204.8
 20
166.8
 40
0.2
100
AcDbArc
 50
0
 51
90
  0
LINE
  5
18D
100
AcDbEntity
  8
LaserCut
  6
ByLayer
 62
    7
370
   -1
100
AcDbLine
 10
205
 20
153.2
 11
205
 21
166.8
  0
ARC
  5
18E
100
AcDbEntity
  8
LaserCut
  6
ByLayer
 62
    7
370
   -1
100
AcDbCircle
 10
204.8
 20
153.2
 40
0.2
100
AcDbArc
 50
270
 51
0
  0
LINE
  5
18F
100
AcDbEntity
  8
LaserCut
  6
ByLayer
 62
    7
370
   -1
100
AcDbLine
 10
191.2
 20
153
 11
204.8
 21
153
  0
LINE
  5
190
100
AcDbEntity
  8
LaserCut
  6
ByLayer
 62
    7
370
   -1
100
AcDbLine
 10
191
 20
166.8
 11
191
 21
153.2
  0
ARC
  5
191
100
AcDbEntity
  8
LaserCut
  6
ByLayer
 62
    7
370
   -1
100
AcDbCircle
 10
191.2
 20
153.2
 40
0.2
100
AcDbArc
 50
180
 51
270
  0
ARC
  5
192
100
AcDbEntity
  8
LaserCut
  6
ByLayer
 62
    7
370
   -1
100
AcDbCircle
 10
210.2
 20
166.8
 40
0.2
100
AcDbArc
 50
90
 51
180
  0
LINE
  5
193
100
AcDbEntity
  8
LaserCut
  6
ByLayer
 62
    7
370
   -1
100
AcDbLine
 10
223.8
 20
167
 11
210.2
 21
167
  0
ARC
  5
194
100
AcDbEntity
  8
LaserCut
  6
ByLayer
 62
    7
370
   -1
100
AcDbCircle
 10
223.8
 20
166.8
 40
0.2
100
AcDbArc
 50
0
 51
90
  0
LINE
  5
195
100
AcDbEntity
  8
LaserCut
  6
ByLayer
 62
    7
370
   -1
100
AcDbLine
 10
224
 20
153.2
 11
224
 21
166.8
  0
ARC
  5
196
100
AcDbEntity
  8
LaserCut
  6
ByLayer
 62
    7
370
   -1
100
AcDbCircle
 10
223.8
 20
153.2
 40
0.2
100
AcDbArc
 50
270
 51
0
  0
LINE
  5
197
100
AcDbEntity
  8
LaserCut
  6
ByLayer
 62
    7
370
   -1
100
AcDbLine
 10
210.2
 20
153
 11
223.8
 21
153
  0
LINE
  5
198
100
AcDbEntity
  8
LaserCut
  6
ByLayer
 62
    7
370
   -1
100
AcDbLine
 10
210
 20
166.8
 11
210
 21
153.2
  0
ARC
  5
199
100
AcDbEntity
  8
LaserCut
  6
ByLayer
 62
    7
370
   -1
100
AcDbCircle
 10
210.2
 20
153.2
 40
0.2
100
AcDbArc
 50
180
 51
270
  0
ARC
  5
19A
100
AcDbEntity
  8
LaserCut
  6
ByLayer
 62
    7
370
   -1
100
AcDbCircle
 10
229.2
 20
166.8
 40
0.2
100
AcDbArc
 50
90
 51
180
  0
LINE
  5
19B
100
AcDbEntity
  8
LaserCut
  6
ByLayer
 62
    7
370
   -1
100
AcDbLine
 10
242.8
 20
167
 11
229.2
 21
167
  0
ARC
  5
19C
100
AcDbEntity
  8
LaserCut
  6
ByLayer
 62
    7
370
   -1
100
AcDbCircle
 10
242.8
 20
166.8
 40
0.2
100
AcDbArc
 50
0
 51
90
  0
LINE
  5
19D
100
AcDbEntity
  8
LaserCut
  6
ByLayer
 62
    7
370
   -1
100
AcDbLine
 10
243
 20
153.2
 11
243
 21
166.8
  0
ARC
  5
19E
100
AcDbEntity
  8
LaserCut
  6
ByLayer
 62
    7
370
   -1
100
AcDbCircle
 10
242.8
 20
153.2
 40
0.2
100
AcDbArc
 50
270
 51
0
  0
LINE
  5
19F
100
AcDbEntity
  8
LaserCut
  6
ByLayer
 62
    7
370
   -1
100
AcDbLine
 10
229.2
 20
153
 11
242.8
 21
153
  0
LINE
  5
1A0
100
AcDbEntity
  8
LaserCut
  6
ByLayer
 62
    7
370
   -1
100
AcDbLine
 10
229
 20
166.8
 11
229
 21
153.2
  0
ARC
  5
1A1
100
AcDbEntity
  8
LaserCut
  6
ByLayer
 62
    7
370
   -1
100
AcDbCircle
 10
229.2
 20
153.2
 40
0.2
100
AcDbArc
 50
180
 51
270
  0
ARC
  5
1A2
100
AcDbEntity
  8
LaserCut
  6
ByLayer
 62
    7
370
   -1
100
AcDbCircle
 10
248.2
 20
166.8
 40
0.2
100
AcDbArc
 50
90
 51
180
  0
LINE
  5
1A3
100
AcDbEntity
  8
LaserCut
  6
ByLayer
 62
    7
370
   -1
100
AcDbLine
 10
261.8
 20
167
 11
248.2
 21
167
  0
ARC
  5
1A4
100
AcDbEntity
  8
LaserCut
  6
ByLayer
 62
    7
370
   -1
100
AcDbCircle
 10
261.8
 20
166.8
 40
0.2
100
AcDbArc
 50
0
 51
90
  0
LINE
  5
1A5
100
AcDbEntity
  8
LaserCut
  6
ByLayer
 62
    7
370
   -1
100
AcDbLine
 10
262
 20
153.2
 11
262
 21
166.8
  0
ARC
  5
1A6
100
AcDbEntity
  8
LaserCut
  6
ByLayer
 62
    7
370
   -1
100
AcDbCircle
 10
261.8
 20
153.2
 40
0.2
100
AcDbArc
 50
270
 51
0
  0
LINE
  5
1A7
100
AcDbEntity
  8
LaserCut
  6
ByLayer
 62
    7
370
   -1
100
AcDbLine
 10
248.2
 20
153
 11
261.8
 21
153
  0
LINE
  5
1A8
100
AcDbEntity
  8
LaserCut
  6
ByLayer
 62
    7
370
   -1
100
AcDbLine
 10
248
 20
166.8
 11
248
 21
153.2
  0
ARC
  5
1A9
100
AcDbEntity
  8
LaserCut
  6
ByLayer
 62
    7
370
   -1
100
AcDbCircle
 10
248.2
 20
153.2
 40
0.2
100
AcDbArc
 50
180
 51
270
  0
ARC
  5
1AA
100
AcDbEntity
  8
LaserCut
  6
ByLayer
 62
    7
370
   -1
100
AcDbCircle
 10
267.2
 20
166.8
 40
0.2
100
AcDbArc
 50
90
 51
180
  0
LINE
  5
1AB
100
AcDbEntity
  8
LaserCut
  6
ByLayer
 62
    7
370
   -1
100
AcDbLine
 10
280.8
 20
167
 11
267.2
 21
167
  0
ARC
  5
1AC
100
AcDbEntity
  8
LaserCut
  6
ByLayer
 62
    7
370
   -1
100
AcDbCircle
 10
280.8
 20
166.8
 40
0.2
100
AcDbArc
 50
0
 51
90
  0
LINE
  5
1AD
100
AcDbEntity
  8
LaserCut
  6
ByLayer
 62
    7
370
   -1
100
AcDbLine
 10
281
 20
153.2
 11
281
 21
166.8
  0
ARC
  5
1AE
100
AcDbEntity
  8
LaserCut
  6
ByLayer
 62
    7
370
   -1
100
AcDbCircle
 10
280.8
 20
153.2
 40
0.2
100
AcDbArc
 50
270
 51
0
  0
LINE
  5
1AF
100
AcDbEntity
  8
LaserCut
  6
ByLayer
 62
    7
370
   -1
100
AcDbLine
 10
267.2
 20
153
 11
280.8
 21
153
  0
LINE
  5
1B0
100
AcDbEntity
  8
LaserCut
  6
ByLayer
 62
    7
370
   -1
100
AcDbLine
 10
267
 20
166.8
 11
267
 21
153.2
  0
ARC
  5
1B1
100
AcDbEntity
  8
LaserCut
  6
ByLayer
 62
    7
370
   -1
100
AcDbCircle
 10
267.2
 20
153.2
 40
0.2
100
AcDbArc
 50
180
 51
270
  0
ARC
  5
1B2
100
AcDbEntity
  8
LaserCut
  6
ByLayer
 62
    7
370
   -1
100
AcDbCircle
 10
20.2
 20
185.8
 40
0.2
100
AcDbArc
 50
90
 51
180
  0
LINE
  5
1B3
100
AcDbEntity
  8
LaserCut
  6
ByLayer
 62
    7
370
   -1
100
AcDbLine
 10
33.8
 20
186
 11
20.2
 21
186
  0
ARC
  5
1B4
100
AcDbEntity
  8
LaserCut
  6
ByLayer
 62
    7
370
   -1
100
AcDbCircle
 10
33.8
 20
185.8
 40
0.2
100
AcDbArc
 50
0
 51
90
  0
LINE
  5
1B5
100
AcDbEntity
  8
LaserCut
  6
ByLayer
 62
    7
370
   -1
100
AcDbLine
 10
34
 20
172.2
 11
34
 21
185.8
  0
ARC
  5
1B6
100
AcDbEntity
  8
LaserCut
  6
ByLayer
 62
    7
370
   -1
100
AcDbCircle
 10
33.8
 20
172.2
 40
0.2
100
AcDbArc
 50
270
 51
0
  0
LINE
  5
1B7
100
AcDbEntity
  8
LaserCut
  6
ByLayer
 62
    7
370
   -1
100
AcDbLine
 10
20.2
 20
172
 11
33.8
 21
172
  0
LINE
  5
1B8
100
AcDbEntity
  8
LaserCut
  6
ByLayer
 62
    7
370
   -1
100
AcDbLine
 10
20
 20
185.8
 11
20
 21
172.2
  0
ARC
  5
1B9
100
AcDbEntity
  8
LaserCut
  6
ByLayer
 62
    7
370
   -1
100
AcDbCircle
 10
20.2
 20
172.2
 40
0.2
100
AcDbArc
 50
180
 51
270
  0
ARC
  5
1BA
100
AcDbEntity
  8
LaserCut
  6
ByLayer
 62
    7
370
   -1
100
AcDbCircle
 10
39.2
 20
185.8
 40
0.2
100
AcDbArc
 50
90
 51
180
  0
LINE
  5
1BB
100
AcDbEntity
  8
LaserCut
  6
ByLayer
 62
    7
370
   -1
100
AcDbLine
 10
52.8
 20
186
 11
39.2
 21
186
  0
ARC
  5
1BC
100
AcDbEntity
  8
LaserCut
  6
ByLayer
 62
    7
370
   -1
100
AcDbCircle
 10
52.8
 20
185.8
 40
0.2
100
AcDbArc
 50
0
 51
90
  0
LINE
  5
1BD
100
AcDbEntity
  8
LaserCut
  6
ByLayer
 62
    7
370
   -1
100
AcDbLine
 10
53
 20
172.2
 11
53
 21
185.8
  0
ARC
  5
1BE
100
AcDbEntity
  8
LaserCut
  6
ByLayer
 62
    7
370
   -1
100
AcDbCircle
 10
52.8
 20
172.2
 40
0.2
100
AcDbArc
 50
270
 51
0
  0
LINE
  5
1BF
100
AcDbEntity
  8
LaserCut
  6
ByLayer
 62
    7
370
   -1
100
AcDbLine
 10
39.2
 20
172
 11
52.8
 21
172
  0
LINE
  5
1C0
100
AcDbEntity
  8
LaserCut
  6
ByLayer
 62
    7
370
   -1
100
AcDbLine
 10
39
 20
185.8
 11
39
 21
172.2
  0
ARC
  5
1C1
100
AcDbEntity
  8
LaserCut
  6
ByLayer
 62
    7
370
   -1
100
AcDbCircle
 10
39.2
 20
172.2
 40
0.2
100
AcDbArc
 50
180
 51
270
  0
ARC
  5
1C2
100
AcDbEntity
  8
LaserCut
  6
ByLayer
 62
    7
370
   -1
100
AcDbCircle
 10
58.2
 20
185.8
 40
0.2
100
AcDbArc
 50
90
 51
180
  0
LINE
  5
1C3
100
AcDbEntity
  8
LaserCut
  6
ByLayer
 62
    7
370
   -1
100
AcDbLine
 10
71.8
 20
186
 11
58.2
 21
186
  0
ARC
  5
1C4
100
AcDbEntity
  8
LaserCut
  6
ByLayer
 62
    7
370
   -1
100
AcDbCircle
 10
71.8
 20
185.8
 40
0.2
100
AcDbArc
 50
0
 51
90
  0
LINE
  5
1C5
100
AcDbEntity
  8
LaserCut
  6
ByLayer
 62
    7
370
   -1
100
AcDbLine
 10
72
 20
172.2
 11
72
 21
185.8
  0
ARC
  5
1C6
100
AcDbEntity
  8
LaserCut
  6
ByLayer
 62
    7
370
   -1
100
AcDbCircle
 10
71.8
 20
172.2
 40
0.2
100
AcDbArc
 50
270
 51
0
  0
LINE
  5
1C7
100
AcDbEntity
  8
LaserCut
  6
ByLayer
 62
    7
370
   -1
100
AcDbLine
 10
58.2
 20
172
 11
71.8
 21
172
  0
LINE
  5
1C8
100
AcDbEntity
  8
LaserCut
  6
ByLayer
 62
    7
370
   -1
100
AcDbLine
 10
58
 20
185.8
 11
58
 21
172.2
  0
ARC
  5
1C9
100
AcDbEntity
  8
LaserCut
  6
ByLayer
 62
    7
370
   -1
100
AcDbCircle
 10
58.2
 20
172.2
 40
0.2
100
AcDbArc
 50
180
 51
270
  0
ARC
  5
1CA
100
AcDbEntity
  8
LaserCut
  6
ByLayer
 62
    7
370
   -1
100
AcDbCircle
 10
77.2
 20
185.8
 40
0.2
100
AcDbArc
 50
90
 51
180
  0
LINE
  5
1CB
100
AcDbEntity
  8
LaserCut
  6
ByLayer
 62
    7
370
   -1
100
AcDbLine
 10
90.8
 20
186
 11
77.2
 21
186
  0
ARC
  5
1CC
100
AcDbEntity
  8
LaserCut
  6
ByLayer
 62
    7
370
   -1
100
AcDbCircle
 10
90.8
 20
185.8
 40
0.2
100
AcDbArc
 50
0
 51
90
  0
LINE
  5
1CD
100
AcDbEntity
  8
LaserCut
  6
ByLayer
 62
    7
370
   -1
100
AcDbLine
 10
91
 20
172.2
 11
91
 21
185.8
  0
ARC
  5
1CE
100
AcDbEntity
  8
LaserCut
  6
ByLayer
 62
    7
370
   -1
100
AcDbCircle
 10
90.8
 20
172.2
 40
0.2
100
AcDbArc
 50
270
 51
0
  0
LINE
  5
1CF
100
AcDbEntity
  8
LaserCut
  6
ByLayer
 62
    7
370
   -1
100
AcDbLine
 10
77.2
 20
172
 11
90.8
 21
172
  0
LINE
  5
1D0
100
AcDbEntity
  8
LaserCut
  6
ByLayer
 62
    7
370
   -1
100
AcDbLine
 10
77
 20
185.8
 11
77
 21
172.2
  0
ARC
  5
1D1
100
AcDbEntity
  8
LaserCut
  6
ByLayer
 62
    7
370
   -1
100
AcDbCircle
 10
77.2
 20
172.2
 40
0.2
100
AcDbArc
 50
180
 51
270
  0
ARC
  5
1D2
100
AcDbEntity
  8
LaserCut
  6
ByLayer
 62
    7
370
   -1
100
AcDbCircle
 10
96.2
 20
185.8
 40
0.2
100
AcDbArc
 50
90
 51
180
  0
LINE
  5
1D3
100
AcDbEntity
  8
LaserCut
  6
ByLayer
 62
    7
370
   -1
100
AcDbLine
 10
109.8
 20
186
 11
96.2
 21
186
  0
ARC
  5
1D4
100
AcDbEntity
  8
LaserCut
  6
ByLayer
 62
    7
370
   -1
100
AcDbCircle
 10
109.8
 20
185.8
 40
0.2
100
AcDbArc
 50
0
 51
90
  0
LINE
  5
1D5
100
AcDbEntity
  8
LaserCut
  6
ByLayer
 62
    7
370
   -1
100
AcDbLine
 10
110
 20
172.2
 11
110
 21
185.8
  0
ARC
  5
1D6
100
AcDbEntity
  8
LaserCut
  6
ByLayer
 62
    7
370
   -1
100
AcDbCircle
 10
109.8
 20
172.2
 40
0.2
100
AcDbArc
 50
270
 51
0
  0
LINE
  5
1D7
100
AcDbEntity
  8
LaserCut
  6
ByLayer
 62
    7
370
   -1
100
AcDbLine
 10
96.2
 20
172
 11
109.8
 21
172
  0
LINE
  5
1D8
100
AcDbEntity
  8
LaserCut
  6
ByLayer
 62
    7
370
   -1
100
AcDbLine
 10
96
 20
185.8
 11
96
 21
172.2
  0
ARC
  5
1D9
100
AcDbEntity
  8
LaserCut
  6
ByLayer
 62
    7
370
   -1
100
AcDbCircle
 10
96.2
 20
172.2
 40
0.2
100
AcDbArc
 50
180
 51
270
  0
ARC
  5
1DA
100
AcDbEntity
  8
LaserCut
  6
ByLayer
 62
    7
370
   -1
100
AcDbCircle
 10
115.2
 20
185.8
 40
0.2
100
AcDbArc
 50
90
 51
180
  0
LINE
  5
1DB
100
AcDbEntity
  8
LaserCut
  6
ByLayer
 62
    7
370
   -1
100
AcDbLine
 10
128.8
 20
186
 11
115.2
 21
186
  0
ARC
  5
1DC
100
AcDbEntity
  8
LaserCut
  6
ByLayer
 62
    7
370
   -1
100
AcDbCircle
 10
128.8
 20
185.8
 40
0.2
100
AcDbArc
 50
0
 51
90
  0
LINE
  5
1DD
100
AcDbEntity
  8
LaserCut
  6
ByLayer
 62
    7
370
   -1
100
AcDbLine
 10
129
 20
172.2
 11
129
 21
185.8
  0
ARC
  5
1DE
100
AcDbEntity
  8
LaserCut
  6
ByLayer
 62
    7
370
   -1
100
AcDbCircle
 10
128.8
 20
172.2
 40
0.2
100
AcDbArc
 50
270
 51
0
  0
LINE
  5
1DF
100
AcDbEntity
  8
LaserCut
  6
ByLayer
 62
    7
370
   -1
100
AcDbLine
 10
115.2
 20
172
 11
128.8
 21
172
  0
LINE
  5
1E0
100
AcDbEntity
  8
LaserCut
  6
ByLayer
 62
    7
370
   -1
100
AcDbLine
 10
115
 20
185.8
 11
115
 21
172.2
  0
ARC
  5
1E1
100
AcDbEntity
  8
LaserCut
  6
ByLayer
 62
    7
370
   -1
100
AcDbCircle
 10
115.2
 20
172.2
 40
0.2
100
AcDbArc
 50
180
 51
270
  0
ARC
  5
1E2
100
AcDbEntity
  8
LaserCut
  6
ByLayer
 62
    7
370
   -1
100
AcDbCircle
 10
134.2
 20
185.8
 40
0.2
100
AcDbArc
 50
90
 51
180
  0
LINE
  5
1E3
100
AcDbEntity
  8
LaserCut
  6
ByLayer
 62
    7
370
   -1
100
AcDbLine
 10
147.8
 20
186
 11
134.2
 21
186
  0
ARC
  5
1E4
100
AcDbEntity
  8
LaserCut
  6
ByLayer
 62
    7
370
   -1
100
AcDbCircle
 10
147.8
 20
185.8
 40
0.2
100
AcDbArc
 50
0
 51
90
  0
LINE
  5
1E5
100
AcDbEntity
  8
LaserCut
  6
ByLayer
 62
    7
370
   -1
100
AcDbLine
 10
148
 20
172.2
 11
148
 21
185.8
  0
ARC
  5
1E6
100
AcDbEntity
  8
LaserCut
  6
ByLayer
 62
    7
370
   -1
100
AcDbCircle
 10
147.8
 20
172.2
 40
0.2
100
AcDbArc
 50
270
 51
0
  0
LINE
  5
1E7
100
AcDbEntity
  8
LaserCut
  6
ByLayer
 62
    7
370
   -1
100
AcDbLine
 10
134.2
 20
172
 11
147.8
 21
172
  0
LINE
  5
1E8
100
AcDbEntity
  8
LaserCut
  6
ByLayer
 62
    7
370
   -1
100
AcDbLine
 10
134
 20
185.8
 11
134
 21
172.2
  0
ARC
  5
1E9
100
AcDbEntity
  8
LaserCut
  6
ByLayer
 62
    7
370
   -1
100
AcDbCircle
 10
134.2
 20
172.2
 40
0.2
100
AcDbArc
 50
180
 51
270
  0
ARC
  5
1EA
100
AcDbEntity
  8
LaserCut
  6
ByLayer
 62
    7
370
   -1
100
AcDbCircle
 10
153.2
 20
185.8
 40
0.2
100
AcDbArc
 50
90
 51
180
  0
LINE
  5
1EB
100
AcDbEntity
  8
LaserCut
  6
ByLayer
 62
    7
370
   -1
100
AcDbLine
 10
166.8
 20
186
 11
153.2
 21
186
  0
ARC
  5
1EC
100
AcDbEntity
  8
LaserCut
  6
ByLayer
 62
    7
370
   -1
100
AcDbCircle
 10
166.8
 20
185.8
 40
0.2
100
AcDbArc
 50
0
 51
90
  0
LINE
  5
1ED
100
AcDbEntity
  8
LaserCut
  6
ByLayer
 62
    7
370
   -1
100
AcDbLine
 10
167
 20
172.2
 11
167
 21
185.8
  0
ARC
  5
1EE
100
AcDbEntity
  8
LaserCut
  6
ByLayer
 62
    7
370
   -1
100
AcDbCircle
 10
166.8
 20
172.2
 40
0.2
100
AcDbArc
 50
270
 51
0
  0
LINE
  5
1EF
100
AcDbEntity
  8
LaserCut
  6
ByLayer
 62
    7
370
   -1
100
AcDbLine
 10
153.2
 20
172
 11
166.8
 21
172
  0
LINE
  5
1F0
100
AcDbEntity
  8
LaserCut
  6
ByLayer
 62
    7
370
   -1
100
AcDbLine
 10
153
 20
185.8
 11
153
 21
172.2
  0
ARC
  5
1F1
100
AcDbEntity
  8
LaserCut
  6
ByLayer
 62
    7
370
   -1
100
AcDbCircle
 10
153.2
 20
172.2
 40
0.2
100
AcDbArc
 50
180
 51
270
  0
ARC
  5
1F2
100
AcDbEntity
  8
LaserCut
  6
ByLayer
 62
    7
370
   -1
100
AcDbCircle
 10
172.2
 20
185.8
 40
0.2
100
AcDbArc
 50
90
 51
180
  0
LINE
  5
1F3
100
AcDbEntity
  8
LaserCut
  6
ByLayer
 62
    7
370
   -1
100
AcDbLine
 10
185.8
 20
186
 11
172.2
 21
186
  0
ARC
  5
1F4
100
AcDbEntity
  8
LaserCut
  6
ByLayer
 62
    7
370
   -1
100
AcDbCircle
 10
185.8
 20
185.8
 40
0.2
100
AcDbArc
 50
0
 51
90
  0
LINE
  5
1F5
100
AcDbEntity
  8
LaserCut
  6
ByLayer
 62
    7
370
   -1
100
AcDbLine
 10
186
 20
172.2
 11
186
 21
185.8
  0
ARC
  5
1F6
100
AcDbEntity
  8
LaserCut
  6
ByLayer
 62
    7
370
   -1
100
AcDbCircle
 10
185.8
 20
172.2
 40
0.2
100
AcDbArc
 50
270
 51
0
  0
LINE
  5
1F7
100
AcDbEntity
  8
LaserCut
  6
ByLayer
 62
    7
370
   -1
100
AcDbLine
 10
172.2
 20
172
 11
185.8
 21
172
  0
LINE
  5
1F8
100
AcDbEntity
  8
LaserCut
  6
ByLayer
 62
    7
370
   -1
100
AcDbLine
 10
172
 20
185.8
 11
172
 21
172.2
  0
ARC
  5
1F9
100
AcDbEntity
  8
LaserCut
  6
ByLayer
 62
    7
370
   -1
100
AcDbCircle
 10
172.2
 20
172.2
 40
0.2
100
AcDbArc
 50
180
 51
270
  0
ARC
  5
1FA
100
AcDbEntity
  8
LaserCut
  6
ByLayer
 62
    7
370
   -1
100
AcDbCircle
 10
191.2
 20
185.8
 40
0.2
100
AcDbArc
 50
90
 51
180
  0
LINE
  5
1FB
100
AcDbEntity
  8
LaserCut
  6
ByLayer
 62
    7
370
   -1
100
AcDbLine
 10
204.8
 20
186
 11
191.2
 21
186
  0
ARC
  5
1FC
100
AcDbEntity
  8
LaserCut
  6
ByLayer
 62
    7
370
   -1
100
AcDbCircle
 10
204.8
 20
185.8
 40
0.2
100
AcDbArc
 50
0
 51
90
  0
LINE
  5
1FD
100
AcDbEntity
  8
LaserCut
  6
ByLayer
 62
    7
370
   -1
100
AcDbLine
 10
205
 20
172.2
 11
205
 21
185.8
  0
ARC
  5
1FE
100
AcDbEntity
  8
LaserCut
  6
ByLayer
 62
    7
370
   -1
100
AcDbCircle
 10
204.8
 20
172.2
 40
0.2
100
AcDbArc
 50
270
 51
0
  0
LINE
  5
1FF
100
AcDbEntity
  8
LaserCut
  6
ByLayer
 62
    7
370
   -1
100
AcDbLine
 10
191.2
 20
172
 11
204.8
 21
172
  0
LINE
  5
200
100
AcDbEntity
  8
LaserCut
  6
ByLayer
 62
    7
370
   -1
100
AcDbLine
 10
191
 20
185.8
 11
191
 21
172.2
  0
ARC
  5
201
100
AcDbEntity
  8
LaserCut
  6
ByLayer
 62
    7
370
   -1
100
AcDbCircle
 10
191.2
 20
172.2
 40
0.2
100
AcDbArc
 50
180
 51
270
  0
ARC
  5
202
100
AcDbEntity
  8
LaserCut
  6
ByLayer
 62
    7
370
   -1
100
AcDbCircle
 10
210.2
 20
185.8
 40
0.2
100
AcDbArc
 50
90
 51
180
  0
LINE
  5
203
100
AcDbEntity
  8
LaserCut
  6
ByLayer
 62
    7
370
   -1
100
AcDbLine
 10
223.8
 20
186
 11
210.2
 21
186
  0
ARC
  5
204
100
AcDbEntity
  8
LaserCut
  6
ByLayer
 62
    7
370
   -1
100
AcDbCircle
 10
223.8
 20
185.8
 40
0.2
100
AcDbArc
 50
0
 51
90
  0
LINE
  5
205
100
AcDbEntity
  8
LaserCut
  6
ByLayer
 62
    7
370
   -1
100
AcDbLine
 10
224
 20
172.2
 11
224
 21
185.8
  0
ARC
  5
206
100
AcDbEntity
  8
LaserCut
  6
ByLayer
 62
    7
370
   -1
100
AcDbCircle
 10
223.8
 20
172.2
 40
0.2
100
AcDbArc
 50
270
 51
0
  0
LINE
  5
207
100
AcDbEntity
  8
LaserCut
  6
ByLayer
 62
    7
370
   -1
100
AcDbLine
 10
210.2
 20
172
 11
223.8
 21
172
  0
LINE
  5
208
100
AcDbEntity
  8
LaserCut
  6
ByLayer
 62
    7
370
   -1
100
AcDbLine
 10
210
 20
185.8
 11
210
 21
172.2
  0
ARC
  5
209
100
AcDbEntity
  8
LaserCut
  6
ByLayer
 62
    7
370
   -1
100
AcDbCircle
 10
210.2
 20
172.2
 40
0.2
100
AcDbArc
 50
180
 51
270
  0
ARC
  5
20A
100
AcDbEntity
  8
LaserCut
  6
ByLayer
 62
    7
370
   -1
100
AcDbCircle
 10
229.2
 20
185.8
 40
0.2
100
AcDbArc
 50
90
 51
180
  0
LINE
  5
20B
100
AcDbEntity
  8
LaserCut
  6
ByLayer
 62
    7
370
   -1
100
AcDbLine
 10
242.8
 20
186
 11
229.2
 21
186
  0
ARC
  5
20C
100
AcDbEntity
  8
LaserCut
  6
ByLayer
 62
    7
370
   -1
100
AcDbCircle
 10
242.8
 20
185.8
 40
0.2
100
AcDbArc
 50
0
 51
90
  0
LINE
  5
20D
100
AcDbEntity
  8
LaserCut
  6
ByLayer
 62
    7
370
   -1
100
AcDbLine
 10
243
 20
172.2
 11
243
 21
185.8
  0
ARC
  5
20E
100
AcDbEntity
  8
LaserCut
  6
ByLayer
 62
    7
370
   -1
100
AcDbCircle
 10
242.8
 20
172.2
 40
0.2
100
AcDbArc
 50
270
 51
0
  0
LINE
  5
20F
100
AcDbEntity
  8
LaserCut
  6
ByLayer
 62
    7
370
   -1
100
AcDbLine
 10
229.2
 20
172
 11
242.8
 21
172
  0
LINE
  5
210
100
AcDbEntity
  8
LaserCut
  6
ByLayer
 62
    7
370
   -1
100
AcDbLine
 10
229
 20
185.8
 11
229
 21
172.2
  0
ARC
  5
211
100
AcDbEntity
  8
LaserCut
  6
ByLayer
 62
    7
370
   -1
100
AcDbCircle
 10
229.2
 20
172.2
 40
0.2
100
AcDbArc
 50
180
 51
270
  0
ARC
  5
212
100
AcDbEntity
  8
LaserCut
  6
ByLayer
 62
    7
370
   -1
100
AcDbCircle
 10
248.2
 20
185.8
 40
0.2
100
AcDbArc
 50
90
 51
180
  0
LINE
  5
213
100
AcDbEntity
  8
LaserCut
  6
ByLayer
 62
    7
370
   -1
100
AcDbLine
 10
261.8
 20
186
 11
248.2
 21
186
  0
ARC
  5
214
100
AcDbEntity
  8
LaserCut
  6
ByLayer
 62
    7
370
   -1
100
AcDbCircle
 10
261.8
 20
185.8
 40
0.2
100
AcDbArc
 50
0
 51
90
  0
LINE
  5
215
100
AcDbEntity
  8
LaserCut
  6
ByLayer
 62
    7
370
   -1
100
AcDbLine
 10
262
 20
172.2
 11
262
 21
185.8
  0
ARC
  5
216
100
AcDbEntity
  8
LaserCut
  6
ByLayer
 62
    7
370
   -1
100
AcDbCircle
 10
261.8
 20
172.2
 40
0.2
100
AcDbArc
 50
270
 51
0
  0
LINE
  5
217
100
AcDbEntity
  8
LaserCut
  6
ByLayer
 62
    7
370
   -1
100
AcDbLine
 10
248.2
 20
172
 11
261.8
 21
172
  0
LINE
  5
218
100
AcDbEntity
  8
LaserCut
  6
ByLayer
 62
    7
370
   -1
100
AcDbLine
 10
248
 20
185.8
 11
248
 21
172.2
  0
ARC
  5
219
100
AcDbEntity
  8
LaserCut
  6
ByLayer
 62
    7
370
   -1
100
AcDbCircle
 10
248.2
 20
172.2
 40
0.2
100
AcDbArc
 50
180
 51
270
  0
ARC
  5
21A
100
AcDbEntity
  8
LaserCut
  6
ByLayer
 62
    7
370
   -1
100
AcDbCircle
 10
267.2
 20
185.8
 40
0.2
100
AcDbArc
 50
90
 51
180
  0
LINE
  5
21B
100
AcDbEntity
  8
LaserCut
  6
ByLayer
 62
    7
370
   -1
100
AcDbLine
 10
280.8
 20
186
 11
267.2
 21
186
  0
ARC
  5
21C
100
AcDbEntity
  8
LaserCut
  6
ByLayer
 62
    7
370
   -1
100
AcDbCircle
 10
280.8
 20
185.8
 40
0.2
100
AcDbArc
 50
0
 51
90
  0
LINE
  5
21D
100
AcDbEntity
  8
LaserCut
  6
ByLayer
 62
    7
370
   -1
100
AcDbLine
 10
281
 20
172.2
 11
281
 21
185.8
  0
ARC
  5
21E
100
AcDbEntity
  8
LaserCut
  6
ByLayer
 62
    7
370
   -1
100
AcDbCircle
 10
280.8
 20
172.2
 40
0.2
100
AcDbArc
 50
270
 51
0
  0
LINE
  5
21F
100
AcDbEntity
  8
LaserCut
  6
ByLayer
 62
    7
370
   -1
100
AcDbLine
 10
267.2
 20
172
 11
280.8
 21
172
  0
LINE
  5
220
100
AcDbEntity
  8
LaserCut
  6
ByLayer
 62
    7
370
   -1
100
AcDbLine
 10
267
 20
185.8
 11
267
 21
172.2
  0
ARC
  5
221
100
AcDbEntity
  8
LaserCut
  6
ByLayer
 62
    7
370
   -1
100
AcDbCircle
 10
267.2
 20
172.2
 40
0.2
100
AcDbArc
 50
180
 51
270
  0
CIRCLE
  5
222
100
AcDbEntity
  8
LaserCut
  6
ByLayer
 62
    7
370
   -1
100
AcDbCircle
 10
15
 20
110
 40
1
  0
CIRCLE
  5
223
100
AcDbEntity
  8
LaserCut
  6
ByLayer
 62
    7
370
   -1
100
AcDbCircle
 10
286
 20
110
 40
1
  0
CIRCLE
  5
224
100
AcDbEntity
  8
LaserCut
  6
ByLayer
 62
    7
370
   -1
100
AcDbCircle
 10
15
 20
191
 40
1
  0
CIRCLE
  5
225
100
AcDbEntity
  8
LaserCut
  6
ByLayer
 62
    7
370
   -1
100
AcDbCircle
 10
286
 20
191
 40
1
  0
CIRCLE
  5
226
100
AcDbEntity
  8
LaserCut
  6
ByLayer
 62
    7
370
   -1
100
AcDbCircle
 10
112.5
 20
110
 40
1
  0
CIRCLE
  5
227
100
AcDbEntity
  8
LaserCut
  6
ByLayer
 62
    7
370
   -1
100
AcDbCircle
 10
112.5
 20
191
 40
1
  0
CIRCLE
  5
228
100
AcDbEntity
  8
LaserCut
  6
ByLayer
 62
    7
370
   -1
100
AcDbCircle
 10
188.5
 20
110
 40
1
  0
CIRCLE
  5
229
100
AcDbEntity
  8
LaserCut
  6
ByLayer
 62
    7
370
   -1
100
AcDbCircle
 10
188.5
 20
191
 40
1
  0
LINE
  5
22A
100
AcDbEntity
  8
LaserCut
  6
ByLayer
 62
    7
370
   -1
100
AcDbLine
 10
13
 20
200
 11
288
 21
200
  0
ARC
  5
22B
100
AcDbEntity
  8
LaserCut
  6
ByLayer
 62
    7
370
   -1
100
AcDbCircle
 10
288
 20
203
 40
3
100
AcDbArc
 50
270
 51
0
  0
LINE
  5
22C
100
AcDbEntity
  8
LaserCut
  6
ByLayer
 62
    7
370
   -1
100
AcDbLine
 10
291
 20
203
 11
291
 21
288
  0
ARC
  5
22D
100
AcDbEntity
  8
LaserCut
  6
ByLayer
 62
    7
370
   -1
100
AcDbCircle
 10
288
 20
288
 40
3
100
AcDbArc
 50
0
 51
90
  0
LINE
  5
22E
100
AcDbEntity
  8
LaserCut
  6
ByLayer
 62
    7
370
   -1
100
AcDbLine
 10
288
 20
291
 11
13
 21
291
  0
ARC
  5
22F
100
AcDbEntity
  8
LaserCut
  6
ByLayer
 62
    7
370
   -1
100
AcDbCircle
 10
13
 20
288
 40
3
100
AcDbArc
 50
90
 51
180
  0
LINE
  5
230
100
AcDbEntity
  8
LaserCut
  6
ByLayer
 62
    7
370
   -1
100
AcDbLine
 10
10
 20
288
 11
10
 21
203
  0
ARC
  5
231
100
AcDbEntity
  8
LaserCut
  6
ByLayer
 62
    7
370
   -1
100
AcDbCircle
 10
13
 20
203
 40
3
100
AcDbArc
 50
180
 51
270
  0
CIRCLE
  5
232
100
AcDbEntity
  8
LaserCut
  6
ByLayer
 62
    7
370
   -1
100
AcDbCircle
 10
15
 20
205
 40
1
  0
CIRCLE
  5
233
100
AcDbEntity
  8
LaserCut
  6
ByLayer
 62
    7
370
   -1
100
AcDbCircle
 10
286
 20
205
 40
1
  0
CIRCLE
  5
234
100
AcDbEntity
  8
LaserCut
  6
ByLayer
 62
    7
370
   -1
100
AcDbCircle
 10
15
 20
286
 40
1
  0
CIRCLE
  5
235
100
AcDbEntity
  8
LaserCut
  6
ByLayer
 62
    7
370
   -1
100
AcDbCircle
 10
286
 20
286
 40
1
  0
CIRCLE
  5
236
100
AcDbEntity
  8
LaserCut
  6
ByLayer
 62
    7
370
   -1
100
AcDbCircle
 10
112.5
 20
205
 40
1
  0
CIRCLE
  5
237
100
AcDbEntity
  8
LaserCut
  6
ByLayer
 62
    7
370
   -1
100
AcDbCircle
 10
112.5
 20
286
 40
1
  0
CIRCLE
  5
238
100
AcDbEntity
  8
LaserCut
  6
ByLayer
 62
    7
370
   -1
100
AcDbCircle
 10
188.5
 20
205
 40
1
  0
CIRCLE
  5
239
100
AcDbEntity
  8
LaserCut
  6
ByLayer
 62
    7
370
   -1
100
AcDbCircle
 10
188.5
 20
286
 40
1
  0
ARC
  5
23A
100
AcDbEntity
  8
LaserCut
  6
ByLayer
 62
    7
370
   -1
100
AcDbCircle
 10
288
 20
298
 40
3
100
AcDbArc
 50
270
 51
0
  0
LINE
  5
23B
100
AcDbEntity
  8
LaserCut
  6
ByLayer
 62
    7
370
   -1
100
AcDbLine
 10
291
 20
298
 11
291
 21
383
  0
ARC
  5
23C
100
AcDbEntity
  8
LaserCut
  6
ByLayer
 62
    7
370
   -1
100
AcDbCircle
 10
288
 20
383
 40
3
100
AcDbArc
 50
0
 51
90
  0
LINE
  5
23D
100
AcDbEntity
  8
LaserCut
  6
ByLayer
 62
    7
370
   -1
100
AcDbLine
 10
288
 20
386
 11
13
 21
386
  0
ARC
  5
23E
100
AcDbEntity
  8
LaserCut
  6
ByLayer
 62
    7
370
   -1
100
AcDbCircle
 10
13
 20
383
 40
3
100
AcDbArc
 50
90
 51
180
  0
LINE
  5
23F
100
AcDbEntity
  8
LaserCut
  6
ByLayer
 62
    7
370
   -1
100
AcDbLine
 10
10
 20
383
 11
10
 21
298
  0
ARC
  5
240
100
AcDbEntity
  8
LaserCut
  6
ByLayer
 62
    7
370
   -1
100
AcDbCircle
 10
13
 20
298
 40
3
100
AcDbArc
 50
180
 51
270
  0
CIRCLE
  5
241
100
AcDbEntity
  8
LaserCut
  6
ByLayer
 62
    7
370
   -1
100
AcDbCircle
 10
15
 20
300
 40
1
  0
CIRCLE
  5
242
100
AcDbEntity
  8
LaserCut
  6
ByLayer
 62
    7
370
   -1
100
AcDbCircle
 10
15
 20
381
 40
1
  0
CIRCLE
  5
243
100
AcDbEntity
  8
LaserCut
  6
ByLayer
 62
    7
370
   -1
100
AcDbCircle
 10
112.5
 20
300
 40
1
  0
CIRCLE
  5
244
100
AcDbEntity
  8
LaserCut
  6
ByLayer
 62
    7
370
   -1
100
AcDbCircle
 10
112.5
 20
381
 40
1
  0
CIRCLE
  5
245
100
AcDbEntity
  8
LaserCut
  6
ByLayer
 62
    7
370
   -1
100
AcDbCircle
 10
188.5
 20
381
 40
1
  0
LINE
  5
246
100
AcDbEntity
  8
LaserCut
  6
ByLayer
 62
    7
370
   -1
100
AcDbLine
 10
13
 20
200
 11
288
 21
200
  0
ARC
  5
247
100
AcDbEntity
  8
LaserCut
  6
ByLayer
 62
    7
370
   -1
100
AcDbCircle
 10
288
 20
203
 40
3
100
AcDbArc
 50
270
 51
0
  0
ARC
  5
248
100
AcDbEntity
  8
LaserCut
  6
ByLayer
 62
    7
370
   -1
100
AcDbCircle
 10
13
 20
203
 40
3
100
AcDbArc
 50
180
 51
270
  0
LINE
  5
249
100
AcDbEntity
  8
LaserCut
  6
ByLayer
 62
    7
370
   -1
100
AcDbLine
 10
20.2
 20
267
 11
280.8000000000001
 21
267
  0
ARC
  5
24A
100
AcDbEntity
  8
LaserCut
  6
ByLayer
 62
    7
370
   -1
100
AcDbCircle
 10
280.8000000000001
 20
267.1999999999999
 40
0.1999999999999602
100
AcDbArc
 50
270.0000000000163
 51
8.142219984546603e-12
  0
LINE
  5
24B
100
AcDbEntity
  8
LaserCut
  6
ByLayer
 62
    7
370
   -1
100
AcDbLine
 10
281
 20
267.2
 11
281
 21
280.8
  0
ARC
  5
24C
100
AcDbEntity
  8
LaserCut
  6
ByLayer
 62
    7
370
   -1
100
AcDbCircle
 10
280.8
 20
280.8
 40
0.1999999999999887
100
AcDbArc
 50
0
 51
89.99999999998371
  0
LINE
  5
24D
100
AcDbEntity
  8
LaserCut
  6
ByLayer
 62
    7
370
   -1
100
AcDbLine
 10
280.8
 20
281
 11
20.19999999999993
 21
281
  0
ARC
  5
24E
100
AcDbEntity
  8
LaserCut
  6
ByLayer
 62
    7
370
   -1
100
AcDbCircle
 10
20.19999999999999
 20
280.8
 40
0.1999999999999931
100
AcDbArc
 50
90.00000000001832
 51
180
  0
LINE
  5
24F
100
AcDbEntity
  8
LaserCut
  6
ByLayer
 62
    7
370
   -1
100
AcDbLine
 10
20
 20
280.8
 11
20
 21
267.2
  0
ARC
  5
250
100
AcDbEntity
  8
LaserCut
  6
ByLayer
 62
    7
370
   -1
100
AcDbCircle
 10
20.19999999999999
 20
267.2
 40
0.199999999999994
100
AcDbArc
 50
180
 51
270.0000000000015
  0
ARC
  5
251
100
AcDbEntity
  8
LaserCut
  6
ByLayer
 62
    7
370
   -1
100
AcDbCircle
 10
20.19999999999999
 20
267.2
 40
0.199999999999994
100
AcDbArc
 50
180.0000000000163
 51
270.0000000000015
  0
LINE
  5
252
100
AcDbEntity
  8
LaserCut
  6
ByLayer
 62
    7
370
   -1
100
AcDbLine
 10
20.2
 20
210
 11
280.8000000000001
 21
210
  0
ARC
  5
253
100
AcDbEntity
  8
LaserCut
  6
ByLayer
 62
    7
370
   -1
100
AcDbCircle
 10
280.8000000000001
 20
210.2
 40
0.1999999999999673
100
AcDbArc
 50
270.0000000000163
 51
1.22133299768199e-11
  0
LINE
  5
254
100
AcDbEntity
  8
LaserCut
  6
ByLayer
 62
    7
370
   -1
100
AcDbLine
 10
281.0000000000001
 20
210.2
 11
281
 21
223.8
  0
ARC
  5
255
100
AcDbEntity
  8
LaserCut
  6
ByLayer
 62
    7
370
   -1
100
AcDbCircle
 10
280.8
 20
223.8
 40
0.1999999999999957
100
AcDbArc
 50
359.9999999999959
 51
89.99999999998371
  0
LINE
  5
256
100
AcDbEntity
  8
LaserCut
  6
ByLayer
 62
    7
370
   -1
100
AcDbLine
 10
280.8
 20
224
 11
20.19999999999993
 21
224
  0
ARC
  5
257
100
AcDbEntity
  8
LaserCut
  6
ByLayer
 62
    7
370
   -1
100
AcDbCircle
 10
20.2
 20
223.8
 40
0.2000000000000002
100
AcDbArc
 50
90.00000000002035
 51
180.0000000000041
  0
LINE
  5
258
100
AcDbEntity
  8
LaserCut
  6
ByLayer
 62
    7
370
   -1
100
AcDbLine
 10
20
 20
223.8
 11
20
 21
210.2
  0
ARC
  5
259
100
AcDbEntity
  8
LaserCut
  6
ByLayer
 62
    7
370
   -1
100
AcDbCircle
 10
20.2
 20
210.2
 40
0.2000000000000011
100
AcDbArc
 50
179.9999999999959
 51
269.9999999999995
  0
LINE
  5
25A
100
AcDbEntity
  8
LaserCut
  6
ByLayer
 62
    7
370
   -1
100
AcDbLine
 10
20.2
 20
229
 11
280.8000000000001
 21
229
  0
ARC
  5
25B
100
AcDbEntity
  8
LaserCut
  6
ByLayer
 62
    7
370
   -1
100
AcDbCircle
 10
280.8000000000001
 20
229.2
 40
0.1999999999999673
100
AcDbArc
 50
270.0000000000163
 51
1.22133299768199e-11
  0
LINE
  5
25C
100
AcDbEntity
  8
LaserCut
  6
ByLayer
 62
    7
370
   -1
100
AcDbLine
 10
281.0000000000001
 20
229.2
 11
281
 21
242.8
  0
ARC
  5
25D
100
AcDbEntity
  8
LaserCut
  6
ByLayer
 62
    7
370
   -1
100
AcDbCircle
 10
280.8
 20
242.8
 40
0.1999999999999887
100
AcDbArc
 50
0
 51
89.99999999998371
  0
LINE
  5
25E
100
AcDbEntity
  8
LaserCut
  6
ByLayer
 62
    7
370
   -1
100
AcDbLine
 10
280.8
 20
243
 11
20.19999999999993
 21
243
  0
ARC
  5
25F
100
AcDbEntity
  8
LaserCut
  6
ByLayer
 62
    7
370
   -1
100
AcDbCircle
 10
20.19999999999999
 20
242.8
 40
0.1999999999999931
100
AcDbArc
 50
90.00000000001832
 51
180
  0
LINE
  5
260
100
AcDbEntity
  8
LaserCut
  6
ByLayer
 62
    7
370
   -1
100
AcDbLine
 10
20
 20
242.8
 11
20
 21
229.2
  0
ARC
  5
261
100
AcDbEntity
  8
LaserCut
  6
ByLayer
 62
    7
370
   -1
100
AcDbCircle
 10
20.2
 20
229.2
 40
0.2000000000000011
100
AcDbArc
 50
179.9999999999959
 51
269.9999999999995
  0
LINE
  5
262
100
AcDbEntity
  8
LaserCut
  6
ByLayer
 62
    7
370
   -1
100
AcDbLine
 10
20.2
 20
248
 11
280.8000000000001
 21
248
  0
ARC
  5
263
100
AcDbEntity
  8
LaserCut
  6
ByLayer
 62
    7
370
   -1
100
AcDbCircle
 10
280.8000000000001
 20
248.2
 40
0.1999999999999602
100
AcDbArc
 50
270.0000000000163
 51
8.142219984546603e-12
  0
LINE
  5
264
100
AcDbEntity
  8
LaserCut
  6
ByLayer
 62
    7
370
   -1
100
AcDbLine
 10
281
 20
248.2
 11
281
 21
261.8
  0
ARC
  5
265
100
AcDbEntity
  8
LaserCut
  6
ByLayer
 62
    7
370
   -1
100
AcDbCircle
 10
280.8
 20
261.8
 40
0.1999999999999887
100
AcDbArc
 50
0
 51
89.99999999998371
  0
LINE
  5
266
100
AcDbEntity
  8
LaserCut
  6
ByLayer
 62
    7
370
   -1
100
AcDbLine
 10
280.8
 20
262
 11
20.19999999999993
 21
262
  0
ARC
  5
267
100
AcDbEntity
  8
LaserCut
  6
ByLayer
 62
    7
370
   -1
100
AcDbCircle
 10
20.19999999999999
 20
261.8
 40
0.1999999999999931
100
AcDbArc
 50
90.00000000001832
 51
180
  0
LINE
  5
268
100
AcDbEntity
  8
LaserCut
  6
ByLayer
 62
    7
370
   -1
100
AcDbLine
 10
20
 20
261.8
 11
20
 21
248.2
  0
ARC
  5
269
100
AcDbEntity
  8
LaserCut
  6
ByLayer
 62
    7
370
   -1
100
AcDbCircle
 10
20.19999999999999
 20
248.2
 40
0.199999999999994
100
AcDbArc
 50
180
 51
270.0000000000015
  0
LINE
  5
26A
100
AcDbEntity
  8
LaserCut
  6
ByLayer
 62
    7
370
   -1
100
AcDbLine
 10
13
 20
295
 11
288
 21
295
  0
CIRCLE
  5
26B
100
AcDbEntity
  8
LaserCut
  6
ByLayer
 62
    7
370
   -1
100
AcDbCircle
 10
150.5
 20
340.5
 40
1
  0
LINE
  5
26C
100
AcDbEntity
  8
LaserCut
  6
ByLayer
 62
    7
370
   -1
100
AcDbLine
 10
10
 20
98
 11
10
 21
32
  0
LINE
  5
26D
100
AcDbEntity
  8
LaserCut
  6
ByLayer
 62
    7
370
   -1
100
AcDbLine
 10
10
 20
28
 11
10
 21
13
  0
LINE
  5
26E
100
AcDbEntity
  8
LaserCut
  6
ByLayer
 62
    7
370
   -1
100
AcDbLine
 10
17
 20
32
 11
10
 21
32
  0
LINE
  5
26F
100
AcDbEntity
  8
LaserCut
  6
ByLayer
 62
    7
370
   -1
100
AcDbLine
 10
10
 20
28
 11
17
 21
28
  0
ARC
  5
270
100
AcDbEntity
  8
LaserCut
  6
ByLayer
 62
    7
370
   -1
100
AcDbCircle
 10
17
 20
35
 40
3
100
AcDbArc
 50
270
 51
340.5287793655094
  0
ARC
  5
271
100
AcDbEntity
  8
LaserCut
  6
ByLayer
 62
    7
370
   -1
100
AcDbCircle
 10
22.65685424949242
 20
33
 40
3
100
AcDbArc
 50
90
 51
160.5287793655095
  0
ARC
  5
272
100
AcDbEntity
  8
LaserCut
  6
ByLayer
 62
    7
370
   -1
100
AcDbCircle
 10
17
 20
25
 40
3
100
AcDbArc
 50
19.47122063449076
 51
90.00000000000003
  0
ARC
  5
273
100
AcDbEntity
  8
LaserCut
  6
ByLayer
 62
    7
370
   -1
100
AcDbCircle
 10
22.65685424949236
 20
27
 40
3
100
AcDbArc
 50
199.4712206344907
 51
270
  0
ARC
  5
274
100
AcDbEntity
  8
LaserCut
  6
ByLayer
 62
    7
370
   -1
100
AcDbCircle
 10
99
 20
21
 40
1
100
AcDbArc
 50
270
 51
0
  0
LINE
  5
275
100
AcDbEntity
  8
LaserCut
  6
ByLayer
 62
    7
370
   -1
100
AcDbLine
 10
100
 20
21
 11
100
 21
39
  0
ARC
  5
276
100
AcDbEntity
  8
LaserCut
  6
ByLayer
 62
    7
370
   -1
100
AcDbCircle
 10
99
 20
39
 40
1
100
AcDbArc
 50
0
 51
90
  0
ARC
  5
277
100
AcDbEntity
  8
LaserCut
  6
ByLayer
 62
    7
370
   -1
100
AcDbCircle
 10
46
 20
39
 40
1
100
AcDbArc
 50
90
 51
180
  0
LINE
  5
278
100
AcDbEntity
  8
LaserCut
  6
ByLayer
 62
    7
370
   -1
100
AcDbLine
 10
44
 20
36
 11
22.65685424949242
 21
36
  0
LINE
  5
279
100
AcDbEntity
  8
LaserCut
  6
ByLayer
 62
    7
370
   -1
100
AcDbLine
 10
45
 20
39
 11
45
 21
37
  0
ARC
  5
27A
100
AcDbEntity
  8
LaserCut
  6
ByLayer
 62
    7
370
   -1
100
AcDbCircle
 10
44
 20
37
 40
1
100
AcDbArc
 50
270
 51
0
  0
LINE
  5
27B
100
AcDbEntity
  8
LaserCut
  6
ByLayer
 62
    7
370
   -1
100
AcDbLine
 10
22.65685424949236
 20
24
 11
44
 21
24
  0
ARC
  5
27C
100
AcDbEntity
  8
LaserCut
  6
ByLayer
 62
    7
370
   -1
100
AcDbCircle
 10
44
 20
23
 40
1
100
AcDbArc
 50
0
 51
90
  0
LINE
  5
27D
100
AcDbEntity
  8
LaserCut
  6
ByLayer
 62
    7
370
   -1
100
AcDbLine
 10
45
 20
23
 11
45
 21
21
  0
ARC
  5
27E
100
AcDbEntity
  8
LaserCut
  6
ByLayer
 62
    7
370
   -1
100
AcDbCircle
 10
46
 20
21
 40
1
100
AcDbArc
 50
180
 51
270
  0
ARC
  5
27F
100
AcDbEntity
  8
LaserCut
  6
ByLayer
 62
    7
370
   -1
100
AcDbCircle
 10
33
 20
306
 40
1
100
AcDbArc
 50
270
 51
0
  0
LINE
  5
280
100
AcDbEntity
  8
LaserCut
  6
ByLayer
 62
    7
370
   -1
100
AcDbLine
 10
34
 20
306
 11
34
 21
375
  0
ARC
  5
281
100
AcDbEntity
  8
LaserCut
  6
ByLayer
 62
    7
370
   -1
100
AcDbCircle
 10
33
 20
375
 40
1
100
AcDbArc
 50
0
 51
90
  0
ARC
  5
282
100
AcDbEntity
  8
LaserCut
  6
ByLayer
 62
    7
370
   -1
100
AcDbCircle
 10
21
 20
375
 40
1
100
AcDbArc
 50
90
 51
180
  0
LINE
  5
283
100
AcDbEntity
  8
LaserCut
  6
ByLayer
 62
    7
370
   -1
100
AcDbLine
 10
20
 20
375
 11
20
 21
306
  0
ARC
  5
284
100
AcDbEntity
  8
LaserCut
  6
ByLayer
 62
    7
370
   -1
100
AcDbCircle
 10
21
 20
306
 40
1
100
AcDbArc
 50
180
 51
270
  0
LINE
  5
285
100
AcDbEntity
  8
LaserCut
  6
ByLayer
 62
    7
370
   -1
100
AcDbLine
 10
40
 20
305
 11
52
 21
305
  0
ARC
  5
286
100
AcDbEntity
  8
LaserCut
  6
ByLayer
 62
    7
370
   -1
100
AcDbCircle
 10
52
 20
306
 40
1
100
AcDbArc
 50
270
 51
0
  0
LINE
  5
287
100
AcDbEntity
  8
LaserCut
  6
ByLayer
 62
    7
370
   -1
100
AcDbLine
 10
53
 20
306
 11
53
 21
375
  0
ARC
  5
288
100
AcDbEntity
  8
LaserCut
  6
ByLayer
 62
    7
370
   -1
100
AcDbCircle
 10
52
 20
375
 40
1
100
AcDbArc
 50
0
 51
90
  0
LINE
  5
289
100
AcDbEntity
  8
LaserCut
  6
ByLayer
 62
    7
370
   -1
100
AcDbLine
 10
52
 20
376
 11
40
 21
376
  0
ARC
  5
28A
100
AcDbEntity
  8
LaserCut
  6
ByLayer
 62
    7
370
   -1
100
AcDbCircle
 10
40
 20
375
 40
1
100
AcDbArc
 50
90
 51
180
  0
LINE
  5
28B
100
AcDbEntity
  8
LaserCut
  6
ByLayer
 62
    7
370
   -1
100
AcDbLine
 10
39
 20
375
 11
39
 21
306
  0
ARC
  5
28C
100
AcDbEntity
  8
LaserCut
  6
ByLayer
 62
    7
370
   -1
100
AcDbCircle
 10
40
 20
306
 40
1
100
AcDbArc
 50
180
 51
270
  0
LINE
  5
28D
100
AcDbEntity
  8
LaserCut
  6
ByLayer
 62
    7
370
   -1
100
AcDbLine
 10
59
 20
305
 11
71
 21
305
  0
ARC
  5
28E
100
AcDbEntity
  8
LaserCut
  6
ByLayer
 62
    7
370
   -1
100
AcDbCircle
 10
71
 20
306
 40
1
100
AcDbArc
 50
270
 51
0
  0
LINE
  5
28F
100
AcDbEntity
  8
LaserCut
  6
ByLayer
 62
    7
370
   -1
100
AcDbLine
 10
72
 20
306
 11
72
 21
375
  0
ARC
  5
290
100
AcDbEntity
  8
LaserCut
  6
ByLayer
 62
    7
370
   -1
100
AcDbCircle
 10
71
 20
375
 40
1
100
AcDbArc
 50
0
 51
90
  0
LINE
  5
291
100
AcDbEntity
  8
LaserCut
  6
ByLayer
 62
    7
370
   -1
100
AcDbLine
 10
71
 20
376
 11
59
 21
376
  0
ARC
  5
292
100
AcDbEntity
  8
LaserCut
  6
ByLayer
 62
    7
370
   -1
100
AcDbCircle
 10
59
 20
375
 40
1
100
AcDbArc
 50
90
 51
180
  0
LINE
  5
293
100
AcDbEntity
  8
LaserCut
  6
ByLayer
 62
    7
370
   -1
100
AcDbLine
 10
58
 20
375
 11
58
 21
306
  0
ARC
  5
294
100
AcDbEntity
  8
LaserCut
  6
ByLayer
 62
    7
370
   -1
100
AcDbCircle
 10
59
 20
306
 40
1
100
AcDbArc
 50
180
 51
270
  0
LINE
  5
295
100
AcDbEntity
  8
LaserCut
  6
ByLayer
 62
    7
370
   -1
100
AcDbLine
 10
78
 20
305
 11
90
 21
305
  0
ARC
  5
296
100
AcDbEntity
  8
LaserCut
  6
ByLayer
 62
    7
370
   -1
100
AcDbCircle
 10
90
 20
306
 40
1
100
AcDbArc
 50
270
 51
0
  0
LINE
  5
297
100
AcDbEntity
  8
LaserCut
  6
ByLayer
 62
    7
370
   -1
100
AcDbLine
 10
91
 20
306
 11
91
 21
375
  0
ARC
  5
298
100
AcDbEntity
  8
LaserCut
  6
ByLayer
 62
    7
370
   -1
100
AcDbCircle
 10
90
 20
375
 40
1
100
AcDbArc
 50
0
 51
90
  0
LINE
  5
299
100
AcDbEntity
  8
LaserCut
  6
ByLayer
 62
    7
370
   -1
100
AcDbLine
 10
90
 20
376
 11
78
 21
376
  0
ARC
  5
29A
100
AcDbEntity
  8
LaserCut
  6
ByLayer
 62
    7
370
   -1
100
AcDbCircle
 10
78
 20
375
 40
1
100
AcDbArc
 50
90
 51
180
  0
LINE
  5
29B
100
AcDbEntity
  8
LaserCut
  6
ByLayer
 62
    7
370
   -1
100
AcDbLine
 10
77
 20
375
 11
77
 21
306
  0
ARC
  5
29C
100
AcDbEntity
  8
LaserCut
  6
ByLayer
 62
    7
370
   -1
100
AcDbCircle
 10
78
 20
306
 40
1
100
AcDbArc
 50
180
 51
270
  0
LINE
  5
29D
100
AcDbEntity
  8
LaserCut
  6
ByLayer
 62
    7
370
   -1
100
AcDbLine
 10
97
 20
305
 11
109
 21
305
  0
ARC
  5
29E
100
AcDbEntity
  8
LaserCut
  6
ByLayer
 62
    7
370
   -1
100
AcDbCircle
 10
109
 20
306
 40
1
100
AcDbArc
 50
270
 51
0
  0
LINE
  5
29F
100
AcDbEntity
  8
LaserCut
  6
ByLayer
 62
    7
370
   -1
100
AcDbLine
 10
110
 20
306
 11
110
 21
375
  0
ARC
  5
2A0
100
AcDbEntity
  8
LaserCut
  6
ByLayer
 62
    7
370
   -1
100
AcDbCircle
 10
109
 20
375
 40
1
100
AcDbArc
 50
0
 51
90
  0
LINE
  5
2A1
100
AcDbEntity
  8
LaserCut
  6
ByLayer
 62
    7
370
   -1
100
AcDbLine
 10
109
 20
376
 11
97
 21
376
  0
ARC
  5
2A2
100
AcDbEntity
  8
LaserCut
  6
ByLayer
 62
    7
370
   -1
100
AcDbCircle
 10
97
 20
375
 40
1
100
AcDbArc
 50
90
 51
180
  0
LINE
  5
2A3
100
AcDbEntity
  8
LaserCut
  6
ByLayer
 62
    7
370
   -1
100
AcDbLine
 10
96
 20
375
 11
96
 21
306
  0
ARC
  5
2A4
100
AcDbEntity
  8
LaserCut
  6
ByLayer
 62
    7
370
   -1
100
AcDbCircle
 10
97
 20
306
 40
1
100
AcDbArc
 50
180
 51
270
  0
LINE
  5
2A5
100
AcDbEntity
  8
LaserCut
  6
ByLayer
 62
    7
370
   -1
100
AcDbLine
 10
116
 20
305
 11
128
 21
305
  0
ARC
  5
2A6
100
AcDbEntity
  8
LaserCut
  6
ByLayer
 62
    7
370
   -1
100
AcDbCircle
 10
128
 20
306
 40
1
100
AcDbArc
 50
270
 51
0
  0
LINE
  5
2A7
100
AcDbEntity
  8
LaserCut
  6
ByLayer
 62
    7
370
   -1
100
AcDbLine
 10
129
 20
306
 11
129
 21
375
  0
ARC
  5
2A8
100
AcDbEntity
  8
LaserCut
  6
ByLayer
 62
    7
370
   -1
100
AcDbCircle
 10
128
 20
375
 40
1
100
AcDbArc
 50
0
 51
90
  0
LINE
  5
2A9
100
AcDbEntity
  8
LaserCut
  6
ByLayer
 62
    7
370
   -1
100
AcDbLine
 10
128
 20
376
 11
116
 21
376
  0
ARC
  5
2AA
100
AcDbEntity
  8
LaserCut
  6
ByLayer
 62
    7
370
   -1
100
AcDbCircle
 10
116
 20
375
 40
1
100
AcDbArc
 50
90
 51
180
  0
LINE
  5
2AB
100
AcDbEntity
  8
LaserCut
  6
ByLayer
 62
    7
370
   -1
100
AcDbLine
 10
115
 20
375
 11
115
 21
306
  0
ARC
  5
2AC
100
AcDbEntity
  8
LaserCut
  6
ByLayer
 62
    7
370
   -1
100
AcDbCircle
 10
116
 20
306
 40
1
100
AcDbArc
 50
180
 51
270
  0
LINE
  5
2AD
100
AcDbEntity
  8
LaserCut
  6
ByLayer
 62
    7
370
   -1
100
AcDbLine
 10
173
 20
305
 11
185
 21
305
  0
ARC
  5
2AE
100
AcDbEntity
  8
LaserCut
  6
ByLayer
 62
    7
370
   -1
100
AcDbCircle
 10
185
 20
306
 40
1
100
AcDbArc
 50
270
 51
0
  0
LINE
  5
2AF
100
AcDbEntity
  8
LaserCut
  6
ByLayer
 62
    7
370
   -1
100
AcDbLine
 10
186
 20
306
 11
186
 21
375
  0
ARC
  5
2B0
100
AcDbEntity
  8
LaserCut
  6
ByLayer
 62
    7
370
   -1
100
AcDbCircle
 10
185
 20
375
 40
1
100
AcDbArc
 50
0
 51
90
  0
LINE
  5
2B1
100
AcDbEntity
  8
LaserCut
  6
ByLayer
 62
    7
370
   -1
100
AcDbLine
 10
185
 20
376
 11
173
 21
376
  0
ARC
  5
2B2
100
AcDbEntity
  8
LaserCut
  6
ByLayer
 62
    7
370
   -1
100
AcDbCircle
 10
173
 20
375
 40
1
100
AcDbArc
 50
90
 51
180
  0
LINE
  5
2B3
100
AcDbEntity
  8
LaserCut
  6
ByLayer
 62
    7
370
   -1
100
AcDbLine
 10
172
 20
375
 11
172
 21
306
  0
ARC
  5
2B4
100
AcDbEntity
  8
LaserCut
  6
ByLayer
 62
    7
370
   -1
100
AcDbCircle
 10
173
 20
306
 40
1
100
AcDbArc
 50
180
 51
270
  0
LINE
  5
2B5
100
AcDbEntity
  8
LaserCut
  6
ByLayer
 62
    7
370
   -1
100
AcDbLine
 10
192
 20
305
 11
204
 21
305
  0
ARC
  5
2B6
100
AcDbEntity
  8
LaserCut
  6
ByLayer
 62
    7
370
   -1
100
AcDbCircle
 10
204
 20
306
 40
1
100
AcDbArc
 50
270
 51
0
  0
LINE
  5
2B7
100
AcDbEntity
  8
LaserCut
  6
ByLayer
 62
    7
370
   -1
100
AcDbLine
 10
205
 20
306
 11
205
 21
375
  0
ARC
  5
2B8
100
AcDbEntity
  8
LaserCut
  6
ByLayer
 62
    7
370
   -1
100
AcDbCircle
 10
204
 20
375
 40
1
100
AcDbArc
 50
0
 51
90
  0
LINE
  5
2B9
100
AcDbEntity
  8
LaserCut
  6
ByLayer
 62
    7
370
   -1
100
AcDbLine
 10
204
 20
376
 11
192
 21
376
  0
ARC
  5
2BA
100
AcDbEntity
  8
LaserCut
  6
ByLayer
 62
    7
370
   -1
100
AcDbCircle
 10
192
 20
375
 40
1
100
AcDbArc
 50
90
 51
180
  0
LINE
  5
2BB
100
AcDbEntity
  8
LaserCut
  6
ByLayer
 62
    7
370
   -1
100
AcDbLine
 10
191
 20
375
 11
191
 21
306
  0
ARC
  5
2BC
100
AcDbEntity
  8
LaserCut
  6
ByLayer
 62
    7
370
   -1
100
AcDbCircle
 10
192
 20
306
 40
1
100
AcDbArc
 50
180
 51
270
  0
LINE
  5
2BD
100
AcDbEntity
  8
LaserCut
  6
ByLayer
 62
    7
370
   -1
100
AcDbLine
 10
211
 20
305
 11
223
 21
305
  0
ARC
  5
2BE
100
AcDbEntity
  8
LaserCut
  6
ByLayer
 62
    7
370
   -1
100
AcDbCircle
 10
223
 20
306
 40
1
100
AcDbArc
 50
270
 51
0
  0
LINE
  5
2BF
100
AcDbEntity
  8
LaserCut
  6
ByLayer
 62
    7
370
   -1
100
AcDbLine
 10
224
 20
306
 11
224
 21
375
  0
ARC
  5
2C0
100
AcDbEntity
  8
LaserCut
  6
ByLayer
 62
    7
370
   -1
100
AcDbCircle
 10
223
 20
375
 40
1
100
AcDbArc
 50
0
 51
90
  0
LINE
  5
2C1
100
AcDbEntity
  8
LaserCut
  6
ByLayer
 62
    7
370
   -1
100
AcDbLine
 10
223
 20
376
 11
211
 21
376
  0
ARC
  5
2C2
100
AcDbEntity
  8
LaserCut
  6
ByLayer
 62
    7
370
   -1
100
AcDbCircle
 10
211
 20
375
 40
1
100
AcDbArc
 50
90
 51
180
  0
LINE
  5
2C3
100
AcDbEntity
  8
LaserCut
  6
ByLayer
 62
    7
370
   -1
100
AcDbLine
 10
210
 20
375
 11
210
 21
306
  0
ARC
  5
2C4
100
AcDbEntity
  8
LaserCut
  6
ByLayer
 62
    7
370
   -1
100
AcDbCircle
 10
211
 20
306
 40
1
100
AcDbArc
 50
180
 51
270
  0
LINE
  5
2C5
100
AcDbEntity
  8
LaserCut
  6
ByLayer
 62
    7
370
   -1
100
AcDbLine
 10
230
 20
305
 11
242
 21
305
  0
ARC
  5
2C6
100
AcDbEntity
  8
LaserCut
  6
ByLayer
 62
    7
370
   -1
100
AcDbCircle
 10
242
 20
306
 40
1
100
AcDbArc
 50
270
 51
0
  0
LINE
  5
2C7
100
AcDbEntity
  8
LaserCut
  6
ByLayer
 62
    7
370
   -1
100
AcDbLine
 10
243
 20
306
 11
243
 21
375
  0
ARC
  5
2C8
100
AcDbEntity
  8
LaserCut
  6
ByLayer
 62
    7
370
   -1
100
AcDbCircle
 10
242
 20
375
 40
1
100
AcDbArc
 50
0
 51
90
  0
LINE
  5
2C9
100
AcDbEntity
  8
LaserCut
  6
ByLayer
 62
    7
370
   -1
100
AcDbLine
 10
242
 20
376
 11
230
 21
376
  0
ARC
  5
2CA
100
AcDbEntity
  8
LaserCut
  6
ByLayer
 62
    7
370
   -1
100
AcDbCircle
 10
230
 20
375
 40
1
100
AcDbArc
 50
90
 51
180
  0
LINE
  5
2CB
100
AcDbEntity
  8
LaserCut
  6
ByLayer
 62
    7
370
   -1
100
AcDbLine
 10
229
 20
375
 11
229
 21
306
  0
ARC
  5
2CC
100
AcDbEntity
  8
LaserCut
  6
ByLayer
 62
    7
370
   -1
100
AcDbCircle
 10
230
 20
306
 40
1
100
AcDbArc
 50
180
 51
270
  0
LINE
  5
2CD
100
AcDbEntity
  8
LaserCut
  6
ByLayer
 62
    7
370
   -1
100
AcDbLine
 10
249
 20
305
 11
261
 21
305
  0
ARC
  5
2CE
100
AcDbEntity
  8
LaserCut
  6
ByLayer
 62
    7
370
   -1
100
AcDbCircle
 10
261
 20
306
 40
1
100
AcDbArc
 50
270
 51
0
  0
LINE
  5
2CF
100
AcDbEntity
  8
LaserCut
  6
ByLayer
 62
    7
370
   -1
100
AcDbLine
 10
262
 20
306
 11
262
 21
375
  0
ARC
  5
2D0
100
AcDbEntity
  8
LaserCut
  6
ByLayer
 62
    7
370
   -1
100
AcDbCircle
 10
261
 20
375
 40
1
100
AcDbArc
 50
0
 51
90
  0
LINE
  5
2D1
100
AcDbEntity
  8
LaserCut
  6
ByLayer
 62
    7
370
   -1
100
AcDbLine
 10
261
 20
376
 11
249
 21
376
  0
ARC
  5
2D2
100
AcDbEntity
  8
LaserCut
  6
ByLayer
 62
    7
370
   -1
100
AcDbCircle
 10
249
 20
375
 40
1
100
AcDbArc
 50
90
 51
180
  0
LINE
  5
2D3
100
AcDbEntity
  8
LaserCut
  6
ByLayer
 62
    7
370
   -1
100
AcDbLine
 10
248
 20
375
 11
248
 21
306
  0
ARC
  5
2D4
100
AcDbEntity
  8
LaserCut
  6
ByLayer
 62
    7
370
   -1
100
AcDbCircle
 10
249
 20
306
 40
1
100
AcDbArc
 50
180
 51
270
  0
LINE
  5
2D5
100
AcDbEntity
  8
LaserCut
  6
ByLayer
 62
    7
370
   -1
100
AcDbLine
 10
268
 20
305
 11
280
 21
305
  0
ARC
  5
2D6
100
AcDbEntity
  8
LaserCut
  6
ByLayer
 62
    7
370
   -1
100
AcDbCircle
 10
280
 20
306
 40
1
100
AcDbArc
 50
270
 51
0
  0
LINE
  5
2D7
100
AcDbEntity
  8
LaserCut
  6
ByLayer
 62
    7
370
   -1
100
AcDbLine
 10
281
 20
306
 11
281
 21
375
  0
ARC
  5
2D8
100
AcDbEntity
  8
LaserCut
  6
ByLayer
 62
    7
370
   -1
100
AcDbCircle
 10
280
 20
375
 40
1
100
AcDbArc
 50
0
 51
90
  0
LINE
  5
2D9
100
AcDbEntity
  8
LaserCut
  6
ByLayer
 62
    7
370
   -1
100
AcDbLine
 10
280
 20
376
 11
268
 21
376
  0
ARC
  5
2DA
100
AcDbEntity
  8
LaserCut
  6
ByLayer
 62
    7
370
   -1
100
AcDbCircle
 10
268
 20
375
 40
1
100
AcDbArc
 50
90
 51
180
  0
LINE
  5
2DB
100
AcDbEntity
  8
LaserCut
  6
ByLayer
 62
    7
370
   -1
100
AcDbLine
 10
267
 20
375
 11
267
 21
306
  0
ARC
  5
2DC
100
AcDbEntity
  8
LaserCut
  6
ByLayer
 62
    7
370
   -1
100
AcDbCircle
 10
268
 20
306
 40
1
100
AcDbArc
 50
180
 51
270
  0
LINE
  5
2DD
100
AcDbEntity
  8
LaserCut
  6
ByLayer
 62
    7
370
   -1
100
AcDbLine
 10
135
 20
305
 11
146
 21
305
  0
ARC
  5
2DE
100
AcDbEntity
  8
LaserCut
  6
ByLayer
 62
    7
370
   -1
100
AcDbCircle
 10
146
 20
306
 40
1
100
AcDbArc
 50
270
 51
0
  0
ARC
  5
2DF
100
AcDbEntity
  8
LaserCut
  6
ByLayer
 62
    7
370
   -1
100
AcDbCircle
 10
146
 20
375
 40
1
100
AcDbArc
 50
0
 51
90
  0
LINE
  5
2E0
100
AcDbEntity
  8
LaserCut
  6
ByLayer
 62
    7
370
   -1
100
AcDbLine
 10
146
 20
376
 11
135
 21
376
  0
ARC
  5
2E1
100
AcDbEntity
  8
LaserCut
  6
ByLayer
 62
    7
370
   -1
100
AcDbCircle
 10
135
 20
375
 40
1
100
AcDbArc
 50
90
 51
180
  0
LINE
  5
2E2
100
AcDbEntity
  8
LaserCut
  6
ByLayer
 62
    7
370
   -1
100
AcDbLine
 10
134
 20
375
 11
134
 21
306
  0
ARC
  5
2E3
100
AcDbEntity
  8
LaserCut
  6
ByLayer
 62
    7
370
   -1
100
AcDbCircle
 10
135
 20
306
 40
1
100
AcDbArc
 50
180
 51
270
  0
LINE
  5
2E4
100
AcDbEntity
  8
LaserCut
  6
ByLayer
 62
    7
370
   -1
100
AcDbLine
 10
155
 20
305
 11
166
 21
305
  0
ARC
  5
2E5
100
AcDbEntity
  8
LaserCut
  6
ByLayer
 62
    7
370
   -1
100
AcDbCircle
 10
166
 20
306
 40
1
100
AcDbArc
 50
270
 51
0
  0
LINE
  5
2E6
100
AcDbEntity
  8
LaserCut
  6
ByLayer
 62
    7
370
   -1
100
AcDbLine
 10
167
 20
306
 11
167
 21
375
  0
ARC
  5
2E7
100
AcDbEntity
  8
LaserCut
  6
ByLayer
 62
    7
370
   -1
100
AcDbCircle
 10
166
 20
375
 40
1
100
AcDbArc
 50
0
 51
90
  0
LINE
  5
2E8
100
AcDbEntity
  8
LaserCut
  6
ByLayer
 62
    7
370
   -1
100
AcDbLine
 10
166
 20
376
 11
155
 21
376
  0
ARC
  5
2E9
100
AcDbEntity
  8
LaserCut
  6
ByLayer
 62
    7
370
   -1
100
AcDbCircle
 10
155
 20
375
 40
1
100
AcDbArc
 50
90
 51
180
  0
ARC
  5
2EA
100
AcDbEntity
  8
LaserCut
  6
ByLayer
 62
    7
370
   -1
100
AcDbCircle
 10
155
 20
306
 40
1
100
AcDbArc
 50
180
 51
270
  0
CIRCLE
  5
2EB
100
AcDbEntity
  8
LaserCut
  6
ByLayer
 62
    7
370
   -1
100
AcDbCircle
 10
150.5
 20
55.5
 40
1
  0
CIRCLE
  5
2EC
100
AcDbEntity
  8
LaserCut
  6
ByLayer
 62
    7
370
   -1
100
AcDbCircle
 10
30
 20
20
 40
1
  0
CIRCLE
  5
2ED
100
AcDbEntity
  8
LaserCut
  6
ByLayer
 62
    7
370
   -1
100
AcDbCircle
 10
30
 20
40
 40
1
  0
CIRCLE
  5
2EE
100
AcDbEntity
  8
LaserCut
  6
ByLayer
 62
    7
370
   -1
100
AcDbCircle
 10
105
 20
30
 40
1
  0
LINE
  5
2EF
100
AcDbEntity
  8
LaserCut
  6
ByLayer
 62
    7
370
   -1
100
AcDbLine
 10
147
 20
345
 11
147
 21
375
  0
ARC
  5
2F0
100
AcDbEntity
  8
LaserCut
  6
ByLayer
 62
    7
370
   -1
100
AcDbCircle
 10
145
 20
345
 40
2
100
AcDbArc
 50
270
 51
0
  0
LINE
  5
2F1
100
AcDbEntity
  8
LaserCut
  6
ByLayer
 62
    7
370
   -1
100
AcDbLine
 10
154
 20
375
 11
154
 21
345
  0
ARC
  5
2F2
100
AcDbEntity
  8
LaserCut
  6
ByLayer
 62
    7
370
   -1
100
AcDbCircle
 10
156
 20
345
 40
2
100
AcDbArc
 50
180
 51
270
  0
LINE
  5
2F3
100
AcDbEntity
  8
LaserCut
  6
ByLayer
 62
    7
370
   -1
100
AcDbLine
 10
154
 20
336
 11
154
 21
306
  0
ARC
  5
2F4
100
AcDbEntity
  8
LaserCut
  6
ByLayer
 62
    7
370
   -1
100
AcDbCircle
 10
156
 20
336
 40
2
100
AcDbArc
 50
90
 51
180
  0
LINE
  5
2F5
100
AcDbEntity
  8
LaserCut
  6
ByLayer
 62
    7
370
   -1
100
AcDbLine
 10
147
 20
306
 11
147
 21
336
  0
ARC
  5
2F6
100
AcDbEntity
  8
LaserCut
  6
ByLayer
 62
    7
370
   -1
100
AcDbCircle
 10
145
 20
336
 40
2
100
AcDbArc
 50
0
 51
90
  0
LINE
  5
2F7
100
AcDbEntity
  8
LaserCut
  6
ByLayer
 62
    7
370
   -1
100
AcDbLine
 10
145
 20
343
 11
145
 21
343
  0
ARC
  5
2F8
100
AcDbEntity
  8
LaserCut
  6
ByLayer
 62
    7
370
   -1
100
AcDbCircle
 10
145
 20
341
 40
2
100
AcDbArc
 50
90
 51
180
  0
LINE
  5
2F9
100
AcDbEntity
  8
LaserCut
  6
ByLayer
 62
    7
370
   -1
100
AcDbLine
 10
145
 20
338
 11
145
 21
338
  0
LINE
  5
2FA
100
AcDbEntity
  8
LaserCut
  6
ByLayer
 62
    7
370
   -1
100
AcDbLine
 10
143
 20
341
 11
143
 21
340
  0
ARC
  5
2FB
100
AcDbEntity
  8
LaserCut
  6
ByLayer
 62
    7
370
   -1
100
AcDbCircle
 10
145
 20
340
 40
2
100
AcDbArc
 50
180
 51
270
  0
LINE
  5
2FC
100
AcDbEntity
  8
LaserCut
  6
ByLayer
 62
    7
370
   -1
100
AcDbLine
 10
156
 20
338
 11
156
 21
338
  0
ARC
  5
2FD
100
AcDbEntity
  8
LaserCut
  6
ByLayer
 62
    7
370
   -1
100
AcDbCircle
 10
156
 20
340
 40
2
100
AcDbArc
 50
270
 51
0
  0
LINE
  5
2FE
100
AcDbEntity
  8
LaserCut
  6
ByLayer
 62
    7
370
   -1
100
AcDbLine
 10
156
 20
343
 11
156
 21
343
  0
LINE
  5
2FF
100
AcDbEntity
  8
LaserCut
  6
ByLayer
 62
    7
370
   -1
100
AcDbLine
 10
158
 20
340
 11
158
 21
341
  0
ARC
  5
300
100
AcDbEntity
  8
LaserCut
  6
ByLayer
 62
    7
370
   -1
100
AcDbCircle
 10
156
 20
341
 40
2
100
AcDbArc
 50
0
 51
90
  0
LINE
  5
301
100
AcDbEntity
  8
LaserCut
  6
ByLayer
 62
    7
370
   -1
100
AcDbLine
 10
284
 20
32
 11
291
 21
32
  0
LINE
  5
302
100
AcDbEntity
  8
LaserCut
  6
ByLayer
 62
    7
370
   -1
100
AcDbLine
 10
291
 20
28
 11
284
 21
28
  0
ARC
  5
303
100
AcDbEntity
  8
LaserCut
  6
ByLayer
 62
    7
370
   -1
100
AcDbCircle
 10
284
 20
35
 40
3
100
AcDbArc
 50
199.4712206344906
 51
270
  0
ARC
  5
304
100
AcDbEntity
  8
LaserCut
  6
ByLayer
 62
    7
370
   -1
100
AcDbCircle
 10
278.3431457505076
 20
33
 40
3
100
AcDbArc
 50
19.47122063449048
 51
90
  0
ARC
  5
305
100
AcDbEntity
  8
LaserCut
  6
ByLayer
 62
    7
370
   -1
100
AcDbCircle
 10
284
 20
25
 40
3
100
AcDbArc
 50
89.99999999999997
 51
160.5287793655093
  0
ARC
  5
306
100
AcDbEntity
  8
LaserCut
  6
ByLayer
 62
    7
370
   -1
100
AcDbCircle
 10
278.3431457505076
 20
27
 40
3
100
AcDbArc
 50
270
 51
340.5287793655093
  0
ARC
  5
307
100
AcDbEntity
  8
LaserCut
  6
ByLayer
 62
    7
370
   -1
100
AcDbCircle
 10
202
 20
21
 40
1
100
AcDbArc
 50
180
 51
270
  0
LINE
  5
308
100
AcDbEntity
  8
LaserCut
  6
ByLayer
 62
    7
370
   -1
100
AcDbLine
 10
201
 20
21
 11
201
 21
39
  0
ARC
  5
309
100
AcDbEntity
  8
LaserCut
  6
ByLayer
 62
    7
370
   -1
100
AcDbCircle
 10
202
 20
39
 40
1
100
AcDbArc
 50
90
 51
180
  0
ARC
  5
30A
100
AcDbEntity
  8
LaserCut
  6
ByLayer
 62
    7
370
   -1
100
AcDbCircle
 10
255
 20
39
 40
1
100
AcDbArc
 50
0
 51
90
  0
LINE
  5
30B
100
AcDbEntity
  8
LaserCut
  6
ByLayer
 62
    7
370
   -1
100
AcDbLine
 10
257
 20
36
 11
278.3431457505076
 21
36
  0
LINE
  5
30C
100
AcDbEntity
  8
LaserCut
  6
ByLayer
 62
    7
370
   -1
100
AcDbLine
 10
256
 20
39
 11
256
 21
37
  0
ARC
  5
30D
100
AcDbEntity
  8
LaserCut
  6
ByLayer
 62
    7
370
   -1
100
AcDbCircle
 10
257
 20
37
 40
1
100
AcDbArc
 50
180
 51
270
  0
LINE
  5
30E
100
AcDbEntity
  8
LaserCut
  6
ByLayer
 62
    7
370
   -1
100
AcDbLine
 10
278.3431457505076
 20
24
 11
257
 21
24
  0
ARC
  5
30F
100
AcDbEntity
  8
LaserCut
  6
ByLayer
 62
    7
370
   -1
100
AcDbCircle
 10
257
 20
23
 40
1
100
AcDbArc
 50
90
 51
180
  0
LINE
  5
310
100
AcDbEntity
  8
LaserCut
  6
ByLayer
 62
    7
370
   -1
100
AcDbLine
 10
256
 20
23
 11
256
 21
21
  0
ARC
  5
311
100
AcDbEntity
  8
LaserCut
  6
ByLayer
 62
    7
370
   -1
100
AcDbCircle
 10
255
 20
21
 40
1
100
AcDbArc
 50
270
 51
0
  0
CIRCLE
  5
312
100
AcDbEntity
  8
LaserCut
  6
ByLayer
 62
    7
370
   -1
100
AcDbCircle
 10
271
 20
20
 40
1
  0
CIRCLE
  5
313
100
AcDbEntity
  8
LaserCut
  6
ByLayer
 62
    7
370
   -1
100
AcDbCircle
 10
271
 20
40
 40
1
  0
CIRCLE
  5
314
100
AcDbEntity
  8
LaserCut
  6
ByLayer
 62
    7
370
   -1
100
AcDbCircle
 10
196
 20
30
 40
1
  0
ARC
  5
315
100
AcDbEntity
  8
LaserCut
  6
ByLayer
 62
    7
370
   -1
100
AcDbCircle
 10
317
 20
91.99999999999993
 40
3
100
AcDbArc
 50
90
 51
180
  0
LINE
  5
316
100
AcDbEntity
  8
LaserCut
  6
ByLayer
 62
    7
370
   -1
100
AcDbLine
 10
323
 20
94.99999999999993
 11
317
 21
94.99999999999993
  0
ARC
  5
317
100
AcDbEntity
  8
LaserCut
  6
ByLayer
 62
    7
370
   -1
100
AcDbCircle
 10
323
 20
91.99999999999993
 40
3
100
AcDbArc
 50
360
 51
90
  0
LINE
  5
318
100
AcDbEntity
  8
LaserCut
  6
ByLayer
 62
    7
370
   -1
100
AcDbLine
 10
326
 20
75.99999999999993
 11
326
 21
91.99999999999993
  0
ARC
  5
319
100
AcDbEntity
  8
LaserCut
  6
ByLayer
 62
    7
370
   -1
100
AcDbCircle
 10
327
 20
75.99999999999991
 40
1
100
AcDbArc
 50
180
 51
270
  0
LINE
  5
31A
100
AcDbEntity
  8
LaserCut
  6
ByLayer
 62
    7
370
   -1
100
AcDbLine
 10
329
 20
74.99999999999991
 11
327
 21
74.99999999999991
  0
ARC
  5
31B
100
AcDbEntity
  8
LaserCut
  6
ByLayer
 62
    7
370
   -1
100
AcDbCircle
 10
329
 20
73.99999999999991
 40
1
100
AcDbArc
 50
360
 51
90
  0
ARC
  5
31C
100
AcDbEntity
  8
LaserCut
  6
ByLayer
 62
    7
370
   -1
100
AcDbCircle
 10
311
 20
73.99999999999993
 40
1
100
AcDbArc
 50
90
 51
180
  0
LINE
  5
31D
100
AcDbEntity
  8
LaserCut
  6
ByLayer
 62
    7
370
   -1
100
AcDbLine
 10
313
 20
74.99999999999993
 11
311
 21
74.99999999999993
  0
LINE
  5
31E
100
AcDbEntity
  8
LaserCut
  6
ByLayer
 62
    7
370
   -1
100
AcDbLine
 10
314
 20
91.99999999999993
 11
314
 21
75.99999999999993
  0
ARC
  5
31F
100
AcDbEntity
  8
LaserCut
  6
ByLayer
 62
    7
370
   -1
100
AcDbCircle
 10
313
 20
75.99999999999993
 40
1
100
AcDbArc
 50
270
 51
360
  0
ARC
  5
320
100
AcDbEntity
  8
LaserCut
  6
ByLayer
 62
    7
370
   -1
100
AcDbCircle
 10
337
 20
106.9999999999999
 40
3
100
AcDbArc
 50
360
 51
90
  0
LINE
  5
321
100
AcDbEntity
  8
LaserCut
  6
ByLayer
 62
    7
370
   -1
100
AcDbLine
 10
337
 20
109.9999999999999
 11
303
 21
109.9999999999999
  0
ARC
  5
322
100
AcDbEntity
  8
LaserCut
  6
ByLayer
 62
    7
370
   -1
100
AcDbCircle
 10
303
 20
106.9999999999999
 40
3
100
AcDbArc
 50
90
 51
180
  0
CIRCLE
  5
323
100
AcDbEntity
  8
LaserCut
  6
ByLayer
 62
    7
370
   -1
100
AcDbCircle
 10
310
 20
89.99999999999993
 40
1
  0
CIRCLE
  5
324
100
AcDbEntity
  8
LaserCut
  6
ByLayer
 62
    7
370
   -1
100
AcDbCircle
 10
330
 20
89.99999999999993
 40
1
  0
CIRCLE
  5
325
100
AcDbEntity
  8
LaserCut
  6
ByLayer
 62
    7
370
   -1
100
AcDbCircle
 10
320
 20
14.99999999999993
 40
1
  0
ARC
  5
326
100
AcDbEntity
  8
LaserCut
  6
ByLayer
 62
    7
370
   -1
100
AcDbCircle
 10
329
 20
25.99999999999993
 40
1
100
AcDbArc
 50
270
 51
360
  0
LINE
  5
327
100
AcDbEntity
  8
LaserCut
  6
ByLayer
 62
    7
370
   -1
100
AcDbLine
 10
311
 20
24.99999999999993
 11
329
 21
24.99999999999993
  0
ARC
  5
328
100
AcDbEntity
  8
LaserCut
  6
ByLayer
 62
    7
370
   -1
100
AcDbCircle
 10
311
 20
25.99999999999993
 40
1
100
AcDbArc
 50
180
 51
270
  0
CIRCLE
  5
329
100
AcDbEntity
  8
LaserCut
  6
ByLayer
 62
    7
370
   -1
100
AcDbCircle
 10
320
 20
19.99999999999993
 40
1
  0
LINE
  5
32A
100
AcDbEntity
  8
LaserCut
  6
ByLayer
 62
    7
370
   -1
100
AcDbLine
 10
291
 20
32
 11
291
 21
98
  0
LINE
  5
32B
100
AcDbEntity
  8
LaserCut
  6
ByLayer
 62
    7
370
   -1
100
AcDbLine
 10
291
 20
13
 11
291
 21
28
  0
ARC
  5
32C
100
AcDbEntity
  8
LaserCut
  6
ByLayer
 62
  256
370
   -1
100
AcDbCircle
 10
80
 20
30
 40
13
100
AcDbArc
 50
230.2848627681732
 51
309.7151372318269
  0
LINE
  5
32D
100
AcDbEntity
  8
LaserCut
  6
ByLayer
 62
    7
370
   -1
100
AcDbLine
 10
46
 20
20
 11
71.69337613708177
 21
20
  0
LINE
  5
32E
100
AcDbEntity
  8
LaserCut
  6
ByLayer
 62
    7
370
   -1
100
AcDbLine
 10
88.30662386291797
 20
19.99999999999999
 11
99
 21
20
  0
LINE
  5
32F
100
AcDbEntity
  8
LaserCut
  6
ByLayer
 62
    7
370
   -1
100
AcDbLine
 10
99
 20
40
 11
88.30662386291846
 21
40
  0
LINE
  5
330
100
AcDbEntity
  8
LaserCut
  6
ByLayer
 62
    7
370
   -1
100
AcDbLine
 10
71.6933761370818
 20
40.00000000000001
 11
46
 21
40
  0
ARC
  5
331
100
AcDbEntity
  8
LaserCut
  6
ByLayer
 62
  256
370
   -1
100
AcDbCircle
 10
80
 20
30
 40
13
100
AcDbArc
 50
50.28486276817443
 51
129.715137231826
  0
ARC
  5
332
100
AcDbEntity
  8
LaserCut
  6
ByLayer
 62
  256
370
   -1
100
AcDbCircle
 10
221
 20
30
 40
13
100
AcDbArc
 50
230.2848627681731
 51
309.7151372318268
  0
ARC
  5
333
100
AcDbEntity
  8
LaserCut
  6
ByLayer
 62
  256
370
   -1
100
AcDbCircle
 10
221
 20
30
 40
13
100
AcDbArc
 50
50.28486276817397
 51
129.7151372318256
  0
LINE
  5
334
100
AcDbEntity
  8
LaserCut
  6
ByLayer
 62
    7
370
   -1
100
AcDbLine
 10
202
 20
40
 11
212.6933761370822
 21
40.00000000000001
  0
LINE
  5
335
100
AcDbEntity
  8
LaserCut
  6
ByLayer
 62
    7
370
   -1
100
AcDbLine
 10
229.3066238629174
 20
39.99999999999997
 11
255
 21
40
  0
LINE
  5
336
100
AcDbEntity
  8
LaserCut
  6
ByLayer
 62
    7
370
   -1
100
AcDbLine
 10
212.6933761370819
 20
20
 11
202
 21
20
  0
LINE
  5
337
100
AcDbEntity
  8
LaserCut
  6
ByLayer
 62
    7
370
   -1
100
AcDbLine
 10
255
 20
20
 11
229.3066238629181
 21
19.99999999999999
  0
LINE
  5
338
100
AcDbEntity
  8
LaserCut
  6
ByLayer
 62
    7
370
   -1
100
AcDbLine
 10
310
 20
73.99999999999993
 11
310
 21
48.30662386291866
  0
LINE
  5
339
100
AcDbEntity
  8
LaserCut
  6
ByLayer
 62
    7
370
   -1
100
AcDbLine
 10
310
 20
31.69337613708225
 11
310
 21
25.99999999999993
  0
LINE
  5
33A
100
AcDbEntity
  8
LaserCut
  6
ByLayer
 62
    7
370
   -1
100
AcDbLine
 10
330
 20
48.30662386291684
 11
330
 21
73.99999999999991
  0
LINE
  5
33B
100
AcDbEntity
  8
LaserCut
  6
ByLayer
 62
    7
370
   -1
100
AcDbLine
 10
330
 20
25.99999999999993
 11
330
 21
31.69337613707964
  0
ARC
  5
33C
100
AcDbEntity
  8
LaserCut
  6
ByLayer
 62
  256
370
   -1
100
AcDbCircle
 10
320
 20
40
 40
13
100
AcDbArc
 50
140.2848627681689
 51
219.7151372318307
  0
ARC
  5
33D
100
AcDbEntity
  8
LaserCut
  6
ByLayer
 62
  256
370
   -1
100
AcDbCircle
 10
320
 20
40
 40
13
100
AcDbArc
 50
320.2848627681836
 51
39.71513723183415
  0
LINE
  5
33E
100
AcDbEntity
  8
LaserCut
  6
ByLayer
 62
    7
370
   -1
100
AcDbLine
 10
300
 20
106.9999999999999
 11
300
 21
19.99999999999993
  0
ARC
  5
33F
100
AcDbEntity
  8
LaserCut
  6
ByLayer
 62
  256
370
   -1
100
AcDbCircle
 10
310
 20
19.99999999999993
 40
10
100
AcDbArc
 50
180
 51
270
  0
LINE
  5
340
100
AcDbEntity
  8
LaserCut
  6
ByLayer
 62
    7
370
   -1
100
AcDbLine
 10
310
 20
9.999999999999929
 11
330
 21
9.999999999999929
  0
LINE
  5
341
100
AcDbEntity
  8
LaserCut
  6
ByLayer
 62
    7
370
   -1
100
AcDbLine
 10
340
 20
19.99999999999993
 11
340
 21
106.9999999999999
  0
ARC
  5
342
100
AcDbEntity
  8
LaserCut
  6
ByLayer
 62
  256
370
   -1
100
AcDbCircle
 10
330
 20
19.99999999999993
 40
10
100
AcDbArc
 50
270
 51
0
  0
ARC
  5
343
100
AcDbEntity
  8
LaserCut
  6
ByLayer
 62
  256
370
   -1
100
AcDbCircle
 10
362
 20
91.99999999999989
 40
3
100
AcDbArc
 50
90
 51
180
  0
LINE
  5
344
100
AcDbEntity
  8
LaserCut
  6
ByLayer
 62
  256
370
   -1
100
AcDbLine
 10
368
 20
94.99999999999989
 11
362
 21
94.99999999999989
  0
ARC
  5
345
100
AcDbEntity
  8
LaserCut
  6
ByLayer
 62
  256
370
   -1
100
AcDbCircle
 10
368
 20
91.99999999999989
 40
3
100
AcDbArc
 50
360
 51
90
  0
LINE
  5
346
100
AcDbEntity
  8
LaserCut
  6
ByLayer
 62
  256
370
   -1
100
AcDbLine
 10
371
 20
75.99999999999989
 11
371
 21
91.99999999999989
  0
ARC
  5
347
100
AcDbEntity
  8
LaserCut
  6
ByLayer
 62
  256
370
   -1
100
AcDbCircle
 10
372
 20
75.99999999999989
 40
1
100
AcDbArc
 50
180
 51
270
  0
LINE
  5
348
100
AcDbEntity
  8
LaserCut
  6
ByLayer
 62
  256
370
   -1
100
AcDbLine
 10
374
 20
74.99999999999989
 11
372
 21
74.99999999999989
  0
ARC
  5
349
100
AcDbEntity
  8
LaserCut
  6
ByLayer
 62
  256
370
   -1
100
AcDbCircle
 10
374
 20
73.99999999999989
 40
1
100
AcDbArc
 50
360
 51
90
  0
ARC
  5
34A
100
AcDbEntity
  8
LaserCut
  6
ByLayer
 62
  256
370
   -1
100
AcDbCircle
 10
356
 20
73.99999999999989
 40
1
100
AcDbArc
 50
90
 51
180
  0
LINE
  5
34B
100
AcDbEntity
  8
LaserCut
  6
ByLayer
 62
  256
370
   -1
100
AcDbLine
 10
358
 20
74.99999999999989
 11
356
 21
74.99999999999989
  0
LINE
  5
34C
100
AcDbEntity
  8
LaserCut
  6
ByLayer
 62
  256
370
   -1
100
AcDbLine
 10
359
 20
91.99999999999989
 11
359
 21
75.99999999999989
  0
ARC
  5
34D
100
AcDbEntity
  8
LaserCut
  6
ByLayer
 62
  256
370
   -1
100
AcDbCircle
 10
358
 20
75.99999999999989
 40
1
100
AcDbArc
 50
270
 51
360
  0
ARC
  5
34E
100
AcDbEntity
  8
LaserCut
  6
ByLayer
 62
  256
370
   -1
100
AcDbCircle
 10
382
 20
106.9999999999999
 40
3
100
AcDbArc
 50
360
 51
90
  0
LINE
  5
34F
100
AcDbEntity
  8
LaserCut
  6
ByLayer
 62
  256
370
   -1
100
AcDbLine
 10
382
 20
109.9999999999999
 11
348
 21
109.9999999999999
  0
ARC
  5
350
100
AcDbEntity
  8
LaserCut
  6
ByLayer
 62
  256
370
   -1
100
AcDbCircle
 10
348
 20
106.9999999999999
 40
3
100
AcDbArc
 50
90
 51
180
  0
CIRCLE
  5
351
100
AcDbEntity
  8
LaserCut
  6
ByLayer
 62
  256
370
   -1
100
AcDbCircle
 10
355
 20
89.99999999999989
 40
1
  0
CIRCLE
  5
352
100
AcDbEntity
  8
LaserCut
  6
ByLayer
 62
  256
370
   -1
100
AcDbCircle
 10
375
 20
89.99999999999989
 40
1
  0
CIRCLE
  5
353
100
AcDbEntity
  8
LaserCut
  6
ByLayer
 62
  256
370
   -1
100
AcDbCircle
 10
365
 20
14.9999999999999
 40
1
  0
ARC
  5
354
100
AcDbEntity
  8
LaserCut
  6
ByLayer
 62
  256
370
   -1
100
AcDbCircle
 10
374
 20
25.99999999999989
 40
1
100
AcDbArc
 50
270
 51
360
  0
LINE
  5
355
100
AcDbEntity
  8
LaserCut
  6
ByLayer
 62
  256
370
   -1
100
AcDbLine
 10
356
 20
24.99999999999989
 11
374
 21
24.99999999999989
  0
ARC
  5
356
100
AcDbEntity
  8
LaserCut
  6
ByLayer
 62
  256
370
   -1
100
AcDbCircle
 10
356
 20
25.99999999999989
 40
1
100
AcDbArc
 50
180
 51
270
  0
CIRCLE
  5
357
100
AcDbEntity
  8
LaserCut
  6
ByLayer
 62
  256
370
   -1
100
AcDbCircle
 10
365
 20
19.9999999999999
 40
1
  0
ARC
  5
358
100
AcDbEntity
  8
LaserCut
  6
ByLayer
 62
  256
370
   -1
100
AcDbCircle
 10
365
 20
40
 40
13
100
AcDbArc
 50
140.2848627681783
 51
219.7151372318218
  0
ARC
  5
359
100
AcDbEntity
  8
LaserCut
  6
ByLayer
 62
  256
370
   -1
100
AcDbCircle
 10
365
 20
40
 40
13
100
AcDbArc
 50
320.2848627681628
 51
39.71513723183771
  0
LINE
  5
35A
100
AcDbEntity
  8
LaserCut
  6
ByLayer
 62
  256
370
   -1
100
AcDbLine
 10
375
 20
48.30662386292147
 11
375
 21
73.99999999999989
  0
LINE
  5
35B
100
AcDbEntity
  8
LaserCut
  6
ByLayer
 62
  256
370
   -1
100
AcDbLine
 10
375
 20
25.99999999999989
 11
375
 21
31.6933761370787
  0
LINE
  5
35C
100
AcDbEntity
  8
LaserCut
  6
ByLayer
 62
  256
370
   -1
100
AcDbLine
 10
355
 20
31.69337613708322
 11
355
 21
25.99999999999989
  0
LINE
  5
35D
100
AcDbEntity
  8
LaserCut
  6
ByLayer
 62
  256
370
   -1
100
AcDbLine
 10
355
 20
73.99999999999989
 11
355.0000000000001
 21
48.30662386292124
  0
LINE
  5
35E
100
AcDbEntity
  8
LaserCut
  6
ByLayer
 62
  256
370
   -1
100
AcDbLine
 10
345
 20
106.9999999999999
 11
345
 21
19.9999999999999
  0
ARC
  5
35F
100
AcDbEntity
  8
LaserCut
  6
ByLayer
 62
  256
370
   -1
100
AcDbCircle
 10
355
 20
19.99999999999989
 40
10
100
AcDbArc
 50
179.9999999999999
 51
270
  0
LINE
  5
360
100
AcDbEntity
  8
LaserCut
  6
ByLayer
 62
  256
370
   -1
100
AcDbLine
 10
385
 20
19.9999999999999
 11
385
 21
106.9999999999999
  0
LINE
  5
361
100
AcDbEntity
  8
LaserCut
  6
ByLayer
 62
  256
370
   -1
100
AcDbLine
 10
355
 20
9.999999999999901
 11
375
 21
9.999999999999901
  0
ARC
  5
362
100
AcDbEntity
  8
LaserCut
  6
ByLayer
 62
  256
370
   -1
100
AcDbCircle
 10
375
 20
19.9999999999999
 40
10
100
AcDbArc
 50
270
 51
0
  0
ARC
  5
363
100
AcDbEntity
  8
LaserCut
  6
ByLayer
 62
  256
370
   -1
100
AcDbCircle
 10
329.0000000000001
 20
135
 40
1
100
AcDbArc
 50
360
 51
90
  0
LINE
  5
364
100
AcDbEntity
  8
LaserCut
  6
ByLayer
 62
  256
370
   -1
100
AcDbLine
 10
330.0000000000001
 20
135
 11
330.0000000000001
 21
125
  0
ARC
  5
365
100
AcDbEntity
  8
LaserCut
  6
ByLayer
 62
  256
370
   -1
100
AcDbCircle
 10
329.0000000000001
 20
125
 40
1
100
AcDbArc
 50
270
 51
360
  0
LINE
  5
366
100
AcDbEntity
  8
LaserCut
  6
ByLayer
 62
  256
370
   -1
100
AcDbLine
 10
329.0000000000001
 20
136
 11
313.0000000000001
 21
136
  0
ARC
  5
367
100
AcDbEntity
  8
LaserCut
  6
ByLayer
 62
  256
370
   -1
100
AcDbCircle
 10
313.0000000000001
 20
133
 40
3
100
AcDbArc
 50
90
 51
180
  0
LINE
  5
368
100
AcDbEntity
  8
LaserCut
  6
ByLayer
 62
  256
370
   -1
100
AcDbLine
 10
313.0000000000001
 20
124
 11
329.0000000000001
 21
124
  0
LINE
  5
369
100
AcDbEntity
  8
LaserCut
  6
ByLayer
 62
  256
370
   -1
100
AcDbLine
 10
310.0000000000001
 20
133
 11
310.0000000000001
 21
127
  0
ARC
  5
36A
100
AcDbEntity
  8
LaserCut
  6
ByLayer
 62
  256
370
   -1
100
AcDbCircle
 10
313.0000000000001
 20
127
 40
3
100
AcDbArc
 50
180
 51
270
  0
ARC
  5
36B
100
AcDbEntity
  8
LaserCut
  6
ByLayer
 62
  256
370
   -1
100
AcDbCircle
 10
303.0000000000001
 20
142
 40
3
100
AcDbArc
 50
90
 51
180
  0
LINE
  5
36C
100
AcDbEntity
  8
LaserCut
  6
ByLayer
 62
  256
370
   -1
100
AcDbLine
 10
300.0000000000001
 20
142
 11
300.0000000000001
 21
118
  0
ARC
  5
36D
100
AcDbEntity
  8
LaserCut
  6
ByLayer
 62
  256
370
   -1
100
AcDbCircle
 10
303.0000000000001
 20
118
 40
3
100
AcDbArc
 50
180
 51
270
  0
CIRCLE
  5
36E
100
AcDbEntity
  8
LaserCut
  6
ByLayer
 62
  256
370
   -1
100
AcDbCircle
 10
315.0000000000001
 20
120
 40
1
  0
CIRCLE
  5
36F
100
AcDbEntity
  8
LaserCut
  6
ByLayer
 62
  256
370
   -1
100
AcDbCircle
 10
315.0000000000001
 20
140
 40
1
  0
CIRCLE
  5
370
100
AcDbEntity
  8
LaserCut
  6
ByLayer
 62
  256
370
   -1
100
AcDbCircle
 10
335.0000000000001
 20
130
 40
1
  0
CIRCLE
  5
371
100
AcDbEntity
  8
LaserCut
  6
ByLayer
 62
  256
370
   -1
100
AcDbCircle
 10
375.0000000000001
 20
130
 40
1
  0
CIRCLE
  5
372
100
AcDbEntity
  8
LaserCut
  6
ByLayer
 62
  256
370
   -1
100
AcDbCircle
 10
360.0000000000001
 20
130
 40
3
  0
CIRCLE
  5
373
100
AcDbEntity
  8
LaserCut
  6
ByLayer
 62
  256
370
   -1
100
AcDbCircle
 10
385.0000000000001
 20
130
 40
1
  0
ARC
  5
374
100
AcDbEntity
  8
LaserCut
  6
ByLayer
 62
  256
370
   -1
100
AcDbCircle
 10
329.0000000000001
 20
170
 40
1
100
AcDbArc
 50
360
 51
90
  0
LINE
  5
375
100
AcDbEntity
  8
LaserCut
  6
ByLayer
 62
  256
370
   -1
100
AcDbLine
 10
330.0000000000001
 20
170
 11
330.0000000000001
 21
160
  0
ARC
  5
376
100
AcDbEntity
  8
LaserCut
  6
ByLayer
 62
  256
370
   -1
100
AcDbCircle
 10
329.0000000000001
 20
160
 40
1
100
AcDbArc
 50
270
 51
360
  0
LINE
  5
377
100
AcDbEntity
  8
LaserCut
  6
ByLayer
 62
  256
370
   -1
100
AcDbLine
 10
329.0000000000001
 20
171
 11
313.0000000000001
 21
171
  0
ARC
  5
378
100
AcDbEntity
  8
LaserCut
  6
ByLayer
 62
  256
370
   -1
100
AcDbCircle
 10
313.0000000000001
 20
168
 40
3
100
AcDbArc
 50
90
 51
180
  0
LINE
  5
379
100
AcDbEntity
  8
LaserCut
  6
ByLayer
 62
  256
370
   -1
100
AcDbLine
 10
313.0000000000001
 20
159
 11
329.0000000000001
 21
159
  0
LINE
  5
37A
100
AcDbEntity
  8
LaserCut
  6
ByLayer
 62
  256
370
   -1
100
AcDbLine
 10
310.0000000000001
 20
168
 11
310.0000000000001
 21
162
  0
ARC
  5
37B
100
AcDbEntity
  8
LaserCut
  6
ByLayer
 62
  256
370
   -1
100
AcDbCircle
 10
313.0000000000001
 20
162
 40
3
100
AcDbArc
 50
180
 51
270
  0
ARC
  5
37C
100
AcDbEntity
  8
LaserCut
  6
ByLayer
 62
  256
370
   -1
100
AcDbCircle
 10
303.0000000000001
 20
177
 40
3
100
AcDbArc
 50
90
 51
180
  0
LINE
  5
37D
100
AcDbEntity
  8
LaserCut
  6
ByLayer
 62
  256
370
   -1
100
AcDbLine
 10
300.0000000000001
 20
177
 11
300.0000000000001
 21
153
  0
ARC
  5
37E
100
AcDbEntity
  8
LaserCut
  6
ByLayer
 62
  256
370
   -1
100
AcDbCircle
 10
303.0000000000001
 20
153
 40
3
100
AcDbArc
 50
180
 51
270
  0
CIRCLE
  5
37F
100
AcDbEntity
  8
LaserCut
  6
ByLayer
 62
  256
370
   -1
100
AcDbCircle
 10
315.0000000000001
 20
155
 40
1
  0
CIRCLE
  5
380
100
AcDbEntity
  8
LaserCut
  6
ByLayer
 62
  256
370
   -1
100
AcDbCircle
 10
315.0000000000001
 20
175
 40
1
  0
CIRCLE
  5
381
100
AcDbEntity
  8
LaserCut
  6
ByLayer
 62
  256
370
   -1
100
AcDbCircle
 10
335.0000000000001
 20
165
 40
1
  0
CIRCLE
  5
382
100
AcDbEntity
  8
LaserCut
  6
ByLayer
 62
  256
370
   -1
100
AcDbCircle
 10
375.0000000000001
 20
165
 40
1
  0
CIRCLE
  5
383
100
AcDbEntity
  8
LaserCut
  6
ByLayer
 62
  256
370
   -1
100
AcDbCircle
 10
360.0000000000001
 20
165
 40
3
  0
CIRCLE
  5
384
100
AcDbEntity
  8
LaserCut
  6
ByLayer
 62
  256
370
   -1
100
AcDbCircle
 10
385.0000000000001
 20
165
 40
1
  0
LINE
  5
385
100
AcDbEntity
  8
LaserCut
  6
ByLayer
 62
  256
370
   -1
100
AcDbLine
 10
303.0000000000001
 20
115
 11
380.0000000000001
 21
115
  0
ARC
  5
386
100
AcDbEntity
  8
LaserCut
  6
ByLayer
 62
  256
370
   -1
100
AcDbCircle
 10
380.0000000000001
 20
125
 40
10
100
AcDbArc
 50
270
 51
360
  0
LINE
  5
387
100
AcDbEntity
  8
LaserCut
  6
ByLayer
 62
  256
370
   -1
100
AcDbLine
 10
390.0000000000001
 20
125
 11
390.0000000000001
 21
135
  0
LINE
  5
388
100
AcDbEntity
  8
LaserCut
  6
ByLayer
 62
  256
370
   -1
100
AcDbLine
 10
380.0000000000001
 20
145
 11
303.0000000000001
 21
145
  0
ARC
  5
389
100
AcDbEntity
  8
LaserCut
  6
ByLayer
 62
  256
370
   -1
100
AcDbCircle
 10
380.0000000000001
 20
135
 40
10
100
AcDbArc
 50
360
 51
90
  0
LINE
  5
38A
100
AcDbEntity
  8
LaserCut
  6
ByLayer
 62
  256
370
   -1
100
AcDbLine
 10
303.0000000000001
 20
150
 11
380.0000000000001
 21
150
  0
ARC
  5
38B
100
AcDbEntity
  8
LaserCut
  6
ByLayer
 62
  256
370
   -1
100
AcDbCircle
 10
380.0000000000001
 20
160
 40
10
100
AcDbArc
 50
270
 51
360
  0
LINE
  5
38C
100
AcDbEntity
  8
LaserCut
  6
ByLayer
 62
  256
370
   -1
100
AcDbLine
 10
380.0000000000001
 20
180
 11
303.0000000000001
 21
180
  0
LINE
  5
38D
100
AcDbEntity
  8
LaserCut
  6
ByLayer
 62
  256
370
   -1
100
AcDbLine
 10
390.0000000000001
 20
160
 11
390.0000000000001
 21
170
  0
ARC
  5
38E
100
AcDbEntity
  8
LaserCut
  6
ByLayer
 62
  256
370
   -1
100
AcDbCircle
 10
380.0000000000001
 20
170
 40
10
100
AcDbArc
 50
360
 51
90
  0
ARC
  5
38F
100
AcDbEntity
  8
LaserCut
  6
ByLayer
 62
  256
370
   -1
100
AcDbCircle
 10
303.0000000000001
 20
252
 40
3
100
AcDbArc
 50
90
 51
180
  0
LINE
  5
390
100
AcDbEntity
  8
LaserCut
  6
ByLayer
 62
  256
370
   -1
100
AcDbLine
 10
300.0000000000001
 20
252
 11
300.0000000000001
 21
238
  0
ARC
  5
391
100
AcDbEntity
  8
LaserCut
  6
ByLayer
 62
  256
370
   -1
100
AcDbCircle
 10
303.0000000000001
 20
238
 40
3
100
AcDbArc
 50
180
 51
270
  0
CIRCLE
  5
392
100
AcDbEntity
  8
LaserCut
  6
ByLayer
 62
  256
370
   -1
100
AcDbCircle
 10
330.0000000000001
 20
245
 40
1
  0
CIRCLE
  5
393
100
AcDbEntity
  8
LaserCut
  6
ByLayer
 62
  256
370
   -1
100
AcDbCircle
 10
370.0000000000001
 20
245
 40
1
  0
CIRCLE
  5
394
100
AcDbEntity
  8
LaserCut
  6
ByLayer
 62
  256
370
   -1
100
AcDbCircle
 10
355.0000000000001
 20
245
 40
3
  0
LINE
  5
395
100
AcDbEntity
  8
LaserCut
  6
ByLayer
 62
  256
370
   -1
100
AcDbLine
 10
370.0000000000001
 20
255
 11
303.0000000000001
 21
255
  0
ARC
  5
396
100
AcDbEntity
  8
LaserCut
  6
ByLayer
 62
  256
370
   -1
100
AcDbCircle
 10
370.0000000000001
 20
245
 40
10
100
AcDbArc
 50
360
 51
90
  0
LINE
  5
397
100
AcDbEntity
  8
LaserCut
  6
ByLayer
 62
  256
370
   -1
100
AcDbLine
 10
303.0000000000001
 20
235
 11
370.0000000000001
 21
235
  0
LINE
  5
398
100
AcDbEntity
  8
LaserCut
  6
ByLayer
 62
  256
370
   -1
100
AcDbLine
 10
380.0000000000001
 20
245
 11
380.0000000000001
 21
245
  0
ARC
  5
399
100
AcDbEntity
  8
LaserCut
  6
ByLayer
 62
  256
370
   -1
100
AcDbCircle
 10
370.0000000000001
 20
245
 40
10
100
AcDbArc
 50
270
 51
360
  0
ARC
  5
39A
100
AcDbEntity
  8
LaserCut
  6
ByLayer
 62
  256
370
   -1
100
AcDbCircle
 10
303.0000000000001
 20
277
 40
3
100
AcDbArc
 50
90
 51
180
  0
LINE
  5
39B
100
AcDbEntity
  8
LaserCut
  6
ByLayer
 62
  256
370
   -1
100
AcDbLine
 10
300.0000000000001
 20
277
 11
300.0000000000001
 21
263
  0
ARC
  5
39C
100
AcDbEntity
  8
LaserCut
  6
ByLayer
 62
  256
370
   -1
100
AcDbCircle
 10
303.0000000000001
 20
263
 40
3
100
AcDbArc
 50
180
 51
270
  0
CIRCLE
  5
39D
100
AcDbEntity
  8
LaserCut
  6
ByLayer
 62
  256
370
   -1
100
AcDbCircle
 10
330.0000000000001
 20
270
 40
1
  0
CIRCLE
  5
39E
100
AcDbEntity
  8
LaserCut
  6
ByLayer
 62
  256
370
   -1
100
AcDbCircle
 10
370.0000000000001
 20
270
 40
1
  0
CIRCLE
  5
39F
100
AcDbEntity
  8
LaserCut
  6
ByLayer
 62
  256
370
   -1
100
AcDbCircle
 10
355.0000000000001
 20
270
 40
3
  0
LINE
  5
3A0
100
AcDbEntity
  8
LaserCut
  6
ByLayer
 62
  256
370
   -1
100
AcDbLine
 10
370.0000000000001
 20
280
 11
303.0000000000001
 21
280
  0
ARC
  5
3A1
100
AcDbEntity
  8
LaserCut
  6
ByLayer
 62
  256
370
   -1
100
AcDbCircle
 10
370.0000000000001
 20
270
 40
10
100
AcDbArc
 50
360
 51
90
  0
LINE
  5
3A2
100
AcDbEntity
  8
LaserCut
  6
ByLayer
 62
  256
370
   -1
100
AcDbLine
 10
303.0000000000001
 20
260
 11
370.0000000000001
 21
260
  0
LINE
  5
3A3
100
AcDbEntity
  8
LaserCut
  6
ByLayer
 62
  256
370
   -1
100
AcDbLine
 10
380.0000000000001
 20
270
 11
380.0000000000001
 21
270
  0
ARC
  5
3A4
100
AcDbEntity
  8
LaserCut
  6
ByLayer
 62
  256
370
   -1
100
AcDbCircle
 10
370.0000000000001
 20
270
 40
10
100
AcDbArc
 50
270
 51
360
  0
ARC
  5
3A5
100
AcDbEntity
  8
LaserCut
  6
ByLayer
 62
  256
370
   -1
100
AcDbCircle
 10
303.0000000000001
 20
202
 40
3
100
AcDbArc
 50
90
 51
180
  0
LINE
  5
3A6
100
AcDbEntity
  8
LaserCut
  6
ByLayer
 62
  256
370
   -1
100
AcDbLine
 10
300.0000000000001
 20
202
 11
300.0000000000001
 21
188
  0
ARC
  5
3A7
100
AcDbEntity
  8
LaserCut
  6
ByLayer
 62
  256
370
   -1
100
AcDbCircle
 10
303.0000000000001
 20
188
 40
3
100
AcDbArc
 50
180
 51
270
  0
CIRCLE
  5
3A8
100
AcDbEntity
  8
LaserCut
  6
ByLayer
 62
  256
370
   -1
100
AcDbCircle
 10
330.0000000000001
 20
195
 40
1
  0
CIRCLE
  5
3A9
100
AcDbEntity
  8
LaserCut
  6
ByLayer
 62
  256
370
   -1
100
AcDbCircle
 10
370.0000000000001
 20
195
 40
1
  0
CIRCLE
  5
3AA
100
AcDbEntity
  8
LaserCut
  6
ByLayer
 62
  256
370
   -1
100
AcDbCircle
 10
355.0000000000001
 20
195
 40
3
  0
LINE
  5
3AB
100
AcDbEntity
  8
LaserCut
  6
ByLayer
 62
  256
370
   -1
100
AcDbLine
 10
370.0000000000001
 20
205
 11
303.0000000000001
 21
205
  0
ARC
  5
3AC
100
AcDbEntity
  8
LaserCut
  6
ByLayer
 62
  256
370
   -1
100
AcDbCircle
 10
370.0000000000001
 20
195
 40
10
100
AcDbArc
 50
360
 51
90
  0
LINE
  5
3AD
100
AcDbEntity
  8
LaserCut
  6
ByLayer
 62
  256
370
   -1
100
AcDbLine
 10
303.0000000000001
 20
185
 11
370.0000000000001
 21
185
  0
LINE
  5
3AE
100
AcDbEntity
  8
LaserCut
  6
ByLayer
 62
  256
370
   -1
100
AcDbLine
 10
380.0000000000001
 20
195
 11
380.0000000000001
 21
195
  0
ARC
  5
3AF
100
AcDbEntity
  8
LaserCut
  6
ByLayer
 62
  256
370
   -1
100
AcDbCircle
 10
370.0000000000001
 20
195
 40
10
100
AcDbArc
 50
270
 51
360
  0
ARC
  5
3B0
100
AcDbEntity
  8
LaserCut
  6
ByLayer
 62
  256
370
   -1
100
AcDbCircle
 10
303.0000000000001
 20
227
 40
3
100
AcDbArc
 50
90
 51
180
  0
LINE
  5
3B1
100
AcDbEntity
  8
LaserCut
  6
ByLayer
 62
  256
370
   -1
100
AcDbLine
 10
300.0000000000001
 20
227
 11
300.0000000000001
 21
213
  0
ARC
  5
3B2
100
AcDbEntity
  8
LaserCut
  6
ByLayer
 62
  256
370
   -1
100
AcDbCircle
 10
303.0000000000001
 20
213
 40
3
100
AcDbArc
 50
180
 51
270
  0
CIRCLE
  5
3B3
100
AcDbEntity
  8
LaserCut
  6
ByLayer
 62
  256
370
   -1
100
AcDbCircle
 10
330.0000000000001
 20
220
 40
1
  0
CIRCLE
  5
3B4
100
AcDbEntity
  8
LaserCut
  6
ByLayer
 62
  256
370
   -1
100
AcDbCircle
 10
370.0000000000001
 20
220
 40
1
  0
CIRCLE
  5
3B5
100
AcDbEntity
  8
LaserCut
  6
ByLayer
 62
  256
370
   -1
100
AcDbCircle
 10
355.0000000000001
 20
220
 40
3
  0
LINE
  5
3B6
100
AcDbEntity
  8
LaserCut
  6
ByLayer
 62
  256
370
   -1
100
AcDbLine
 10
370.0000000000001
 20
230
 11
303.0000000000001
 21
230
  0
ARC
  5
3B7
100
AcDbEntity
  8
LaserCut
  6
ByLayer
 62
  256
370
   -1
100
AcDbCircle
 10
370.0000000000001
 20
220
 40
10
100
AcDbArc
 50
360
 51
90
  0
LINE
  5
3B8
100
AcDbEntity
  8
LaserCut
  6
ByLayer
 62
  256
370
   -1
100
AcDbLine
 10
303.0000000000001
 20
210
 11
370.0000000000001
 21
210
  0
LINE
  5
3B9
100
AcDbEntity
  8
LaserCut
  6
ByLayer
 62
  256
370
   -1
100
AcDbLine
 10
380.0000000000001
 20
220
 11
380.0000000000001
 21
220
  0
ARC
  5
3BA
100
AcDbEntity
  8
LaserCut
  6
ByLayer
 62
  256
370
   -1
100
AcDbCircle
 10
370.0000000000001
 20
220
 40
10
100
AcDbArc
 50
270
 51
360
  0
ARC
  5
3BB
100
AcDbEntity
  8
LaserCut
  6
ByLayer
 62
  256
370
   -1
100
AcDbCircle
 10
303.0000000000001
 20
302
 40
3
100
AcDbArc
 50
90
 51
180
  0
LINE
  5
3BC
100
AcDbEntity
  8
LaserCut
  6
ByLayer
 62
  256
370
   -1
100
AcDbLine
 10
300.0000000000001
 20
302
 11
300.0000000000001
 21
288
  0
ARC
  5
3BD
100
AcDbEntity
  8
LaserCut
  6
ByLayer
 62
  256
370
   -1
100
AcDbCircle
 10
303.0000000000001
 20
288
 40
3
100
AcDbArc
 50
180
 51
270
  0
CIRCLE
  5
3BE
100
AcDbEntity
  8
LaserCut
  6
ByLayer
 62
  256
370
   -1
100
AcDbCircle
 10
330.0000000000001
 20
295
 40
1
  0
CIRCLE
  5
3BF
100
AcDbEntity
  8
LaserCut
  6
ByLayer
 62
  256
370
   -1
100
AcDbCircle
 10
370.0000000000001
 20
295
 40
1
  0
CIRCLE
  5
3C0
100
AcDbEntity
  8
LaserCut
  6
ByLayer
 62
  256
370
   -1
100
AcDbCircle
 10
355.0000000000001
 20
295
 40
3
  0
LINE
  5
3C1
100
AcDbEntity
  8
LaserCut
  6
ByLayer
 62
  256
370
   -1
100
AcDbLine
 10
370.0000000000001
 20
305
 11
303.0000000000001
 21
305
  0
ARC
  5
3C2
100
AcDbEntity
  8
LaserCut
  6
ByLayer
 62
  256
370
   -1
100
AcDbCircle
 10
370.0000000000001
 20
295
 40
10
100
AcDbArc
 50
360
 51
90
  0
LINE
  5
3C3
100
AcDbEntity
  8
LaserCut
  6
ByLayer
 62
  256
370
   -1
100
AcDbLine
 10
303.0000000000001
 20
285
 11
370.0000000000001
 21
285
  0
LINE
  5
3C4
100
AcDbEntity
  8
LaserCut
  6
ByLayer
 62
  256
370
   -1
100
AcDbLine
 10
380.0000000000001
 20
295
 11
380.0000000000001
 21
295
  0
ARC
  5
3C5
100
AcDbEntity
  8
LaserCut
  6
ByLayer
 62
  256
370
   -1
100
AcDbCircle
 10
370.0000000000001
 20
295
 40
10
100
AcDbArc
 50
270
 51
360
  0
ARC
  5
3C6
100
AcDbEntity
  8
LaserCut
  6
ByLayer
 62
  256
370
   -1
100
AcDbCircle
 10
303.0000000000001
 20
327
 40
3
100
AcDbArc
 50
90
 51
180
  0
LINE
  5
3C7
100
AcDbEntity
  8
LaserCut
  6
ByLayer
 62
  256
370
   -1
100
AcDbLine
 10
300.0000000000001
 20
327
 11
300.0000000000001
 21
313
  0
ARC
  5
3C8
100
AcDbEntity
  8
LaserCut
  6
ByLayer
 62
  256
370
   -1
100
AcDbCircle
 10
303.0000000000001
 20
313
 40
3
100
AcDbArc
 50
180
 51
270
  0
CIRCLE
  5
3C9
100
AcDbEntity
  8
LaserCut
  6
ByLayer
 62
  256
370
   -1
100
AcDbCircle
 10
330.0000000000001
 20
320
 40
1
  0
CIRCLE
  5
3CA
100
AcDbEntity
  8
LaserCut
  6
ByLayer
 62
  256
370
   -1
100
AcDbCircle
 10
370.0000000000001
 20
320
 40
1
  0
CIRCLE
  5
3CB
100
AcDbEntity
  8
LaserCut
  6
ByLayer
 62
  256
370
   -1
100
AcDbCircle
 10
355.0000000000001
 20
320
 40
3
  0
LINE
  5
3CC
100
AcDbEntity
  8
LaserCut
  6
ByLayer
 62
  256
370
   -1
100
AcDbLine
 10
370.0000000000001
 20
330
 11
303.0000000000001
 21
330
  0
ARC
  5
3CD
100
AcDbEntity
  8
LaserCut
  6
ByLayer
 62
  256
370
   -1
100
AcDbCircle
 10
370.0000000000001
 20
320
 40
10
100
AcDbArc
 50
360
 51
90
  0
LINE
  5
3CE
100
AcDbEntity
  8
LaserCut
  6
ByLayer
 62
  256
370
   -1
100
AcDbLine
 10
303.0000000000001
 20
310
 11
370.0000000000001
 21
310
  0
LINE
  5
3CF
100
AcDbEntity
  8
LaserCut
  6
ByLayer
 62
  256
370
   -1
100
AcDbLine
 10
380.0000000000001
 20
320
 11
380.0000000000001
 21
320
  0
ARC
  5
3D0
100
AcDbEntity
  8
LaserCut
  6
ByLayer
 62
  256
370
   -1
100
AcDbCircle
 10
370.0000000000001
 20
320
 40
10
100
AcDbArc
 50
270
 51
360
  0
ARC
  5
3D1
100
AcDbEntity
  8
LaserCut
  6
ByLayer
 62
  256
370
   -1
100
AcDbCircle
 10
303.0000000000001
 20
352
 40
3
100
AcDbArc
 50
90
 51
180
  0
LINE
  5
3D2
100
AcDbEntity
  8
LaserCut
  6
ByLayer
 62
  256
370
   -1
100
AcDbLine
 10
300.0000000000001
 20
352
 11
300.0000000000001
 21
338
  0
ARC
  5
3D3
100
AcDbEntity
  8
LaserCut
  6
ByLayer
 62
  256
370
   -1
100
AcDbCircle
 10
303.0000000000001
 20
338
 40
3
100
AcDbArc
 50
180
 51
270
  0
CIRCLE
  5
3D4
100
AcDbEntity
  8
LaserCut
  6
ByLayer
 62
  256
370
   -1
100
AcDbCircle
 10
330.0000000000001
 20
345
 40
1
  0
CIRCLE
  5
3D5
100
AcDbEntity
  8
LaserCut
  6
ByLayer
 62
  256
370
   -1
100
AcDbCircle
 10
370.0000000000001
 20
345
 40
1
  0
CIRCLE
  5
3D6
100
AcDbEntity
  8
LaserCut
  6
ByLayer
 62
  256
370
   -1
100
AcDbCircle
 10
355.0000000000001
 20
345
 40
3
  0
LINE
  5
3D7
100
AcDbEntity
  8
LaserCut
  6
ByLayer
 62
  256
370
   -1
100
AcDbLine
 10
370.0000000000001
 20
355
 11
303.0000000000001
 21
355
  0
ARC
  5
3D8
100
AcDbEntity
  8
LaserCut
  6
ByLayer
 62
  256
370
   -1
100
AcDbCircle
 10
370.0000000000001
 20
345
 40
10
100
AcDbArc
 50
360
 51
90
  0
LINE
  5
3D9
100
AcDbEntity
  8
LaserCut
  6
ByLayer
 62
  256
370
   -1
100
AcDbLine
 10
303.0000000000001
 20
335
 11
370.0000000000001
 21
335
  0
LINE
  5
3DA
100
AcDbEntity
  8
LaserCut
  6
ByLayer
 62
  256
370
   -1
100
AcDbLine
 10
380.0000000000001
 20
345
 11
380.0000000000001
 21
345
  0
ARC
  5
3DB
100
AcDbEntity
  8
LaserCut
  6
ByLayer
 62
  256
370
   -1
100
AcDbCircle
 10
370.0000000000001
 20
345
 40
10
100
AcDbArc
 50
270
 51
360
  0
ARC
  5
3DC
100
AcDbEntity
  8
LaserCut
  6
ByLayer
 62
  256
370
   -1
100
AcDbCircle
 10
303.0000000000001
 20
377
 40
3
100
AcDbArc
 50
90
 51
180
  0
LINE
  5
3DD
100
AcDbEntity
  8
LaserCut
  6
ByLayer
 62
  256
370
   -1
100
AcDbLine
 10
300.0000000000001
 20
377
 11
300.0000000000001
 21
363
  0
ARC
  5
3DE
100
AcDbEntity
  8
LaserCut
  6
ByLayer
 62
  256
370
   -1
100
AcDbCircle
 10
303.0000000000001
 20
363
 40
3
100
AcDbArc
 50
180
 51
270
  0
CIRCLE
  5
3DF
100
AcDbEntity
  8
LaserCut
  6
ByLayer
 62
  256
370
   -1
100
AcDbCircle
 10
330.0000000000001
 20
370
 40
1
  0
CIRCLE
  5
3E0
100
AcDbEntity
  8
LaserCut
  6
ByLayer
 62
  256
370
   -1
100
AcDbCircle
 10
370.0000000000001
 20
370
 40
1
  0
CIRCLE
  5
3E1
100
AcDbEntity
  8
LaserCut
  6
ByLayer
 62
  256
370
   -1
100
AcDbCircle
 10
355.0000000000001
 20
370
 40
3
  0
LINE
  5
3E2
100
AcDbEntity
  8
LaserCut
  6
ByLayer
 62
  256
370
   -1
100
AcDbLine
 10
370.0000000000001
 20
380
 11
303.0000000000001
 21
380
  0
ARC
  5
3E3
100
AcDbEntity
  8
LaserCut
  6
ByLayer
 62
  256
370
   -1
100
AcDbCircle
 10
370.0000000000001
 20
370
 40
10
100
AcDbArc
 50
360
 51
90
  0
LINE
  5
3E4
100
AcDbEntity
  8
LaserCut
  6
ByLayer
 62
  256
370
   -1
100
AcDbLine
 10
303.0000000000001
 20
360
 11
370.0000000000001
 21
360
  0
LINE
  5
3E5
100
AcDbEntity
  8
LaserCut
  6
ByLayer
 62
  256
370
   -1
100
AcDbLine
 10
380.0000000000001
 20
370
 11
380.0000000000001
 21
370
  0
ARC
  5
3E6
100
AcDbEntity
  8
LaserCut
  6
ByLayer
 62
  256
370
   -1
100
AcDbCircle
 10
370.0000000000001
 20
370
 40
10
100
AcDbArc
 50
270
 51
360
  0
CIRCLE
  5
3E7
100
AcDbEntity
  8
LaserCut
  6
ByLayer
 62
  256
370
   -1
100
AcDbCircle
 10
50
 20
60
 40
1
  0
CIRCLE
  5
3E8
100
AcDbEntity
  8
LaserCut
  6
ByLayer
 62
  256
370
   -1
100
AcDbCircle
 10
90
 20
60
 40
1
  0
CIRCLE
  5
3E9
100
AcDbEntity
  8
LaserCut
  6
ByLayer
 62
  256
370
   -1
100
AcDbCircle
 10
251
 20
60
 40
1
  0
CIRCLE
  5
3EA
100
AcDbEntity
  8
LaserCut
  6
ByLayer
 62
  256
370
   -1
100
AcDbCircle
 10
211
 20
60
 40
1
  0
LINE
  5
3EB
100
AcDbEntity
  8
LaserCut
  6
ByLayer
 62
    7
370
   -1
100
AcDbLine
 10
21
 20
305
 11
33
 21
305
  0
LINE
  5
3EC
100
AcDbEntity
  8
LaserCut
  6
ByLayer
 62
    7
370
   -1
100
AcDbLine
 10
33
 20
376
 11
21
 21
376
  0
LINE
  5
3ED
100
AcDbEntity
  8
LaserCut
  6
ByLayer
 62
    7
370
   -1
100
AcDbLine
 10
20.2
 20
115
 11
33.8
 21
115
  0
LINE
  5
3EE
100
AcDbEntity
  8
LaserCut
  6
ByLayer
 62
    7
370
   -1
100
AcDbLine
 10
20
 20
128.8
 11
20
 21
115.2
  0
CIRCLE
  5
3EF
100
AcDbEntity
  8
LaserCut
  6
ByLayer
 62
    7
370
   -1
100
AcDbCircle
 10
150.5
 20
245.5
 40
0.5
  0
CIRCLE
  5
3F0
100
AcDbEntity
  8
LaserCut
  6
ByLayer
 62
    7
370
   -1
100
AcDbCircle
 10
286
 20
381
 40
1
  0
CIRCLE
  5
3F1
100
AcDbEntity
  8
LaserCut
  6
ByLayer
 62
    7
370
   -1
100
AcDbCircle
 10
188.5
 20
300
 40
1
  0
CIRCLE
  5
3F2
100
AcDbEntity
  8
LaserCut
  6
ByLayer
 62
  256
370
   -1
100
AcDbCircle
 10
286
 20
300
 40
1
  0
CIRCLE
  5
3F3
100
AcDbEntity
  8
LaserCut
  6
ByLayer
 62
  256
370
   -1
100
AcDbCircle
 10
15
 20
55.5
 40
1
  0
CIRCLE
  5
3F4
100
AcDbEntity
  8
LaserCut
  6
ByLayer
 62
  256
370
   -1
100
AcDbCircle
 10
286
 20
55.5
 40
1
  0
CIRCLE
  5
3F5
100
AcDbEntity
  8
LaserCut
  6
ByLayer
 62
  256
370
   -1
100
AcDbCircle
 10
15
 20
340.5
 40
1
  0
CIRCLE
  5
3F6
100
AcDbEntity
  8
LaserCut
  6
ByLayer
 62
  256
370
   -1
100
AcDbCircle
 10
286
 20
340.5
 40
1
  0
ENDSEC
  0
SECTION
  2
OBJECTS
  0
DICTIONARY
  5
C
330
0
100
AcDbDictionary
281
    1
  3
ACAD_GROUP
350
D
  0
DICTIONARY
  5
D
330
C
100
AcDbDictionary
281
    1
  0
ENDSEC
  0
EOF
